<svg width="598" height="402" viewBox="0 0 598 402" fill="none" xmlns="http://www.w3.org/2000/svg">
<g filter="url(#filter0_d_119_291)">
<rect x="17" y="18" width="554" height="358" rx="9.43709" fill="white"/>
<path d="M46.5503 63.3113V50.9573H48.7883V56.1872H54.5129V50.9573H56.7569V63.3113H54.5129V58.0632H48.7883V63.3113H46.5503ZM61.7606 63.4983C61.1735 63.4983 60.6446 63.3937 60.1741 63.1846C59.7076 62.9714 59.3376 62.6578 59.0642 62.2436C58.7947 61.8293 58.66 61.3186 58.66 60.7114C58.66 60.1886 58.7565 59.7563 58.9496 59.4144C59.1426 59.0726 59.406 58.7991 59.7398 58.5941C60.0736 58.389 60.4496 58.2341 60.8678 58.1296C61.2901 58.021 61.7264 57.9426 62.1768 57.8943C62.7197 57.838 63.1601 57.7877 63.4979 57.7435C63.8357 57.6953 64.081 57.6229 64.2338 57.5263C64.3906 57.4258 64.4691 57.271 64.4691 57.0619V57.0257C64.4691 56.5712 64.3343 56.2194 64.0649 55.97C63.7955 55.7207 63.4074 55.596 62.9007 55.596C62.3658 55.596 61.9416 55.7127 61.6279 55.9459C61.3182 56.1792 61.1091 56.4546 61.0005 56.7723L58.9616 56.4828C59.1225 55.9198 59.3879 55.4493 59.7579 55.0712C60.1279 54.6892 60.5803 54.4037 61.1151 54.2147C61.65 54.0216 62.2412 53.9251 62.8886 53.9251C63.335 53.9251 63.7794 53.9774 64.2217 54.0819C64.6641 54.1865 65.0683 54.3594 65.4342 54.6007C65.8002 54.838 66.0937 55.1617 66.3149 55.5719C66.5401 55.9821 66.6527 56.4948 66.6527 57.1101V63.3113H64.5535V62.0385H64.4811C64.3484 62.2958 64.1614 62.5371 63.9201 62.7623C63.6829 62.9835 63.3833 63.1625 63.0213 63.2992C62.6634 63.4319 62.2432 63.4983 61.7606 63.4983ZM62.3276 61.8937C62.766 61.8937 63.146 61.8072 63.4677 61.6343C63.7894 61.4574 64.0368 61.2241 64.2097 60.9346C64.3866 60.645 64.4751 60.3293 64.4751 59.9875V58.8957C64.4067 58.952 64.2901 59.0042 64.1252 59.0525C63.9644 59.1008 63.7834 59.143 63.5823 59.1792C63.3813 59.2154 63.1822 59.2475 62.9851 59.2757C62.7881 59.3038 62.6172 59.328 62.4724 59.3481C62.1467 59.3923 61.8551 59.4647 61.5977 59.5652C61.3403 59.6658 61.1373 59.8065 60.9885 59.9875C60.8397 60.1644 60.7653 60.3937 60.7653 60.6752C60.7653 61.0773 60.9121 61.3809 61.2056 61.586C61.4992 61.7911 61.8732 61.8937 62.3276 61.8937ZM76.1716 56.4948L74.1809 56.712C74.1246 56.5109 74.0261 56.3219 73.8854 56.145C73.7486 55.968 73.5637 55.8253 73.3304 55.7167C73.0972 55.6081 72.8116 55.5538 72.4738 55.5538C72.0194 55.5538 71.6374 55.6523 71.3277 55.8494C71.0221 56.0464 70.8713 56.3018 70.8753 56.6155C70.8713 56.8849 70.9698 57.1041 71.1709 57.273C71.376 57.4419 71.7138 57.5806 72.1843 57.6892L73.7647 58.027C74.6414 58.216 75.2929 58.5156 75.7192 58.9258C76.1495 59.336 76.3666 59.8729 76.3706 60.5364C76.3666 61.1195 76.1957 61.6343 75.8579 62.0807C75.5241 62.523 75.0596 62.8689 74.4645 63.1182C73.8693 63.3676 73.1856 63.4922 72.4135 63.4922C71.2794 63.4922 70.3666 63.255 69.6749 62.7804C68.9832 62.3019 68.571 61.6363 68.4383 60.7838L70.5676 60.5787C70.6642 60.9969 70.8693 61.3126 71.1829 61.5257C71.4966 61.7389 71.9048 61.8454 72.4075 61.8454C72.9262 61.8454 73.3425 61.7389 73.6561 61.5257C73.9738 61.3126 74.1327 61.0492 74.1327 60.7355C74.1327 60.4701 74.0301 60.2509 73.825 60.078C73.624 59.9051 73.3103 59.7723 72.884 59.6799L71.3036 59.3481C70.4148 59.1631 69.7573 58.8514 69.331 58.4131C68.9048 57.9707 68.6936 57.4117 68.6977 56.7361C68.6936 56.1651 68.8485 55.6704 69.1621 55.2522C69.4798 54.8299 69.9202 54.5042 70.4832 54.275C71.0502 54.0417 71.7037 53.9251 72.4437 53.9251C73.5295 53.9251 74.384 54.1563 75.0074 54.6188C75.6347 55.0813 76.0228 55.7066 76.1716 56.4948ZM80.3549 57.8823V63.3113H78.1713V50.9573H80.3067V55.6202H80.4153C80.6324 55.0974 80.9682 54.6852 81.4226 54.3836C81.8811 54.0779 82.4642 53.9251 83.172 53.9251C83.8154 53.9251 84.3764 54.0598 84.855 54.3293C85.3335 54.5987 85.7035 54.9928 85.9649 55.5116C86.2303 56.0304 86.363 56.6637 86.363 57.4117V63.3113H84.1794V57.7495C84.1794 57.1262 84.0185 56.6416 83.6968 56.2958C83.3791 55.9459 82.9327 55.771 82.3576 55.771C81.9716 55.771 81.6257 55.8554 81.3201 56.0243C81.0185 56.1892 80.7812 56.4285 80.6083 56.7422C80.4394 57.0558 80.3549 57.4359 80.3549 57.8823ZM93.2156 54.0458V55.7348H87.8892V54.0458H93.2156ZM89.2042 51.8259H91.3879V60.5244C91.3879 60.8179 91.4321 61.0431 91.5206 61.2C91.6131 61.3528 91.7337 61.4574 91.8825 61.5137C92.0313 61.57 92.1962 61.5981 92.3772 61.5981C92.5139 61.5981 92.6386 61.588 92.7512 61.5679C92.8678 61.5478 92.9563 61.5297 93.0166 61.5137L93.3846 63.2208C93.2679 63.261 93.101 63.3052 92.8839 63.3535C92.6707 63.4017 92.4093 63.4299 92.0997 63.4379C91.5528 63.454 91.0601 63.3716 90.6218 63.1906C90.1834 63.0056 89.8356 62.7201 89.5782 62.334C89.3249 61.948 89.2002 61.4654 89.2042 60.8863V51.8259ZM97.7082 63.4983C97.121 63.4983 96.5922 63.3937 96.1217 63.1846C95.6552 62.9714 95.2852 62.6578 95.0117 62.2436C94.7423 61.8293 94.6076 61.3186 94.6076 60.7114C94.6076 60.1886 94.7041 59.7563 94.8971 59.4144C95.0902 59.0726 95.3536 58.7991 95.6874 58.5941C96.0211 58.389 96.3971 58.2341 96.8154 58.1296C97.2376 58.021 97.674 57.9426 98.1244 57.8943C98.6673 57.838 99.1076 57.7877 99.4454 57.7435C99.7832 57.6953 100.029 57.6229 100.181 57.5263C100.338 57.4258 100.417 57.271 100.417 57.0619V57.0257C100.417 56.5712 100.282 56.2194 100.012 55.97C99.743 55.7207 99.3549 55.596 98.8482 55.596C98.3134 55.596 97.8891 55.7127 97.5754 55.9459C97.2658 56.1792 97.0567 56.4546 96.9481 56.7723L94.9092 56.4828C95.0701 55.9198 95.3355 55.4493 95.7055 55.0712C96.0754 54.6892 96.5278 54.4037 97.0627 54.2147C97.5976 54.0216 98.1887 53.9251 98.8362 53.9251C99.2826 53.9251 99.7269 53.9774 100.169 54.0819C100.612 54.1865 101.016 54.3594 101.382 54.6007C101.748 54.838 102.041 55.1617 102.262 55.5719C102.488 55.9821 102.6 56.4948 102.6 57.1101V63.3113H100.501V62.0385H100.429C100.296 62.2958 100.109 62.5371 99.8677 62.7623C99.6304 62.9835 99.3308 63.1625 98.9689 63.2992C98.611 63.4319 98.1907 63.4983 97.7082 63.4983ZM98.2752 61.8937C98.7135 61.8937 99.0936 61.8072 99.4153 61.6343C99.737 61.4574 99.9843 61.2241 100.157 60.9346C100.334 60.645 100.423 60.3293 100.423 59.9875V58.8957C100.354 58.952 100.238 59.0042 100.073 59.0525C99.9119 59.1008 99.731 59.143 99.5299 59.1792C99.3288 59.2154 99.1297 59.2475 98.9327 59.2757C98.7356 59.3038 98.5647 59.328 98.42 59.3481C98.0942 59.3923 97.8027 59.4647 97.5453 59.5652C97.2879 59.6658 97.0848 59.8065 96.936 59.9875C96.7872 60.1644 96.7128 60.3937 96.7128 60.6752C96.7128 61.0773 96.8596 61.3809 97.1532 61.586C97.4468 61.7911 97.8208 61.8937 98.2752 61.8937ZM108.826 66.9789C108.041 66.9789 107.368 66.8723 106.805 66.6591C106.242 66.45 105.789 66.1685 105.447 65.8146C105.106 65.4607 104.868 65.0686 104.736 64.6383L106.702 64.1618C106.791 64.3428 106.919 64.5217 107.088 64.6987C107.257 64.8796 107.484 65.0284 107.77 65.1451C108.059 65.2657 108.423 65.326 108.862 65.326C109.481 65.326 109.994 65.1752 110.4 64.8736C110.806 64.576 111.009 64.0854 111.009 63.4017V61.6464H110.901C110.788 61.8716 110.623 62.1028 110.406 62.3401C110.193 62.5773 109.909 62.7764 109.555 62.9373C109.206 63.0981 108.765 63.1785 108.234 63.1785C107.523 63.1785 106.877 63.0117 106.298 62.6779C105.723 62.3401 105.265 61.8374 104.923 61.1698C104.585 60.4982 104.416 59.6577 104.416 58.6483C104.416 57.6309 104.585 56.7723 104.923 56.0726C105.265 55.3688 105.725 54.836 106.304 54.474C106.883 54.1081 107.529 53.9251 108.24 53.9251C108.783 53.9251 109.23 54.0176 109.58 54.2026C109.933 54.3836 110.215 54.6027 110.424 54.8601C110.633 55.1135 110.792 55.3527 110.901 55.5779H111.021V54.0458H113.175V63.4621C113.175 64.2543 112.986 64.9098 112.608 65.4286C112.23 65.9473 111.713 66.3354 111.057 66.5928C110.402 66.8502 109.658 66.9789 108.826 66.9789ZM108.844 61.4654C109.306 61.4654 109.7 61.3528 110.026 61.1276C110.352 60.9024 110.599 60.5787 110.768 60.1564C110.937 59.7341 111.021 59.2274 111.021 58.6363C111.021 58.0532 110.937 57.5424 110.768 57.1041C110.603 56.6658 110.358 56.3259 110.032 56.0846C109.71 55.8393 109.314 55.7167 108.844 55.7167C108.357 55.7167 107.951 55.8434 107.625 56.0967C107.299 56.3501 107.054 56.6979 106.889 57.1403C106.724 57.5786 106.642 58.0773 106.642 58.6363C106.642 59.2033 106.724 59.7 106.889 60.1262C107.058 60.5485 107.305 60.8783 107.631 61.1155C107.961 61.3488 108.365 61.4654 108.844 61.4654Z" fill="#B3B3B3"/>
<path d="M327.444 55.1255H325.188C325.124 54.7555 325.005 54.4278 324.832 54.1423C324.659 53.8527 324.444 53.6074 324.187 53.4063C323.93 53.2053 323.636 53.0545 323.306 52.9539C322.98 52.8494 322.629 52.7971 322.251 52.7971C321.579 52.7971 320.984 52.966 320.465 53.3038C319.946 53.6376 319.54 54.1282 319.247 54.7757C318.953 55.4191 318.806 56.2053 318.806 57.1343C318.806 58.0793 318.953 58.8756 319.247 59.523C319.544 60.1665 319.95 60.6531 320.465 60.9828C320.984 61.3086 321.577 61.4714 322.245 61.4714C322.615 61.4714 322.96 61.4232 323.282 61.3267C323.608 61.2261 323.899 61.0793 324.157 60.8863C324.418 60.6933 324.637 60.456 324.814 60.1745C324.995 59.893 325.12 59.5713 325.188 59.2093L327.444 59.2214C327.36 59.8085 327.177 60.3595 326.895 60.8742C326.618 61.389 326.254 61.8434 325.804 62.2375C325.353 62.6276 324.826 62.9332 324.223 63.1544C323.62 63.3716 322.95 63.4802 322.214 63.4802C321.129 63.4802 320.159 63.2288 319.307 62.7261C318.454 62.2234 317.783 61.4976 317.292 60.5485C316.801 59.5994 316.556 58.4613 316.556 57.1343C316.556 55.8031 316.803 54.6651 317.298 53.72C317.793 52.7709 318.466 52.0451 319.319 51.5424C320.171 51.0397 321.137 50.7883 322.214 50.7883C322.902 50.7883 323.541 50.8849 324.133 51.0779C324.724 51.2709 325.251 51.5544 325.713 51.9284C326.176 52.2984 326.556 52.7528 326.853 53.2917C327.155 53.8266 327.352 54.4378 327.444 55.1255ZM333.439 63.4922C332.534 63.4922 331.75 63.2932 331.086 62.895C330.423 62.4969 329.908 61.9399 329.542 61.2241C329.18 60.5083 328.999 59.6718 328.999 58.7147C328.999 57.7576 329.18 56.9191 329.542 56.1993C329.908 55.4794 330.423 54.9204 331.086 54.5223C331.75 54.1242 332.534 53.9251 333.439 53.9251C334.344 53.9251 335.128 54.1242 335.791 54.5223C336.455 54.9204 336.968 55.4794 337.33 56.1993C337.696 56.9191 337.879 57.7576 337.879 58.7147C337.879 59.6718 337.696 60.5083 337.33 61.2241C336.968 61.9399 336.455 62.4969 335.791 62.895C335.128 63.2932 334.344 63.4922 333.439 63.4922ZM333.451 61.7429C333.942 61.7429 334.352 61.6082 334.681 61.3387C335.011 61.0653 335.257 60.6993 335.417 60.2409C335.582 59.7824 335.665 59.2717 335.665 58.7087C335.665 58.1416 335.582 57.6289 335.417 57.1704C335.257 56.708 335.011 56.34 334.681 56.0665C334.352 55.7931 333.942 55.6564 333.451 55.6564C332.948 55.6564 332.53 55.7931 332.196 56.0665C331.866 56.34 331.619 56.708 331.454 57.1704C331.293 57.6289 331.213 58.1416 331.213 58.7087C331.213 59.2717 331.293 59.7824 331.454 60.2409C331.619 60.6993 331.866 61.0653 332.196 61.3387C332.53 61.6082 332.948 61.7429 333.451 61.7429ZM339.732 63.3113V54.0458H341.819V55.6202H341.928C342.121 55.0893 342.44 54.6751 342.887 54.3775C343.333 54.0759 343.866 53.9251 344.485 53.9251C345.113 53.9251 345.642 54.0779 346.072 54.3836C346.506 54.6852 346.812 55.0974 346.989 55.6202H347.085C347.29 55.1054 347.636 54.6952 348.123 54.3896C348.613 54.0799 349.195 53.9251 349.866 53.9251C350.719 53.9251 351.414 54.1945 351.953 54.7334C352.492 55.2723 352.762 56.0585 352.762 57.092V63.3113H350.572V57.4298C350.572 56.8548 350.419 56.4345 350.113 56.1691C349.808 55.8997 349.434 55.7649 348.991 55.7649C348.465 55.7649 348.052 55.9298 347.755 56.2596C347.461 56.5853 347.314 57.0096 347.314 57.5324V63.3113H345.173V57.3394C345.173 56.8608 345.028 56.4788 344.739 56.1932C344.453 55.9077 344.079 55.7649 343.617 55.7649C343.303 55.7649 343.018 55.8454 342.76 56.0062C342.503 56.1631 342.298 56.3863 342.145 56.6758C341.992 56.9613 341.916 57.2951 341.916 57.6772V63.3113H339.732ZM354.977 66.7858V54.0458H357.124V55.5779H357.251C357.364 55.3527 357.523 55.1135 357.728 54.8601C357.933 54.6027 358.21 54.3836 358.56 54.2026C358.91 54.0176 359.356 53.9251 359.899 53.9251C360.615 53.9251 361.261 54.1081 361.836 54.474C362.415 54.836 362.873 55.3728 363.211 56.0846C363.553 56.7924 363.724 57.6611 363.724 58.6906C363.724 59.708 363.557 60.5726 363.223 61.2844C362.889 61.9962 362.435 62.5391 361.86 62.9131C361.285 63.2871 360.633 63.4741 359.905 63.4741C359.374 63.4741 358.934 63.3857 358.584 63.2087C358.234 63.0318 357.953 62.8186 357.74 62.5693C357.531 62.3159 357.368 62.0767 357.251 61.8515H357.161V66.7858H354.977ZM357.118 58.6785C357.118 59.2777 357.203 59.8025 357.372 60.2529C357.545 60.7033 357.792 61.0552 358.114 61.3086C358.439 61.5579 358.834 61.6826 359.296 61.6826C359.779 61.6826 360.183 61.5539 360.508 61.2965C360.834 61.0351 361.08 60.6792 361.244 60.2288C361.413 59.7744 361.498 59.2576 361.498 58.6785C361.498 58.1034 361.415 57.5927 361.25 57.1463C361.086 56.6999 360.84 56.3501 360.515 56.0967C360.189 55.8434 359.783 55.7167 359.296 55.7167C358.83 55.7167 358.433 55.8393 358.108 56.0846C357.782 56.33 357.535 56.6738 357.366 57.1162C357.201 57.5585 357.118 58.0793 357.118 58.6785ZM369.696 63.4922C368.767 63.4922 367.964 63.2992 367.289 62.9131C366.617 62.523 366.1 61.9721 365.738 61.2603C365.376 60.5445 365.196 59.702 365.196 58.7328C365.196 57.7797 365.376 56.9432 365.738 56.2234C366.104 55.4995 366.615 54.9365 367.271 54.5344C367.926 54.1282 368.696 53.9251 369.581 53.9251C370.152 53.9251 370.691 54.0176 371.198 54.2026C371.708 54.3836 372.159 54.6651 372.549 55.0471C372.943 55.4291 373.253 55.9157 373.478 56.5069C373.703 57.094 373.816 57.7938 373.816 58.6061V59.2757H366.221V57.8038H371.722C371.718 57.3856 371.628 57.0136 371.451 56.6879C371.274 56.3581 371.027 56.0987 370.709 55.9097C370.395 55.7207 370.029 55.6262 369.611 55.6262C369.165 55.6262 368.773 55.7348 368.435 55.9519C368.097 56.1651 367.834 56.4466 367.645 56.7964C367.46 57.1423 367.365 57.5223 367.361 57.9365V59.2214C367.361 59.7603 367.46 60.2228 367.657 60.6088C367.854 60.9909 368.129 61.2844 368.483 61.4895C368.837 61.6906 369.251 61.7911 369.726 61.7911C370.043 61.7911 370.331 61.7469 370.588 61.6584C370.846 61.5659 371.069 61.4312 371.258 61.2543C371.447 61.0773 371.59 60.8582 371.686 60.5968L373.725 60.826C373.596 61.3649 373.351 61.8354 372.989 62.2375C372.631 62.6356 372.173 62.9453 371.614 63.1665C371.055 63.3836 370.415 63.4922 369.696 63.4922ZM380.29 54.0458V55.7348H374.963V54.0458H380.29ZM376.278 51.8259H378.462V60.5244C378.462 60.8179 378.506 61.0431 378.595 61.2C378.687 61.3528 378.808 61.4574 378.957 61.5137C379.105 61.57 379.27 61.5981 379.451 61.5981C379.588 61.5981 379.713 61.588 379.825 61.5679C379.942 61.5478 380.03 61.5297 380.091 61.5137L380.459 63.2208C380.342 63.261 380.175 63.3052 379.958 63.3535C379.745 63.4017 379.483 63.4299 379.174 63.4379C378.627 63.454 378.134 63.3716 377.696 63.1906C377.257 63.0056 376.91 62.7201 376.652 62.334C376.399 61.948 376.274 61.4654 376.278 60.8863V51.8259ZM382.116 63.3113V54.0458H384.3V63.3113H382.116ZM383.214 52.7307C382.868 52.7307 382.57 52.6161 382.321 52.3869C382.072 52.1536 381.947 51.8742 381.947 51.5484C381.947 51.2186 382.072 50.9392 382.321 50.7099C382.57 50.4767 382.868 50.3601 383.214 50.3601C383.564 50.3601 383.861 50.4767 384.107 50.7099C384.356 50.9392 384.481 51.2186 384.481 51.5484C384.481 51.8742 384.356 52.1536 384.107 52.3869C383.861 52.6161 383.564 52.7307 383.214 52.7307ZM391.172 54.0458V55.7348H385.845V54.0458H391.172ZM387.16 51.8259H389.344V60.5244C389.344 60.8179 389.388 61.0431 389.477 61.2C389.569 61.3528 389.69 61.4574 389.839 61.5137C389.987 61.57 390.152 61.5981 390.333 61.5981C390.47 61.5981 390.595 61.588 390.707 61.5679C390.824 61.5478 390.912 61.5297 390.973 61.5137L391.341 63.2208C391.224 63.261 391.057 63.3052 390.84 63.3535C390.627 63.4017 390.366 63.4299 390.056 63.4379C389.509 63.454 389.016 63.3716 388.578 63.1906C388.14 63.0056 387.792 62.7201 387.534 62.334C387.281 61.948 387.156 61.4654 387.16 60.8863V51.8259ZM392.998 63.3113V54.0458H395.182V63.3113H392.998ZM394.096 52.7307C393.75 52.7307 393.452 52.6161 393.203 52.3869C392.954 52.1536 392.829 51.8742 392.829 51.5484C392.829 51.2186 392.954 50.9392 393.203 50.7099C393.452 50.4767 393.75 50.3601 394.096 50.3601C394.446 50.3601 394.743 50.4767 394.989 50.7099C395.238 50.9392 395.363 51.2186 395.363 51.5484C395.363 51.8742 395.238 52.1536 394.989 52.3869C394.743 52.6161 394.446 52.7307 394.096 52.7307ZM401.469 63.4922C400.564 63.4922 399.78 63.2932 399.116 62.895C398.453 62.4969 397.938 61.9399 397.572 61.2241C397.21 60.5083 397.029 59.6718 397.029 58.7147C397.029 57.7576 397.21 56.9191 397.572 56.1993C397.938 55.4794 398.453 54.9204 399.116 54.5223C399.78 54.1242 400.564 53.9251 401.469 53.9251C402.374 53.9251 403.158 54.1242 403.821 54.5223C404.485 54.9204 404.998 55.4794 405.36 56.1993C405.726 56.9191 405.909 57.7576 405.909 58.7147C405.909 59.6718 405.726 60.5083 405.36 61.2241C404.998 61.9399 404.485 62.4969 403.821 62.895C403.158 63.2932 402.374 63.4922 401.469 63.4922ZM401.481 61.7429C401.972 61.7429 402.382 61.6082 402.711 61.3387C403.041 61.0653 403.287 60.6993 403.447 60.2409C403.612 59.7824 403.695 59.2717 403.695 58.7087C403.695 58.1416 403.612 57.6289 403.447 57.1704C403.287 56.708 403.041 56.34 402.711 56.0665C402.382 55.7931 401.972 55.6564 401.481 55.6564C400.978 55.6564 400.56 55.7931 400.226 56.0665C399.896 56.34 399.649 56.708 399.484 57.1704C399.323 57.6289 399.243 58.1416 399.243 58.7087C399.243 59.2717 399.323 59.7824 399.484 60.2409C399.649 60.6993 399.896 61.0653 400.226 61.3387C400.56 61.6082 400.978 61.7429 401.481 61.7429ZM409.946 57.8823V63.3113H407.762V54.0458H409.849V55.6202H409.958C410.171 55.1014 410.511 54.6892 410.977 54.3836C411.448 54.0779 412.029 53.9251 412.72 53.9251C413.36 53.9251 413.917 54.0618 414.391 54.3353C414.87 54.6088 415.24 55.0049 415.501 55.5236C415.767 56.0424 415.897 56.6718 415.893 57.4117V63.3113H413.71V57.7495C413.71 57.1302 413.549 56.6456 413.227 56.2958C412.909 55.9459 412.469 55.771 411.906 55.771C411.524 55.771 411.184 55.8554 410.887 56.0243C410.593 56.1892 410.362 56.4285 410.193 56.7422C410.028 57.0558 409.946 57.4359 409.946 57.8823Z" fill="#B3B3B3"/>
<path d="M35.8741 86.1854H552.126" stroke="#EBEBEB" stroke-width="1.88742"/>
<rect x="36.8179" y="96.5662" width="20.7616" height="20.7616" stroke="#B3B3B3" stroke-width="1.88742"/>
<path d="M74.0811 107.946V113.447H72.2775V101.093H74.057V105.69H74.1716C74.3888 105.191 74.7206 104.795 75.1669 104.501C75.6133 104.208 76.1964 104.061 76.9163 104.061C77.5517 104.061 78.1067 104.192 78.5812 104.453C79.0597 104.714 79.4297 105.104 79.6911 105.623C79.9565 106.138 80.0892 106.781 80.0892 107.554V113.447H78.2856V107.771C78.2856 107.091 78.1107 106.564 77.7608 106.19C77.4109 105.812 76.9243 105.623 76.301 105.623C75.8747 105.623 75.4927 105.714 75.1549 105.895C74.8211 106.076 74.5577 106.341 74.3647 106.691C74.1756 107.037 74.0811 107.455 74.0811 107.946ZM86.4894 113.634C85.5766 113.634 84.7904 113.439 84.1308 113.049C83.4753 112.655 82.9686 112.102 82.6107 111.39C82.2568 110.674 82.0799 109.836 82.0799 108.875C82.0799 107.926 82.2568 107.089 82.6107 106.365C82.9686 105.641 83.4673 105.076 84.1067 104.67C84.7501 104.264 85.5022 104.061 86.3628 104.061C86.8856 104.061 87.3923 104.147 87.8829 104.32C88.3735 104.493 88.8139 104.765 89.2039 105.135C89.594 105.505 89.9017 105.985 90.1269 106.576C90.3521 107.163 90.4647 107.877 90.4647 108.718V109.357H83.0993V108.006H88.6972C88.6972 107.531 88.6007 107.111 88.4077 106.745C88.2147 106.375 87.9432 106.084 87.5933 105.871C87.2475 105.657 86.8413 105.551 86.3748 105.551C85.8681 105.551 85.4258 105.676 85.0477 105.925C84.6737 106.17 84.3842 106.492 84.1791 106.89C83.978 107.284 83.8775 107.712 83.8775 108.175V109.23C83.8775 109.85 83.9861 110.377 84.2032 110.811C84.4244 111.245 84.732 111.577 85.1262 111.806C85.5203 112.031 85.9807 112.144 86.5075 112.144C86.8494 112.144 87.161 112.096 87.4425 111.999C87.724 111.899 87.9673 111.75 88.1724 111.553C88.3775 111.356 88.5344 111.113 88.6429 110.823L90.3501 111.131C90.2133 111.633 89.968 112.074 89.6141 112.452C89.2643 112.826 88.8239 113.117 88.2931 113.326C87.7663 113.531 87.165 113.634 86.4894 113.634ZM95.1623 113.652C94.5751 113.652 94.0443 113.544 93.5698 113.326C93.0952 113.105 92.7192 112.785 92.4417 112.367C92.1683 111.949 92.0315 111.436 92.0315 110.829C92.0315 110.306 92.1321 109.876 92.3332 109.538C92.5342 109.2 92.8057 108.933 93.1475 108.736C93.4893 108.539 93.8714 108.39 94.2936 108.289C94.7159 108.189 95.1462 108.113 95.5845 108.06C96.1395 107.996 96.5899 107.944 96.9358 107.903C97.2816 107.859 97.5329 107.789 97.6898 107.692C97.8466 107.596 97.925 107.439 97.925 107.222V107.18C97.925 106.653 97.7762 106.245 97.4787 105.955C97.1851 105.665 96.7467 105.521 96.1636 105.521C95.5564 105.521 95.0778 105.655 94.728 105.925C94.3821 106.19 94.1428 106.486 94.0101 106.812L92.3151 106.426C92.5161 105.862 92.8097 105.408 93.1958 105.062C93.5859 104.712 94.0342 104.459 94.541 104.302C95.0477 104.141 95.5805 104.061 96.1395 104.061C96.5095 104.061 96.9016 104.105 97.3158 104.194C97.734 104.278 98.1241 104.435 98.486 104.664C98.852 104.893 99.1516 105.221 99.3848 105.647C99.6181 106.07 99.7347 106.619 99.7347 107.294V113.447H97.9733V112.18H97.9009C97.7843 112.413 97.6093 112.643 97.3761 112.868C97.1429 113.093 96.8433 113.28 96.4773 113.429C96.1113 113.578 95.673 113.652 95.1623 113.652ZM95.5544 112.204C96.053 112.204 96.4793 112.106 96.8332 111.909C97.1911 111.712 97.4626 111.454 97.6476 111.137C97.8366 110.815 97.9311 110.471 97.9311 110.105V108.911C97.8667 108.975 97.7421 109.035 97.5571 109.092C97.3761 109.144 97.169 109.19 96.9358 109.23C96.7025 109.267 96.4753 109.301 96.2541 109.333C96.0329 109.361 95.8479 109.385 95.6991 109.405C95.3493 109.45 95.0296 109.524 94.74 109.629C94.4545 109.733 94.2253 109.884 94.0523 110.081C93.8834 110.274 93.799 110.531 93.799 110.853C93.799 111.3 93.9639 111.637 94.2936 111.867C94.6234 112.092 95.0436 112.204 95.5544 112.204ZM103.941 101.093V113.447H102.137V101.093H103.941ZM110.692 104.182V105.629H105.631V104.182H110.692ZM106.988 101.962H108.792V110.726C108.792 111.076 108.844 111.34 108.949 111.517C109.053 111.69 109.188 111.808 109.353 111.873C109.522 111.933 109.705 111.963 109.902 111.963C110.047 111.963 110.173 111.953 110.282 111.933C110.391 111.913 110.475 111.897 110.535 111.885L110.861 113.375C110.757 113.415 110.608 113.455 110.415 113.495C110.222 113.54 109.98 113.564 109.691 113.568C109.216 113.576 108.774 113.491 108.364 113.314C107.954 113.137 107.622 112.864 107.368 112.494C107.115 112.124 106.988 111.659 106.988 111.1V101.962ZM114.69 107.946V113.447H112.886V101.093H114.666V105.69H114.781C114.998 105.191 115.33 104.795 115.776 104.501C116.222 104.208 116.805 104.061 117.525 104.061C118.161 104.061 118.716 104.192 119.19 104.453C119.669 104.714 120.039 105.104 120.3 105.623C120.565 106.138 120.698 106.781 120.698 107.554V113.447H118.895V107.771C118.895 107.091 118.72 106.564 118.37 106.19C118.02 105.812 117.533 105.623 116.91 105.623C116.484 105.623 116.102 105.714 115.764 105.895C115.43 106.076 115.167 106.341 114.974 106.691C114.785 107.037 114.69 107.455 114.69 107.946ZM123.913 116.922C123.644 116.922 123.399 116.899 123.177 116.855C122.956 116.815 122.791 116.771 122.683 116.723L123.117 115.245C123.447 115.333 123.74 115.371 123.998 115.359C124.255 115.347 124.482 115.251 124.679 115.07C124.881 114.889 125.057 114.593 125.21 114.183L125.434 113.568L122.043 104.182H123.974L126.32 111.372H126.417L128.763 104.182H130.7L126.881 114.684C126.704 115.166 126.479 115.574 126.206 115.908C125.932 116.246 125.606 116.499 125.228 116.668C124.85 116.837 124.412 116.922 123.913 116.922ZM134.198 101.093V113.447H132.395V101.093H134.198ZM136.625 113.447V104.182H138.428V113.447H136.625ZM137.536 102.752C137.222 102.752 136.953 102.647 136.727 102.438C136.506 102.225 136.396 101.972 136.396 101.678C136.396 101.381 136.506 101.127 136.727 100.918C136.953 100.705 137.222 100.598 137.536 100.598C137.849 100.598 138.117 100.705 138.338 100.918C138.563 101.127 138.676 101.381 138.676 101.678C138.676 101.972 138.563 102.225 138.338 102.438C138.117 102.647 137.849 102.752 137.536 102.752ZM145.264 104.182V105.629H140.028V104.182H145.264ZM141.464 113.447V103.108C141.464 102.529 141.591 102.048 141.844 101.666C142.098 101.28 142.433 100.992 142.852 100.803C143.27 100.61 143.724 100.514 144.215 100.514C144.577 100.514 144.886 100.544 145.144 100.604C145.401 100.661 145.592 100.713 145.717 100.761L145.295 102.221C145.21 102.197 145.102 102.169 144.969 102.137C144.836 102.1 144.675 102.082 144.486 102.082C144.048 102.082 143.734 102.191 143.545 102.408C143.36 102.625 143.268 102.939 143.268 103.349V113.447H141.464ZM150.754 113.634C149.841 113.634 149.055 113.439 148.395 113.049C147.74 112.655 147.233 112.102 146.875 111.39C146.521 110.674 146.344 109.836 146.344 108.875C146.344 107.926 146.521 107.089 146.875 106.365C147.233 105.641 147.732 105.076 148.371 104.67C149.014 104.264 149.767 104.061 150.627 104.061C151.15 104.061 151.657 104.147 152.147 104.32C152.638 104.493 153.078 104.765 153.468 105.135C153.858 105.505 154.166 105.985 154.391 106.576C154.616 107.163 154.729 107.877 154.729 108.718V109.357H147.364V108.006H152.962C152.962 107.531 152.865 107.111 152.672 106.745C152.479 106.375 152.208 106.084 151.858 105.871C151.512 105.657 151.106 105.551 150.639 105.551C150.132 105.551 149.69 105.676 149.312 105.925C148.938 106.17 148.649 106.492 148.443 106.89C148.242 107.284 148.142 107.712 148.142 108.175V109.23C148.142 109.85 148.25 110.377 148.468 110.811C148.689 111.245 148.996 111.577 149.391 111.806C149.785 112.031 150.245 112.144 150.772 112.144C151.114 112.144 151.425 112.096 151.707 111.999C151.988 111.899 152.232 111.75 152.437 111.553C152.642 111.356 152.799 111.113 152.907 110.823L154.614 111.131C154.478 111.633 154.232 112.074 153.878 112.452C153.529 112.826 153.088 113.117 152.557 113.326C152.031 113.531 151.429 113.634 150.754 113.634Z" fill="#B3B3B3"/>
<g opacity="0.4">
<rect x="232.209" y="98.9255" width="149.106" height="16.043" rx="8.02152" fill="#CCCCCC"/>
<rect x="232.209" y="98.9255" width="90.596" height="16.043" rx="8.02152" fill="#009966"/>
<rect x="438.881" y="98.9255" width="113.245" height="16.043" rx="8.02152" fill="#CCCCCC"/>
<rect x="438.881" y="98.9255" width="57.8273" height="16.043" rx="8.02152" fill="#009966"/>
</g>
<path d="M35.8741 130.832H552.126" stroke="#EBEBEB" stroke-width="1.88742"/>
<rect x="36.8179" y="144.337" width="20.7616" height="20.7616" stroke="#B3B3B3" stroke-width="1.88742"/>
<path d="M76.1904 164.885C75.4544 164.885 74.821 164.789 74.2902 164.596C73.7634 164.403 73.3331 164.148 72.9993 163.83C72.6655 163.512 72.4162 163.164 72.2513 162.786L73.8016 162.147C73.9102 162.324 74.0549 162.511 74.2359 162.708C74.4209 162.909 74.6702 163.08 74.9839 163.221C75.3016 163.361 75.7098 163.432 76.2085 163.432C76.8921 163.432 77.4571 163.265 77.9035 162.931C78.3499 162.601 78.5731 162.074 78.5731 161.351V159.529H78.4585C78.3499 159.726 78.1931 159.945 77.988 160.186C77.7869 160.428 77.5094 160.637 77.1555 160.814C76.8016 160.991 76.3412 161.079 75.7741 161.079C75.0422 161.079 74.3827 160.908 73.7956 160.566C73.2124 160.221 72.75 159.712 72.4082 159.04C72.0703 158.365 71.9014 157.534 71.9014 156.549C71.9014 155.564 72.0683 154.719 72.4021 154.015C72.7399 153.312 73.2024 152.773 73.7895 152.399C74.3767 152.021 75.0422 151.832 75.7862 151.832C76.3613 151.832 76.8258 151.928 77.1796 152.121C77.5335 152.31 77.809 152.531 78.0061 152.785C78.2071 153.038 78.362 153.261 78.4705 153.454H78.6032V151.952H80.3707V161.423C80.3707 162.219 80.1857 162.873 79.8157 163.383C79.4458 163.894 78.9451 164.272 78.3137 164.518C77.6864 164.763 76.9786 164.885 76.1904 164.885ZM76.1723 159.583C76.691 159.583 77.1294 159.463 77.4873 159.221C77.8492 158.976 78.1227 158.626 78.3077 158.172C78.4967 157.713 78.5912 157.164 78.5912 156.525C78.5912 155.901 78.4987 155.353 78.3137 154.878C78.1287 154.403 77.8573 154.034 77.4994 153.768C77.1414 153.499 76.6991 153.364 76.1723 153.364C75.6294 153.364 75.1769 153.505 74.815 153.786C74.4531 154.064 74.1796 154.442 73.9946 154.92C73.8137 155.399 73.7232 155.934 73.7232 156.525C73.7232 157.132 73.8157 157.665 74.0007 158.123C74.1856 158.582 74.4591 158.94 74.821 159.197C75.187 159.454 75.6374 159.583 76.1723 159.583ZM82.7896 161.218V151.952H84.5329V153.424H84.6294C84.7983 152.926 85.0959 152.533 85.5222 152.248C85.9525 151.958 86.4391 151.814 86.982 151.814C87.0946 151.814 87.2273 151.818 87.3801 151.826C87.537 151.834 87.6596 151.844 87.7481 151.856V153.581C87.6757 153.561 87.547 153.539 87.362 153.515C87.1771 153.487 86.9921 153.473 86.8071 153.473C86.3808 153.473 86.0008 153.563 85.667 153.744C85.3372 153.921 85.0758 154.168 84.8828 154.486C84.6898 154.8 84.5933 155.158 84.5933 155.56V161.218H82.7896ZM92.9705 161.405C92.0576 161.405 91.2714 161.21 90.6119 160.82C89.9564 160.426 89.4497 159.873 89.0918 159.161C88.7379 158.445 88.5609 157.607 88.5609 156.645C88.5609 155.696 88.7379 154.86 89.0918 154.136C89.4497 153.412 89.9484 152.847 90.5878 152.441C91.2312 152.035 91.9832 151.832 92.8438 151.832C93.3666 151.832 93.8733 151.918 94.364 152.091C94.8546 152.264 95.2949 152.536 95.685 152.905C96.0751 153.275 96.3827 153.756 96.6079 154.347C96.8331 154.934 96.9457 155.648 96.9457 156.489V157.128H89.5804V155.777H95.1783C95.1783 155.302 95.0818 154.882 94.8888 154.516C94.6957 154.146 94.4243 153.855 94.0744 153.641C93.7286 153.428 93.3224 153.322 92.8559 153.322C92.3492 153.322 91.9068 153.446 91.5288 153.696C91.1548 153.941 90.8653 154.263 90.6602 154.661C90.4591 155.055 90.3586 155.483 90.3586 155.946V157.001C90.3586 157.621 90.4671 158.147 90.6843 158.582C90.9055 159.016 91.2131 159.348 91.6072 159.577C92.0013 159.802 92.4618 159.915 92.9886 159.915C93.3304 159.915 93.6421 159.867 93.9236 159.77C94.2051 159.67 94.4484 159.521 94.6535 159.324C94.8586 159.127 95.0154 158.883 95.124 158.594L96.8311 158.902C96.6944 159.404 96.4491 159.845 96.0952 160.223C95.7453 160.597 95.305 160.888 94.7741 161.097C94.2473 161.302 93.6461 161.405 92.9705 161.405ZM102.94 161.405C102.027 161.405 101.241 161.21 100.582 160.82C99.9262 160.426 99.4195 159.873 99.0616 159.161C98.7077 158.445 98.5307 157.607 98.5307 156.645C98.5307 155.696 98.7077 154.86 99.0616 154.136C99.4195 153.412 99.9181 152.847 100.558 152.441C101.201 152.035 101.953 151.832 102.814 151.832C103.336 151.832 103.843 151.918 104.334 152.091C104.824 152.264 105.265 152.536 105.655 152.905C106.045 153.275 106.353 153.756 106.578 154.347C106.803 154.934 106.916 155.648 106.916 156.489V157.128H99.5502V155.777H105.148C105.148 155.302 105.052 154.882 104.859 154.516C104.665 154.146 104.394 153.855 104.044 153.641C103.698 153.428 103.292 153.322 102.826 153.322C102.319 153.322 101.877 153.446 101.499 153.696C101.125 153.941 100.835 154.263 100.63 154.661C100.429 155.055 100.328 155.483 100.328 155.946V157.001C100.328 157.621 100.437 158.147 100.654 158.582C100.875 159.016 101.183 159.348 101.577 159.577C101.971 159.802 102.432 159.915 102.958 159.915C103.3 159.915 103.612 159.867 103.893 159.77C104.175 159.67 104.418 159.521 104.623 159.324C104.828 159.127 104.985 158.883 105.094 158.594L106.801 158.902C106.664 159.404 106.419 159.845 106.065 160.223C105.715 160.597 105.275 160.888 104.744 161.097C104.217 161.302 103.616 161.405 102.94 161.405ZM110.72 155.717V161.218H108.917V151.952H110.648V153.46H110.763C110.976 152.97 111.309 152.576 111.764 152.278C112.222 151.981 112.799 151.832 113.495 151.832C114.127 151.832 114.679 151.964 115.154 152.23C115.629 152.491 115.997 152.881 116.258 153.4C116.519 153.919 116.65 154.56 116.65 155.324V161.218H114.846V155.542C114.846 154.87 114.671 154.345 114.322 153.967C113.972 153.585 113.491 153.394 112.88 153.394C112.462 153.394 112.09 153.485 111.764 153.666C111.442 153.847 111.187 154.112 110.998 154.462C110.813 154.808 110.72 155.226 110.72 155.717ZM120.873 155.717V161.218H119.069V148.864H120.848V153.46H120.963C121.18 152.962 121.512 152.566 121.958 152.272C122.405 151.979 122.988 151.832 123.708 151.832C124.343 151.832 124.898 151.962 125.373 152.224C125.851 152.485 126.221 152.875 126.483 153.394C126.748 153.909 126.881 154.552 126.881 155.324V161.218H125.077V155.542C125.077 154.862 124.902 154.335 124.552 153.961C124.202 153.583 123.716 153.394 123.092 153.394C122.666 153.394 122.284 153.485 121.946 153.666C121.613 153.847 121.349 154.112 121.156 154.462C120.967 154.808 120.873 155.226 120.873 155.717ZM133.19 161.405C132.322 161.405 131.564 161.206 130.916 160.808C130.269 160.41 129.766 159.853 129.408 159.137C129.05 158.421 128.871 157.584 128.871 156.627C128.871 155.666 129.05 154.826 129.408 154.106C129.766 153.386 130.269 152.827 130.916 152.429C131.564 152.031 132.322 151.832 133.19 151.832C134.059 151.832 134.817 152.031 135.465 152.429C136.112 152.827 136.615 153.386 136.973 154.106C137.331 154.826 137.509 155.666 137.509 156.627C137.509 157.584 137.331 158.421 136.973 159.137C136.615 159.853 136.112 160.41 135.465 160.808C134.817 161.206 134.059 161.405 133.19 161.405ZM133.196 159.891C133.759 159.891 134.226 159.742 134.596 159.444C134.966 159.147 135.239 158.751 135.416 158.256C135.597 157.761 135.688 157.217 135.688 156.621C135.688 156.03 135.597 155.487 135.416 154.993C135.239 154.494 134.966 154.094 134.596 153.792C134.226 153.491 133.759 153.34 133.196 153.34C132.629 153.34 132.159 153.491 131.785 153.792C131.415 154.094 131.139 154.494 130.958 154.993C130.782 155.487 130.693 156.03 130.693 156.621C130.693 157.217 130.782 157.761 130.958 158.256C131.139 158.751 131.415 159.147 131.785 159.444C132.159 159.742 132.629 159.891 133.196 159.891ZM145.392 157.375V151.952H147.202V161.218H145.428V159.613H145.332C145.119 160.108 144.777 160.52 144.306 160.85C143.84 161.176 143.259 161.339 142.563 161.339C141.968 161.339 141.441 161.208 140.983 160.946C140.528 160.681 140.17 160.289 139.909 159.77C139.651 159.251 139.523 158.61 139.523 157.846V151.952H141.326V157.629C141.326 158.26 141.501 158.763 141.851 159.137C142.201 159.511 142.655 159.698 143.214 159.698C143.552 159.698 143.888 159.613 144.222 159.444C144.56 159.276 144.839 159.02 145.06 158.678C145.286 158.337 145.396 157.902 145.392 157.375ZM156.568 154.214L154.934 154.504C154.865 154.295 154.757 154.096 154.608 153.907C154.463 153.718 154.266 153.563 154.017 153.442C153.767 153.322 153.456 153.261 153.082 153.261C152.571 153.261 152.145 153.376 151.803 153.605C151.461 153.83 151.29 154.122 151.29 154.48C151.29 154.79 151.405 155.039 151.634 155.228C151.863 155.417 152.233 155.572 152.744 155.692L154.216 156.03C155.068 156.227 155.704 156.531 156.122 156.941C156.54 157.351 156.749 157.884 156.749 158.54C156.749 159.095 156.588 159.589 156.267 160.024C155.949 160.454 155.505 160.792 154.934 161.037C154.367 161.282 153.709 161.405 152.961 161.405C151.923 161.405 151.077 161.184 150.421 160.741C149.766 160.295 149.364 159.662 149.215 158.841L150.958 158.576C151.067 159.03 151.29 159.374 151.628 159.607C151.966 159.837 152.406 159.951 152.949 159.951C153.54 159.951 154.013 159.828 154.367 159.583C154.72 159.334 154.897 159.03 154.897 158.672C154.897 158.383 154.789 158.139 154.572 157.942C154.358 157.745 154.031 157.597 153.588 157.496L152.02 157.152C151.155 156.955 150.516 156.641 150.102 156.211C149.692 155.781 149.486 155.236 149.486 154.576C149.486 154.029 149.639 153.551 149.945 153.141C150.251 152.731 150.673 152.411 151.212 152.182C151.751 151.948 152.368 151.832 153.064 151.832C154.065 151.832 154.853 152.049 155.428 152.483C156.003 152.914 156.383 153.491 156.568 154.214ZM162.726 161.405C161.813 161.405 161.027 161.21 160.367 160.82C159.712 160.426 159.205 159.873 158.847 159.161C158.493 158.445 158.316 157.607 158.316 156.645C158.316 155.696 158.493 154.86 158.847 154.136C159.205 153.412 159.704 152.847 160.343 152.441C160.986 152.035 161.738 151.832 162.599 151.832C163.122 151.832 163.629 151.918 164.119 152.091C164.61 152.264 165.05 152.536 165.44 152.905C165.83 153.275 166.138 153.756 166.363 154.347C166.588 154.934 166.701 155.648 166.701 156.489V157.128H159.336V155.777H164.933C164.933 155.302 164.837 154.882 164.644 154.516C164.451 154.146 164.179 153.855 163.83 153.641C163.484 153.428 163.078 153.322 162.611 153.322C162.104 153.322 161.662 153.446 161.284 153.696C160.91 153.941 160.62 154.263 160.415 154.661C160.214 155.055 160.114 155.483 160.114 155.946V157.001C160.114 157.621 160.222 158.147 160.439 158.582C160.661 159.016 160.968 159.348 161.362 159.577C161.757 159.802 162.217 159.915 162.744 159.915C163.086 159.915 163.397 159.867 163.679 159.77C163.96 159.67 164.204 159.521 164.409 159.324C164.614 159.127 164.771 158.883 164.879 158.594L166.586 158.902C166.45 159.404 166.204 159.845 165.85 160.223C165.501 160.597 165.06 160.888 164.529 161.097C164.003 161.302 163.401 161.405 162.726 161.405Z" fill="#B3B3B3"/>
<g opacity="0.4">
<rect x="232.209" y="146.696" width="149.106" height="16.043" rx="8.02152" fill="#CCCCCC"/>
<rect x="232.209" y="146.696" width="90.596" height="16.043" rx="8.02152" fill="#009966"/>
<rect x="438.881" y="146.696" width="113.245" height="16.043" rx="8.02152" fill="#CCCCCC"/>
<rect x="438.881" y="146.696" width="57.8273" height="16.043" rx="8.02152" fill="#009966"/>
</g>
<path d="M35.8741 178.603H552.126" stroke="#EBEBEB" stroke-width="1.88742"/>
<rect x="36.8179" y="192.108" width="20.7616" height="20.7616" stroke="#B3B3B3" stroke-width="1.88742"/>
<path d="M74.6563 208.989L71.23 196.635H73.1904L75.5973 206.202H75.7119L78.2153 196.635H80.1576L82.661 206.208H82.7756L85.1765 196.635H87.143L83.7106 208.989H81.8346L79.2347 199.735H79.1382L76.5383 208.989H74.6563ZM91.6883 209.176C90.8196 209.176 90.0616 208.977 89.4141 208.579C88.7666 208.18 88.264 207.623 87.906 206.908C87.5481 206.192 87.3692 205.355 87.3692 204.398C87.3692 203.437 87.5481 202.597 87.906 201.877C88.264 201.157 88.7666 200.598 89.4141 200.2C90.0616 199.802 90.8196 199.603 91.6883 199.603C92.5569 199.603 93.3149 199.802 93.9624 200.2C94.6099 200.598 95.1125 201.157 95.4705 201.877C95.8284 202.597 96.0073 203.437 96.0073 204.398C96.0073 205.355 95.8284 206.192 95.4705 206.908C95.1125 207.623 94.6099 208.18 93.9624 208.579C93.3149 208.977 92.5569 209.176 91.6883 209.176ZM91.6943 207.662C92.2573 207.662 92.7238 207.513 93.0938 207.215C93.4637 206.918 93.7372 206.522 93.9141 206.027C94.0951 205.532 94.1856 204.987 94.1856 204.392C94.1856 203.801 94.0951 203.258 93.9141 202.763C93.7372 202.265 93.4637 201.865 93.0938 201.563C92.7238 201.261 92.2573 201.111 91.6943 201.111C91.1273 201.111 90.6567 201.261 90.2827 201.563C89.9128 201.865 89.6373 202.265 89.4563 202.763C89.2794 203.258 89.1909 203.801 89.1909 204.392C89.1909 204.987 89.2794 205.532 89.4563 206.027C89.6373 206.522 89.9128 206.918 90.2827 207.215C90.6567 207.513 91.1273 207.662 91.6943 207.662ZM98.0206 208.989V199.723H99.7518V201.231H99.8664C100.059 200.721 100.375 200.322 100.814 200.037C101.252 199.747 101.777 199.603 102.388 199.603C103.007 199.603 103.526 199.747 103.944 200.037C104.366 200.326 104.678 200.725 104.879 201.231H104.976C105.197 200.737 105.549 200.343 106.031 200.049C106.514 199.751 107.089 199.603 107.757 199.603C108.597 199.603 109.283 199.866 109.814 200.393C110.348 200.92 110.616 201.714 110.616 202.776V208.989H108.812V202.944C108.812 202.317 108.641 201.863 108.3 201.581C107.958 201.3 107.549 201.159 107.075 201.159C106.488 201.159 106.031 201.34 105.706 201.702C105.38 202.06 105.217 202.52 105.217 203.083V208.989H103.419V202.83C103.419 202.327 103.263 201.923 102.949 201.617C102.635 201.312 102.227 201.159 101.724 201.159C101.383 201.159 101.067 201.249 100.777 201.43C100.492 201.607 100.261 201.855 100.084 202.172C99.9107 202.49 99.8242 202.858 99.8242 203.276V208.989H98.0206ZM117.027 209.176C116.114 209.176 115.328 208.981 114.668 208.591C114.013 208.197 113.506 207.644 113.148 206.932C112.794 206.216 112.617 205.377 112.617 204.416C112.617 203.467 112.794 202.631 113.148 201.907C113.506 201.183 114.004 200.618 114.644 200.212C115.287 199.806 116.039 199.603 116.9 199.603C117.423 199.603 117.929 199.689 118.42 199.862C118.911 200.035 119.351 200.306 119.741 200.676C120.131 201.046 120.439 201.527 120.664 202.118C120.889 202.705 121.002 203.419 121.002 204.259V204.899H113.637V203.548H119.234C119.234 203.073 119.138 202.653 118.945 202.287C118.752 201.917 118.48 201.625 118.131 201.412C117.785 201.199 117.379 201.093 116.912 201.093C116.405 201.093 115.963 201.217 115.585 201.467C115.211 201.712 114.921 202.034 114.716 202.432C114.515 202.826 114.415 203.254 114.415 203.717V204.772C114.415 205.392 114.523 205.918 114.74 206.353C114.962 206.787 115.269 207.119 115.663 207.348C116.057 207.573 116.518 207.686 117.045 207.686C117.387 207.686 117.698 207.638 117.98 207.541C118.261 207.44 118.505 207.292 118.71 207.095C118.915 206.898 119.072 206.654 119.18 206.365L120.887 206.672C120.751 207.175 120.505 207.615 120.151 207.993C119.801 208.367 119.361 208.659 118.83 208.868C118.303 209.073 117.702 209.176 117.027 209.176ZM124.807 203.487V208.989H123.003V199.723H124.734V201.231H124.849C125.062 200.741 125.396 200.347 125.85 200.049C126.309 199.751 126.886 199.603 127.582 199.603C128.213 199.603 128.766 199.735 129.24 200.001C129.715 200.262 130.083 200.652 130.344 201.171C130.606 201.69 130.736 202.331 130.736 203.095V208.989H128.933V203.312C128.933 202.641 128.758 202.116 128.408 201.738C128.058 201.356 127.577 201.165 126.966 201.165C126.548 201.165 126.176 201.255 125.85 201.436C125.529 201.617 125.273 201.883 125.084 202.233C124.899 202.579 124.807 202.997 124.807 203.487ZM140.098 201.985L138.464 202.275C138.395 202.066 138.287 201.867 138.138 201.678C137.993 201.489 137.796 201.334 137.547 201.213C137.297 201.093 136.986 201.032 136.612 201.032C136.101 201.032 135.675 201.147 135.333 201.376C134.991 201.601 134.82 201.893 134.82 202.251C134.82 202.56 134.935 202.81 135.164 202.999C135.393 203.188 135.763 203.343 136.274 203.463L137.746 203.801C138.598 203.998 139.234 204.302 139.652 204.712C140.07 205.122 140.279 205.655 140.279 206.31C140.279 206.865 140.119 207.36 139.797 207.794C139.479 208.225 139.035 208.562 138.464 208.808C137.897 209.053 137.239 209.176 136.491 209.176C135.454 209.176 134.607 208.955 133.952 208.512C133.296 208.066 132.894 207.432 132.745 206.612L134.488 206.347C134.597 206.801 134.82 207.145 135.158 207.378C135.496 207.607 135.936 207.722 136.479 207.722C137.07 207.722 137.543 207.599 137.897 207.354C138.251 207.105 138.427 206.801 138.427 206.443C138.427 206.154 138.319 205.91 138.102 205.713C137.889 205.516 137.561 205.367 137.118 205.267L135.55 204.923C134.685 204.726 134.046 204.412 133.632 203.982C133.222 203.552 133.017 203.007 133.017 202.347C133.017 201.8 133.169 201.322 133.475 200.912C133.781 200.501 134.203 200.182 134.742 199.952C135.281 199.719 135.898 199.603 136.594 199.603C137.595 199.603 138.383 199.82 138.958 200.254C139.533 200.684 139.913 201.261 140.098 201.985ZM146.588 199.723V201.171H141.527V199.723H146.588ZM142.884 197.503H144.687V206.268C144.687 206.618 144.74 206.881 144.844 207.058C144.949 207.231 145.084 207.35 145.248 207.414C145.417 207.475 145.6 207.505 145.797 207.505C145.942 207.505 146.069 207.495 146.177 207.475C146.286 207.455 146.37 207.438 146.431 207.426L146.756 208.916C146.652 208.957 146.503 208.997 146.31 209.037C146.117 209.081 145.876 209.105 145.586 209.109C145.112 209.117 144.669 209.033 144.259 208.856C143.849 208.679 143.517 208.406 143.264 208.036C143.01 207.666 142.884 207.201 142.884 206.642V197.503ZM148.583 208.989V199.723H150.326V201.195H150.423C150.591 200.696 150.889 200.304 151.315 200.019C151.746 199.729 152.232 199.585 152.775 199.585C152.888 199.585 153.02 199.589 153.173 199.597C153.33 199.605 153.453 199.615 153.541 199.627V201.352C153.469 201.332 153.34 201.31 153.155 201.286C152.97 201.257 152.785 201.243 152.6 201.243C152.174 201.243 151.794 201.334 151.46 201.515C151.13 201.692 150.869 201.939 150.676 202.257C150.483 202.57 150.386 202.928 150.386 203.331V208.989H148.583ZM158.764 209.176C157.851 209.176 157.065 208.981 156.405 208.591C155.75 208.197 155.243 207.644 154.885 206.932C154.531 206.216 154.354 205.377 154.354 204.416C154.354 203.467 154.531 202.631 154.885 201.907C155.243 201.183 155.741 200.618 156.381 200.212C157.024 199.806 157.776 199.603 158.637 199.603C159.16 199.603 159.666 199.689 160.157 199.862C160.648 200.035 161.088 200.306 161.478 200.676C161.868 201.046 162.176 201.527 162.401 202.118C162.626 202.705 162.739 203.419 162.739 204.259V204.899H155.374V203.548H160.971C160.971 203.073 160.875 202.653 160.682 202.287C160.489 201.917 160.217 201.625 159.868 201.412C159.522 201.199 159.116 201.093 158.649 201.093C158.142 201.093 157.7 201.217 157.322 201.467C156.948 201.712 156.658 202.034 156.453 202.432C156.252 202.826 156.152 203.254 156.152 203.717V204.772C156.152 205.392 156.26 205.918 156.477 206.353C156.699 206.787 157.006 207.119 157.4 207.348C157.794 207.573 158.255 207.686 158.782 207.686C159.124 207.686 159.435 207.638 159.717 207.541C159.998 207.44 160.242 207.292 160.447 207.095C160.652 206.898 160.809 206.654 160.917 206.365L162.624 206.672C162.488 207.175 162.242 207.615 161.888 207.993C161.538 208.367 161.098 208.659 160.567 208.868C160.04 209.073 159.439 209.176 158.764 209.176ZM166.544 203.487V208.989H164.74V199.723H166.471V201.231H166.586C166.799 200.741 167.133 200.347 167.587 200.049C168.046 199.751 168.623 199.603 169.319 199.603C169.95 199.603 170.503 199.735 170.977 200.001C171.452 200.262 171.82 200.652 172.081 201.171C172.343 201.69 172.473 202.331 172.473 203.095V208.989H170.67V203.312C170.67 202.641 170.495 202.116 170.145 201.738C169.795 201.356 169.314 201.165 168.703 201.165C168.285 201.165 167.913 201.255 167.587 201.436C167.266 201.617 167.01 201.883 166.821 202.233C166.636 202.579 166.544 202.997 166.544 203.487ZM178.777 212.656C178.041 212.656 177.408 212.56 176.877 212.367C176.35 212.174 175.92 211.918 175.586 211.601C175.252 211.283 175.003 210.935 174.838 210.557L176.388 209.918C176.497 210.095 176.642 210.282 176.823 210.479C177.008 210.68 177.257 210.851 177.571 210.991C177.888 211.132 178.296 211.203 178.795 211.203C179.479 211.203 180.044 211.036 180.49 210.702C180.937 210.372 181.16 209.845 181.16 209.121V207.3H181.045C180.937 207.497 180.78 207.716 180.575 207.957C180.374 208.199 180.096 208.408 179.742 208.585C179.388 208.762 178.928 208.85 178.361 208.85C177.629 208.85 176.969 208.679 176.382 208.337C175.799 207.991 175.337 207.483 174.995 206.811C174.657 206.136 174.488 205.305 174.488 204.32C174.488 203.335 174.655 202.49 174.989 201.786C175.327 201.083 175.789 200.544 176.376 200.17C176.963 199.792 177.629 199.603 178.373 199.603C178.948 199.603 179.412 199.699 179.766 199.892C180.12 200.081 180.396 200.302 180.593 200.556C180.794 200.809 180.949 201.032 181.057 201.225H181.19V199.723H182.957V209.194C182.957 209.99 182.772 210.644 182.402 211.154C182.032 211.665 181.532 212.043 180.9 212.288C180.273 212.534 179.565 212.656 178.777 212.656ZM178.759 207.354C179.278 207.354 179.716 207.233 180.074 206.992C180.436 206.747 180.709 206.397 180.894 205.942C181.083 205.484 181.178 204.935 181.178 204.296C181.178 203.672 181.085 203.123 180.9 202.649C180.715 202.174 180.444 201.804 180.086 201.539C179.728 201.27 179.286 201.135 178.759 201.135C178.216 201.135 177.764 201.276 177.402 201.557C177.04 201.835 176.766 202.213 176.581 202.691C176.4 203.17 176.31 203.705 176.31 204.296C176.31 204.903 176.402 205.436 176.587 205.894C176.772 206.353 177.046 206.711 177.408 206.968C177.774 207.225 178.224 207.354 178.759 207.354ZM187.18 203.487V208.989H185.376V196.635H187.156V201.231H187.27C187.488 200.733 187.819 200.337 188.266 200.043C188.712 199.749 189.295 199.603 190.015 199.603C190.65 199.603 191.205 199.733 191.68 199.995C192.159 200.256 192.529 200.646 192.79 201.165C193.055 201.68 193.188 202.323 193.188 203.095V208.989H191.384V203.312C191.384 202.633 191.209 202.106 190.86 201.732C190.51 201.354 190.023 201.165 189.4 201.165C188.974 201.165 188.591 201.255 188.254 201.436C187.92 201.617 187.656 201.883 187.463 202.233C187.274 202.579 187.18 202.997 187.18 203.487ZM199.92 199.723V201.171H194.859V199.723H199.92ZM196.216 197.503H198.02V206.268C198.02 206.618 198.072 206.881 198.177 207.058C198.281 207.231 198.416 207.35 198.581 207.414C198.75 207.475 198.933 207.505 199.13 207.505C199.275 207.505 199.401 207.495 199.51 207.475C199.618 207.455 199.703 207.438 199.763 207.426L200.089 208.916C199.984 208.957 199.836 208.997 199.643 209.037C199.449 209.081 199.208 209.105 198.919 209.109C198.444 209.117 198.002 209.033 197.592 208.856C197.181 208.679 196.85 208.406 196.596 208.036C196.343 207.666 196.216 207.201 196.216 206.642V197.503Z" fill="#B3B3B3"/>
<g opacity="0.4">
<rect x="232.209" y="194.467" width="149.106" height="16.043" rx="8.02152" fill="#CCCCCC"/>
<rect x="232.209" y="194.467" width="90.596" height="16.043" rx="8.02152" fill="#009966"/>
<rect x="438.881" y="194.467" width="113.245" height="16.043" rx="8.02152" fill="#CCCCCC"/>
<rect x="438.881" y="194.467" width="57.8273" height="16.043" rx="8.02152" fill="#009966"/>
</g>
<path d="M35.8741 226.374H552.126" stroke="#EBEBEB" stroke-width="1.88742"/>
<rect x="36.8179" y="239.879" width="20.7616" height="20.7616" fill="#009966" stroke="#009966" stroke-width="1.88742"/>
<path d="M42.4801 251.015L45.446 254.034L52.8609 246.485" stroke="white" stroke-width="2.83113" stroke-linecap="round"/>
<path d="M76.3129 260.427C75.577 260.427 74.9436 260.331 74.4127 260.138C73.8859 259.945 73.4556 259.689 73.1218 259.372C72.7881 259.054 72.5387 258.706 72.3739 258.328L73.9241 257.689C74.0327 257.866 74.1775 258.053 74.3585 258.25C74.5434 258.451 74.7928 258.622 75.1065 258.762C75.4241 258.903 75.8323 258.973 76.331 258.973C77.0146 258.973 77.5797 258.807 78.0261 258.473C78.4724 258.143 78.6956 257.616 78.6956 256.892V255.071H78.581C78.4724 255.268 78.3156 255.487 78.1105 255.728C77.9094 255.969 77.6319 256.179 77.2781 256.355C76.9242 256.532 76.4637 256.621 75.8967 256.621C75.1648 256.621 74.5052 256.45 73.9181 256.108C73.335 255.762 72.8725 255.254 72.5307 254.582C72.1929 253.906 72.024 253.076 72.024 252.091C72.024 251.105 72.1909 250.261 72.5247 249.557C72.8625 248.853 73.3249 248.315 73.9121 247.941C74.4992 247.562 75.1648 247.373 75.9087 247.373C76.4838 247.373 76.9483 247.47 77.3022 247.663C77.6561 247.852 77.9315 248.073 78.1286 248.327C78.3297 248.58 78.4845 248.803 78.5931 248.996H78.7258V247.494H80.4932V256.965C80.4932 257.761 80.3082 258.414 79.9383 258.925C79.5683 259.436 79.0676 259.814 78.4362 260.059C77.8089 260.305 77.1011 260.427 76.3129 260.427ZM76.2948 255.125C76.8136 255.125 77.2519 255.004 77.6098 254.763C77.9718 254.518 78.2452 254.168 78.4302 253.713C78.6192 253.255 78.7137 252.706 78.7137 252.067C78.7137 251.443 78.6212 250.894 78.4362 250.42C78.2513 249.945 77.9798 249.575 77.6219 249.31C77.264 249.04 76.8216 248.906 76.2948 248.906C75.7519 248.906 75.2995 249.046 74.9375 249.328C74.5756 249.605 74.3022 249.983 74.1172 250.462C73.9362 250.941 73.8457 251.475 73.8457 252.067C73.8457 252.674 73.9382 253.207 74.1232 253.665C74.3082 254.124 74.5816 254.481 74.9436 254.739C75.3095 254.996 75.7599 255.125 76.2948 255.125ZM86.815 256.947C85.9464 256.947 85.1883 256.748 84.5409 256.349C83.8934 255.951 83.3907 255.394 83.0328 254.679C82.6749 253.963 82.4959 253.126 82.4959 252.169C82.4959 251.208 82.6749 250.367 83.0328 249.648C83.3907 248.928 83.8934 248.369 84.5409 247.971C85.1883 247.573 85.9464 247.373 86.815 247.373C87.6836 247.373 88.4417 247.573 89.0892 247.971C89.7366 248.369 90.2393 248.928 90.5972 249.648C90.9551 250.367 91.1341 251.208 91.1341 252.169C91.1341 253.126 90.9551 253.963 90.5972 254.679C90.2393 255.394 89.7366 255.951 89.0892 256.349C88.4417 256.748 87.6836 256.947 86.815 256.947ZM86.821 255.433C87.384 255.433 87.8505 255.284 88.2205 254.986C88.5905 254.689 88.864 254.292 89.0409 253.798C89.2219 253.303 89.3123 252.758 89.3123 252.163C89.3123 251.572 89.2219 251.029 89.0409 250.534C88.864 250.036 88.5905 249.636 88.2205 249.334C87.8505 249.032 87.384 248.882 86.821 248.882C86.254 248.882 85.7835 249.032 85.4095 249.334C85.0395 249.636 84.764 250.036 84.5831 250.534C84.4061 251.029 84.3177 251.572 84.3177 252.163C84.3177 252.758 84.4061 253.303 84.5831 253.798C84.764 254.292 85.0395 254.689 85.4095 254.986C85.7835 255.284 86.254 255.433 86.821 255.433ZM97.0502 256.947C96.1815 256.947 95.4235 256.748 94.776 256.349C94.1286 255.951 93.6259 255.394 93.268 254.679C92.9101 253.963 92.7311 253.126 92.7311 252.169C92.7311 251.208 92.9101 250.367 93.268 249.648C93.6259 248.928 94.1286 248.369 94.776 247.971C95.4235 247.573 96.1815 247.373 97.0502 247.373C97.9188 247.373 98.6769 247.573 99.3243 247.971C99.9718 248.369 100.474 248.928 100.832 249.648C101.19 250.367 101.369 251.208 101.369 252.169C101.369 253.126 101.19 253.963 100.832 254.679C100.474 255.394 99.9718 255.951 99.3243 256.349C98.6769 256.748 97.9188 256.947 97.0502 256.947ZM97.0562 255.433C97.6192 255.433 98.0857 255.284 98.4557 254.986C98.8257 254.689 99.0991 254.292 99.2761 253.798C99.457 253.303 99.5475 252.758 99.5475 252.163C99.5475 251.572 99.457 251.029 99.2761 250.534C99.0991 250.036 98.8257 249.636 98.4557 249.334C98.0857 249.032 97.6192 248.882 97.0562 248.882C96.4892 248.882 96.0187 249.032 95.6447 249.334C95.2747 249.636 94.9992 250.036 94.8183 250.534C94.6413 251.029 94.5528 251.572 94.5528 252.163C94.5528 252.758 94.6413 253.303 94.8183 253.798C94.9992 254.292 95.2747 254.689 95.6447 254.986C96.0187 255.284 96.4892 255.433 97.0562 255.433ZM106.851 256.941C106.103 256.941 105.435 256.75 104.848 256.368C104.265 255.981 103.807 255.433 103.473 254.721C103.143 254.005 102.978 253.146 102.978 252.145C102.978 251.144 103.145 250.287 103.479 249.575C103.817 248.863 104.279 248.319 104.866 247.941C105.454 247.562 106.119 247.373 106.863 247.373C107.438 247.373 107.901 247.47 108.251 247.663C108.604 247.852 108.878 248.073 109.071 248.327C109.268 248.58 109.421 248.803 109.529 248.996H109.638V244.406H111.442V256.76H109.68V255.318H109.529C109.421 255.515 109.264 255.74 109.059 255.994C108.858 256.247 108.58 256.468 108.226 256.657C107.873 256.846 107.414 256.941 106.851 256.941ZM107.249 255.402C107.768 255.402 108.206 255.266 108.564 254.992C108.926 254.715 109.2 254.331 109.385 253.84C109.574 253.349 109.668 252.778 109.668 252.127C109.668 251.483 109.576 250.92 109.391 250.438C109.206 249.955 108.934 249.579 108.576 249.31C108.218 249.04 107.776 248.906 107.249 248.906C106.706 248.906 106.254 249.046 105.892 249.328C105.53 249.609 105.257 249.993 105.072 250.48C104.891 250.967 104.8 251.516 104.8 252.127C104.8 252.746 104.893 253.303 105.078 253.798C105.263 254.292 105.536 254.685 105.898 254.974C106.264 255.26 106.714 255.402 107.249 255.402ZM117.919 256.947C117.022 256.947 116.25 256.744 115.602 256.337C114.959 255.927 114.464 255.362 114.118 254.642C113.773 253.922 113.6 253.098 113.6 252.169C113.6 251.228 113.777 250.398 114.13 249.678C114.484 248.954 114.983 248.389 115.626 247.983C116.27 247.577 117.028 247.373 117.901 247.373C118.604 247.373 119.232 247.504 119.783 247.766C120.334 248.023 120.778 248.385 121.116 248.851C121.458 249.318 121.661 249.863 121.725 250.486H119.97C119.873 250.052 119.652 249.678 119.306 249.364C118.964 249.05 118.506 248.894 117.931 248.894C117.428 248.894 116.988 249.026 116.61 249.292C116.236 249.553 115.944 249.927 115.735 250.414C115.526 250.896 115.421 251.467 115.421 252.127C115.421 252.802 115.524 253.386 115.729 253.876C115.934 254.367 116.224 254.747 116.598 255.016C116.976 255.286 117.42 255.42 117.931 255.42C118.273 255.42 118.582 255.358 118.86 255.233C119.141 255.105 119.376 254.922 119.565 254.685C119.759 254.447 119.893 254.162 119.97 253.828H121.725C121.661 254.427 121.466 254.962 121.14 255.433C120.814 255.903 120.378 256.273 119.831 256.542C119.288 256.812 118.651 256.947 117.919 256.947ZM125.457 251.258V256.76H123.654V244.406H125.433V249.002H125.548C125.765 248.504 126.097 248.107 126.543 247.814C126.99 247.52 127.573 247.373 128.293 247.373C128.928 247.373 129.483 247.504 129.958 247.766C130.436 248.027 130.806 248.417 131.067 248.936C131.333 249.451 131.466 250.094 131.466 250.866V256.76H129.662V251.083C129.662 250.404 129.487 249.877 129.137 249.503C128.787 249.125 128.301 248.936 127.677 248.936C127.251 248.936 126.869 249.026 126.531 249.207C126.197 249.388 125.934 249.654 125.741 250.004C125.552 250.349 125.457 250.768 125.457 251.258ZM136.569 256.965C135.982 256.965 135.451 256.856 134.976 256.639C134.502 256.418 134.126 256.098 133.848 255.68C133.575 255.262 133.438 254.749 133.438 254.142C133.438 253.619 133.539 253.189 133.74 252.851C133.941 252.513 134.212 252.246 134.554 252.048C134.896 251.851 135.278 251.703 135.7 251.602C136.122 251.502 136.553 251.425 136.991 251.373C137.546 251.309 137.996 251.256 138.342 251.216C138.688 251.172 138.939 251.101 139.096 251.005C139.253 250.908 139.332 250.752 139.332 250.534V250.492C139.332 249.965 139.183 249.557 138.885 249.268C138.592 248.978 138.153 248.833 137.57 248.833C136.963 248.833 136.484 248.968 136.135 249.237C135.789 249.503 135.549 249.798 135.417 250.124L133.722 249.738C133.923 249.175 134.216 248.721 134.602 248.375C134.992 248.025 135.441 247.772 135.948 247.615C136.454 247.454 136.987 247.373 137.546 247.373C137.916 247.373 138.308 247.418 138.722 247.506C139.141 247.591 139.531 247.747 139.893 247.977C140.259 248.206 140.558 248.534 140.791 248.96C141.025 249.382 141.141 249.931 141.141 250.607V256.76H139.38V255.493H139.307C139.191 255.726 139.016 255.955 138.783 256.181C138.549 256.406 138.25 256.593 137.884 256.742C137.518 256.89 137.08 256.965 136.569 256.965ZM136.961 255.517C137.46 255.517 137.886 255.418 138.24 255.221C138.598 255.024 138.869 254.767 139.054 254.449C139.243 254.128 139.338 253.784 139.338 253.418V252.223C139.273 252.288 139.149 252.348 138.964 252.404C138.783 252.457 138.576 252.503 138.342 252.543C138.109 252.579 137.882 252.613 137.661 252.646C137.439 252.674 137.254 252.698 137.106 252.718C136.756 252.762 136.436 252.837 136.147 252.941C135.861 253.046 135.632 253.197 135.459 253.394C135.29 253.587 135.206 253.844 135.206 254.166C135.206 254.612 135.37 254.95 135.7 255.179C136.03 255.404 136.45 255.517 136.961 255.517ZM145.347 244.406V256.76H143.544V244.406H145.347ZM149.577 244.406V256.76H147.774V244.406H149.577ZM155.997 256.947C155.084 256.947 154.298 256.752 153.639 256.362C152.983 255.967 152.476 255.414 152.118 254.703C151.765 253.987 151.588 253.148 151.588 252.187C151.588 251.238 151.765 250.402 152.118 249.678C152.476 248.954 152.975 248.389 153.614 247.983C154.258 247.577 155.01 247.373 155.87 247.373C156.393 247.373 156.9 247.46 157.391 247.633C157.881 247.806 158.322 248.077 158.712 248.447C159.102 248.817 159.409 249.298 159.635 249.889C159.86 250.476 159.972 251.19 159.972 252.03V252.67H152.607V251.319H158.205C158.205 250.844 158.108 250.424 157.915 250.058C157.722 249.688 157.451 249.396 157.101 249.183C156.755 248.97 156.349 248.863 155.883 248.863C155.376 248.863 154.933 248.988 154.555 249.237C154.181 249.483 153.892 249.804 153.687 250.203C153.486 250.597 153.385 251.025 153.385 251.487V252.543C153.385 253.162 153.494 253.689 153.711 254.124C153.932 254.558 154.24 254.89 154.634 255.119C155.028 255.344 155.488 255.457 156.015 255.457C156.357 255.457 156.669 255.408 156.95 255.312C157.232 255.211 157.475 255.063 157.68 254.866C157.885 254.668 158.042 254.425 158.151 254.136L159.858 254.443C159.721 254.946 159.476 255.386 159.122 255.764C158.772 256.138 158.332 256.43 157.801 256.639C157.274 256.844 156.673 256.947 155.997 256.947ZM163.777 251.258V256.76H161.974V247.494H163.705V249.002H163.819C164.033 248.512 164.366 248.117 164.821 247.82C165.279 247.522 165.856 247.373 166.552 247.373C167.183 247.373 167.736 247.506 168.211 247.772C168.685 248.033 169.053 248.423 169.315 248.942C169.576 249.461 169.707 250.102 169.707 250.866V256.76H167.903V251.083C167.903 250.412 167.728 249.887 167.378 249.509C167.029 249.127 166.548 248.936 165.937 248.936C165.518 248.936 165.147 249.026 164.821 249.207C164.499 249.388 164.244 249.654 164.055 250.004C163.87 250.349 163.777 250.768 163.777 251.258ZM176.011 260.427C175.275 260.427 174.641 260.331 174.11 260.138C173.584 259.945 173.153 259.689 172.819 259.372C172.486 259.054 172.236 258.706 172.072 258.328L173.622 257.689C173.73 257.866 173.875 258.053 174.056 258.25C174.241 258.451 174.49 258.622 174.804 258.762C175.122 258.903 175.53 258.973 176.029 258.973C176.712 258.973 177.277 258.807 177.724 258.473C178.17 258.143 178.393 257.616 178.393 256.892V255.071H178.279C178.17 255.268 178.013 255.487 177.808 255.728C177.607 255.969 177.33 256.179 176.976 256.355C176.622 256.532 176.161 256.621 175.594 256.621C174.862 256.621 174.203 256.45 173.616 256.108C173.033 255.762 172.57 255.254 172.228 254.582C171.891 253.906 171.722 253.076 171.722 252.091C171.722 251.105 171.889 250.261 172.222 249.557C172.56 248.853 173.023 248.315 173.61 247.941C174.197 247.562 174.862 247.373 175.606 247.373C176.181 247.373 176.646 247.47 177 247.663C177.354 247.852 177.629 248.073 177.826 248.327C178.027 248.58 178.182 248.803 178.291 248.996H178.423V247.494H180.191V256.965C180.191 257.761 180.006 258.414 179.636 258.925C179.266 259.436 178.765 259.814 178.134 260.059C177.507 260.305 176.799 260.427 176.011 260.427ZM175.992 255.125C176.511 255.125 176.95 255.004 177.307 254.763C177.669 254.518 177.943 254.168 178.128 253.713C178.317 253.255 178.411 252.706 178.411 252.067C178.411 251.443 178.319 250.894 178.134 250.42C177.949 249.945 177.677 249.575 177.32 249.31C176.962 249.04 176.519 248.906 175.992 248.906C175.45 248.906 174.997 249.046 174.635 249.328C174.273 249.605 174 249.983 173.815 250.462C173.634 250.941 173.543 251.475 173.543 252.067C173.543 252.674 173.636 253.207 173.821 253.665C174.006 254.124 174.279 254.481 174.641 254.739C175.007 254.996 175.458 255.125 175.992 255.125ZM186.603 256.947C185.69 256.947 184.904 256.752 184.245 256.362C183.589 255.967 183.082 255.414 182.724 254.703C182.371 253.987 182.194 253.148 182.194 252.187C182.194 251.238 182.371 250.402 182.724 249.678C183.082 248.954 183.581 248.389 184.22 247.983C184.864 247.577 185.616 247.373 186.476 247.373C186.999 247.373 187.506 247.46 187.997 247.633C188.487 247.806 188.928 248.077 189.318 248.447C189.708 248.817 190.015 249.298 190.241 249.889C190.466 250.476 190.578 251.19 190.578 252.03V252.67H183.213V251.319H188.811C188.811 250.844 188.714 250.424 188.521 250.058C188.328 249.688 188.057 249.396 187.707 249.183C187.361 248.97 186.955 248.863 186.489 248.863C185.982 248.863 185.539 248.988 185.161 249.237C184.787 249.483 184.498 249.804 184.293 250.203C184.092 250.597 183.991 251.025 183.991 251.487V252.543C183.991 253.162 184.1 253.689 184.317 254.124C184.538 254.558 184.846 254.89 185.24 255.119C185.634 255.344 186.094 255.457 186.621 255.457C186.963 255.457 187.275 255.408 187.556 255.312C187.838 255.211 188.081 255.063 188.286 254.866C188.491 254.668 188.648 254.425 188.757 254.136L190.464 254.443C190.327 254.946 190.082 255.386 189.728 255.764C189.378 256.138 188.938 256.43 188.407 256.639C187.88 256.844 187.279 256.947 186.603 256.947Z" fill="#009966"/>
<g opacity="0.4">
<rect x="232.209" y="242.238" width="149.106" height="16.043" rx="8.02152" fill="#CCCCCC"/>
<rect x="232.209" y="242.238" width="90.596" height="16.043" rx="8.02152" fill="#009966"/>
<rect x="438.881" y="242.238" width="113.245" height="16.043" rx="8.02152" fill="#CCCCCC"/>
<rect x="438.881" y="242.238" width="57.8273" height="16.043" rx="8.02152" fill="#009966"/>
</g>
<path d="M35.8741 274.145H552.126" stroke="#EBEBEB" stroke-width="1.88742"/>
<rect x="36.8179" y="287.65" width="20.7616" height="20.7616" fill="#009966" stroke="#009966" stroke-width="1.88742"/>
<path d="M42.4801 298.785L45.446 301.805L52.8609 294.256" stroke="white" stroke-width="2.83113" stroke-linecap="round"/>
<path d="M78.9471 297.527L77.3124 297.817C77.244 297.607 77.1354 297.408 76.9866 297.219C76.8418 297.03 76.6448 296.876 76.3955 296.755C76.1461 296.634 75.8345 296.574 75.4605 296.574C74.9497 296.574 74.5235 296.689 74.1816 296.918C73.8398 297.143 73.6689 297.435 73.6689 297.792C73.6689 298.102 73.7835 298.351 74.0127 298.54C74.242 298.729 74.6119 298.884 75.1227 299.005L76.5945 299.343C77.4471 299.54 78.0825 299.843 78.5007 300.254C78.9189 300.664 79.1281 301.197 79.1281 301.852C79.1281 302.407 78.9672 302.902 78.6455 303.336C78.3278 303.766 77.8834 304.104 77.3124 304.349C76.7453 304.595 76.0878 304.717 75.3398 304.717C74.3023 304.717 73.4557 304.496 72.8002 304.054C72.1447 303.608 71.7426 302.974 71.5938 302.154L73.3371 301.888C73.4457 302.343 73.6689 302.687 74.0067 302.92C74.3445 303.149 74.7849 303.264 75.3278 303.264C75.9189 303.264 76.3914 303.141 76.7453 302.896C77.0992 302.646 77.2762 302.343 77.2762 301.985C77.2762 301.695 77.1676 301.452 76.9504 301.255C76.7373 301.058 76.4095 300.909 75.9672 300.809L74.3988 300.465C73.5342 300.268 72.8948 299.954 72.4805 299.524C72.0703 299.093 71.8653 298.548 71.8653 297.889C71.8653 297.342 72.0181 296.863 72.3237 296.453C72.6293 296.043 73.0516 295.723 73.5905 295.494C74.1293 295.261 74.7466 295.144 75.4424 295.144C76.4437 295.144 77.2319 295.361 77.807 295.796C78.3821 296.226 78.7621 296.803 78.9471 297.527ZM85.014 304.717C84.1172 304.717 83.3451 304.514 82.6976 304.108C82.0542 303.698 81.5595 303.133 81.2137 302.413C80.8679 301.693 80.6949 300.869 80.6949 299.94C80.6949 298.999 80.8719 298.168 81.2258 297.449C81.5797 296.725 82.0783 296.16 82.7218 295.754C83.3652 295.347 84.1232 295.144 84.9959 295.144C85.6997 295.144 86.327 295.275 86.878 295.536C87.4289 295.794 87.8733 296.156 88.2111 296.622C88.5529 297.089 88.756 297.634 88.8203 298.257H87.065C86.9684 297.823 86.7473 297.449 86.4014 297.135C86.0596 296.821 85.6011 296.664 85.0261 296.664C84.5234 296.664 84.083 296.797 83.705 297.063C83.331 297.324 83.0395 297.698 82.8303 298.185C82.6212 298.667 82.5167 299.238 82.5167 299.898C82.5167 300.573 82.6192 301.156 82.8243 301.647C83.0294 302.138 83.3189 302.518 83.6929 302.787C84.071 303.057 84.5153 303.191 85.0261 303.191C85.3679 303.191 85.6775 303.129 85.955 303.004C86.2365 302.876 86.4718 302.693 86.6608 302.455C86.8538 302.218 86.9886 301.933 87.065 301.599H88.8203C88.756 302.198 88.561 302.733 88.2352 303.203C87.9095 303.674 87.4731 304.044 86.9262 304.313C86.3833 304.583 85.7459 304.717 85.014 304.717ZM92.5528 299.029V304.53H90.7491V292.176H92.5287V296.773H92.6433C92.8604 296.274 93.1922 295.878 93.6386 295.585C94.085 295.291 94.6681 295.144 95.3879 295.144C96.0233 295.144 96.5783 295.275 97.0528 295.536C97.5314 295.798 97.9014 296.188 98.1628 296.707C98.4282 297.221 98.5609 297.865 98.5609 298.637V304.53H96.7572V298.854C96.7572 298.174 96.5823 297.648 96.2324 297.274C95.8826 296.896 95.396 296.707 94.7726 296.707C94.3464 296.707 93.9643 296.797 93.6265 296.978C93.2927 297.159 93.0293 297.424 92.8363 297.774C92.6473 298.12 92.5528 298.538 92.5528 299.029ZM104.871 304.717C104.002 304.717 103.244 304.518 102.596 304.12C101.949 303.722 101.446 303.165 101.088 302.449C100.73 301.734 100.552 300.897 100.552 299.94C100.552 298.979 100.73 298.138 101.088 297.418C101.446 296.699 101.949 296.14 102.596 295.741C103.244 295.343 104.002 295.144 104.871 295.144C105.739 295.144 106.497 295.343 107.145 295.741C107.792 296.14 108.295 296.699 108.653 297.418C109.011 298.138 109.19 298.979 109.19 299.94C109.19 300.897 109.011 301.734 108.653 302.449C108.295 303.165 107.792 303.722 107.145 304.12C106.497 304.518 105.739 304.717 104.871 304.717ZM104.877 303.203C105.44 303.203 105.906 303.055 106.276 302.757C106.646 302.459 106.92 302.063 107.096 301.569C107.277 301.074 107.368 300.529 107.368 299.934C107.368 299.343 107.277 298.8 107.096 298.305C106.92 297.807 106.646 297.406 106.276 297.105C105.906 296.803 105.44 296.652 104.877 296.652C104.31 296.652 103.839 296.803 103.465 297.105C103.095 297.406 102.82 297.807 102.639 298.305C102.462 298.8 102.373 299.343 102.373 299.934C102.373 300.529 102.462 301.074 102.639 301.569C102.82 302.063 103.095 302.459 103.465 302.757C103.839 303.055 104.31 303.203 104.877 303.203ZM115.106 304.717C114.237 304.717 113.479 304.518 112.832 304.12C112.184 303.722 111.681 303.165 111.324 302.449C110.966 301.734 110.787 300.897 110.787 299.94C110.787 298.979 110.966 298.138 111.324 297.418C111.681 296.699 112.184 296.14 112.832 295.741C113.479 295.343 114.237 295.144 115.106 295.144C115.974 295.144 116.732 295.343 117.38 295.741C118.027 296.14 118.53 296.699 118.888 297.418C119.246 298.138 119.425 298.979 119.425 299.94C119.425 300.897 119.246 301.734 118.888 302.449C118.53 303.165 118.027 303.722 117.38 304.12C116.732 304.518 115.974 304.717 115.106 304.717ZM115.112 303.203C115.675 303.203 116.141 303.055 116.511 302.757C116.881 302.459 117.155 302.063 117.332 301.569C117.513 301.074 117.603 300.529 117.603 299.934C117.603 299.343 117.513 298.8 117.332 298.305C117.155 297.807 116.881 297.406 116.511 297.105C116.141 296.803 115.675 296.652 115.112 296.652C114.545 296.652 114.074 296.803 113.7 297.105C113.33 297.406 113.055 297.807 112.874 298.305C112.697 298.8 112.608 299.343 112.608 299.934C112.608 300.529 112.697 301.074 112.874 301.569C113.055 302.063 113.33 302.459 113.7 302.757C114.074 303.055 114.545 303.203 115.112 303.203ZM123.242 292.176V304.53H121.438V292.176H123.242ZM127.472 292.176V304.53H125.668V292.176H127.472ZM129.898 304.53V295.265H131.702V304.53H129.898ZM130.809 293.835C130.495 293.835 130.226 293.731 130.001 293.522C129.78 293.309 129.669 293.055 129.669 292.762C129.669 292.464 129.78 292.211 130.001 292.002C130.226 291.788 130.495 291.682 130.809 291.682C131.123 291.682 131.39 291.788 131.611 292.002C131.837 292.211 131.949 292.464 131.949 292.762C131.949 293.055 131.837 293.309 131.611 293.522C131.39 293.731 131.123 293.835 130.809 293.835ZM138.538 295.265V296.713H133.302V295.265H138.538ZM134.738 304.53V294.191C134.738 293.612 134.864 293.132 135.118 292.75C135.371 292.363 135.707 292.076 136.125 291.887C136.543 291.694 136.998 291.597 137.488 291.597C137.85 291.597 138.16 291.628 138.417 291.688C138.675 291.744 138.866 291.796 138.99 291.845L138.568 293.304C138.484 293.28 138.375 293.252 138.242 293.22C138.11 293.184 137.949 293.166 137.76 293.166C137.321 293.166 137.008 293.274 136.819 293.491C136.634 293.709 136.541 294.022 136.541 294.433V304.53H134.738ZM144.027 304.717C143.114 304.717 142.328 304.522 141.669 304.132C141.013 303.738 140.506 303.185 140.149 302.473C139.795 301.758 139.618 300.919 139.618 299.958C139.618 299.009 139.795 298.172 140.149 297.449C140.506 296.725 141.005 296.16 141.645 295.754C142.288 295.347 143.04 295.144 143.901 295.144C144.423 295.144 144.93 295.231 145.421 295.404C145.911 295.577 146.352 295.848 146.742 296.218C147.132 296.588 147.44 297.069 147.665 297.66C147.89 298.247 148.003 298.961 148.003 299.801V300.441H140.637V299.089H146.235C146.235 298.615 146.139 298.195 145.946 297.829C145.753 297.459 145.481 297.167 145.131 296.954C144.785 296.741 144.379 296.634 143.913 296.634C143.406 296.634 142.964 296.759 142.586 297.008C142.212 297.254 141.922 297.575 141.717 297.973C141.516 298.368 141.415 298.796 141.415 299.258V300.314C141.415 300.933 141.524 301.46 141.741 301.894C141.962 302.329 142.27 302.66 142.664 302.89C143.058 303.115 143.519 303.227 144.045 303.227C144.387 303.227 144.699 303.179 144.98 303.083C145.262 302.982 145.505 302.833 145.71 302.636C145.915 302.439 146.072 302.196 146.181 301.906L147.888 302.214C147.751 302.717 147.506 303.157 147.152 303.535C146.802 303.909 146.362 304.201 145.831 304.41C145.304 304.615 144.703 304.717 144.027 304.717Z" fill="#009966"/>
<g opacity="0.4">
<rect x="232.209" y="290.009" width="149.106" height="16.043" rx="8.02152" fill="#CCCCCC"/>
<rect x="232.209" y="290.009" width="90.596" height="16.043" rx="8.02152" fill="#009966"/>
<rect x="438.881" y="290.009" width="113.245" height="16.043" rx="8.02152" fill="#CCCCCC"/>
<rect x="438.881" y="290.009" width="57.8273" height="16.043" rx="8.02152" fill="#009966"/>
</g>
<path d="M35.8741 321.916H552.126" stroke="#EBEBEB" stroke-width="1.88742"/>
<rect x="36.8179" y="335.421" width="20.7616" height="20.7616" stroke="#B3B3B3" stroke-width="1.88742"/>
<path d="M74.3721 352.301L71.6456 343.036H73.5095L75.3252 349.84H75.4157L77.2374 343.036H79.1014L80.9111 349.81H81.0015L82.8052 343.036H84.6691L81.9486 352.301H80.1088L78.2267 345.612H78.088L76.2059 352.301H74.3721ZM90.0016 352.488C89.133 352.488 88.3749 352.289 87.7275 351.891C87.08 351.493 86.5773 350.936 86.2194 350.22C85.8615 349.504 85.6826 348.668 85.6826 347.711C85.6826 346.75 85.8615 345.909 86.2194 345.189C86.5773 344.469 87.08 343.911 87.7275 343.512C88.3749 343.114 89.133 342.915 90.0016 342.915C90.8703 342.915 91.6283 343.114 92.2758 343.512C92.9232 343.911 93.4259 344.469 93.7838 345.189C94.1417 345.909 94.3207 346.75 94.3207 347.711C94.3207 348.668 94.1417 349.504 93.7838 350.22C93.4259 350.936 92.9232 351.493 92.2758 351.891C91.6283 352.289 90.8703 352.488 90.0016 352.488ZM90.0077 350.974C90.5707 350.974 91.0372 350.825 91.4071 350.528C91.7771 350.23 92.0506 349.834 92.2275 349.34C92.4085 348.845 92.499 348.3 92.499 347.705C92.499 347.114 92.4085 346.571 92.2275 346.076C92.0506 345.577 91.7771 345.177 91.4071 344.876C91.0372 344.574 90.5707 344.423 90.0077 344.423C89.4406 344.423 88.9701 344.574 88.5961 344.876C88.2261 345.177 87.9507 345.577 87.7697 346.076C87.5928 346.571 87.5043 347.114 87.5043 347.705C87.5043 348.3 87.5928 348.845 87.7697 349.34C87.9507 349.834 88.2261 350.23 88.5961 350.528C88.9701 350.825 89.4406 350.974 90.0077 350.974ZM96.334 352.301V343.036H98.0773V344.508H98.1738C98.3427 344.009 98.6403 343.617 99.0666 343.331C99.4969 343.042 99.9835 342.897 100.526 342.897C100.639 342.897 100.772 342.901 100.924 342.909C101.081 342.917 101.204 342.927 101.292 342.939V344.665C101.22 344.644 101.091 344.622 100.906 344.598C100.721 344.57 100.536 344.556 100.351 344.556C99.9251 344.556 99.5451 344.646 99.2113 344.827C98.8816 345.004 98.6202 345.252 98.4271 345.569C98.2341 345.883 98.1376 346.241 98.1376 346.643V352.301H96.334ZM104.512 349.159L104.5 346.957H104.814L108.505 343.036H110.665L106.455 347.5H106.171L104.512 349.159ZM102.853 352.301V339.947H104.657V352.301H102.853ZM108.705 352.301L105.387 347.898L106.629 346.637L110.918 352.301H108.705ZM114.112 339.947V352.301H112.309V339.947H114.112ZM116.539 352.301V343.036H118.343V352.301H116.539ZM117.45 341.606C117.136 341.606 116.867 341.502 116.641 341.293C116.42 341.079 116.31 340.826 116.31 340.532C116.31 340.235 116.42 339.982 116.641 339.772C116.867 339.559 117.136 339.453 117.45 339.453C117.763 339.453 118.031 339.559 118.252 339.772C118.477 339.982 118.59 340.235 118.59 340.532C118.59 340.826 118.477 341.079 118.252 341.293C118.031 341.502 117.763 341.606 117.45 341.606ZM125.179 343.036V344.484H119.943V343.036H125.179ZM121.378 352.301V341.962C121.378 341.383 121.505 340.902 121.758 340.52C122.012 340.134 122.347 339.847 122.766 339.658C123.184 339.465 123.638 339.368 124.129 339.368C124.491 339.368 124.801 339.398 125.058 339.459C125.315 339.515 125.506 339.567 125.631 339.616L125.209 341.075C125.124 341.051 125.016 341.023 124.883 340.991C124.75 340.955 124.589 340.937 124.4 340.937C123.962 340.937 123.648 341.045 123.459 341.262C123.274 341.48 123.182 341.793 123.182 342.203V352.301H121.378ZM130.668 352.488C129.755 352.488 128.969 352.293 128.309 351.903C127.654 351.509 127.147 350.956 126.789 350.244C126.435 349.529 126.258 348.69 126.258 347.729C126.258 346.78 126.435 345.943 126.789 345.219C127.147 344.496 127.646 343.931 128.285 343.524C128.929 343.118 129.681 342.915 130.541 342.915C131.064 342.915 131.571 343.002 132.061 343.175C132.552 343.347 132.992 343.619 133.382 343.989C133.772 344.359 134.08 344.839 134.305 345.431C134.531 346.018 134.643 346.732 134.643 347.572V348.211H127.278V346.86H132.876C132.876 346.386 132.779 345.965 132.586 345.6C132.393 345.23 132.122 344.938 131.772 344.725C131.426 344.512 131.02 344.405 130.553 344.405C130.047 344.405 129.604 344.53 129.226 344.779C128.852 345.024 128.563 345.346 128.358 345.744C128.156 346.138 128.056 346.567 128.056 347.029V348.085C128.056 348.704 128.165 349.231 128.382 349.665C128.603 350.1 128.911 350.431 129.305 350.661C129.699 350.886 130.159 350.998 130.686 350.998C131.028 350.998 131.339 350.95 131.621 350.854C131.902 350.753 132.146 350.604 132.351 350.407C132.556 350.21 132.713 349.967 132.821 349.677L134.529 349.985C134.392 350.488 134.146 350.928 133.793 351.306C133.443 351.68 133.002 351.972 132.472 352.181C131.945 352.386 131.344 352.488 130.668 352.488Z" fill="#B3B3B3"/>
<g opacity="0.4">
<rect x="232.209" y="337.78" width="149.106" height="16.043" rx="8.02152" fill="#CCCCCC"/>
<rect x="232.209" y="337.78" width="90.596" height="16.043" rx="8.02152" fill="#009966"/>
<rect x="438.881" y="337.78" width="113.245" height="16.043" rx="8.02152" fill="#CCCCCC"/>
<rect x="438.881" y="337.78" width="57.8273" height="16.043" rx="8.02152" fill="#009966"/>
</g>
</g>
<defs>
<filter id="filter0_d_119_291" x="0" y="0" width="598" height="402" filterUnits="userSpaceOnUse" color-interpolation-filters="sRGB">
<feFlood flood-opacity="0" result="BackgroundImageFix"/>
<feColorMatrix in="SourceAlpha" type="matrix" values="0 0 0 0 0 0 0 0 0 0 0 0 0 0 0 0 0 0 127 0" result="hardAlpha"/>
<feOffset dx="5" dy="4"/>
<feGaussianBlur stdDeviation="11"/>
<feComposite in2="hardAlpha" operator="out"/>
<feColorMatrix type="matrix" values="0 0 0 0 0 0 0 0 0 0 0 0 0 0 0 0 0 0 0.25 0"/>
<feBlend mode="normal" in2="BackgroundImageFix" result="effect1_dropShadow_119_291"/>
<feBlend mode="normal" in="SourceGraphic" in2="effect1_dropShadow_119_291" result="shape"/>
</filter>
</defs>
</svg>
