<svg width="796" height="684" viewBox="0 0 796 684" fill="none" xmlns="http://www.w3.org/2000/svg">
<g filter="url(#filter0_d_119_399)">
<rect x="23" y="24" width="737" height="625" rx="12.5476" fill="white"/>
<path d="M62.4189 83.6429V67.217H65.3945V74.1707H73.006V67.217H75.9896V83.6429H73.006V76.6651H65.3945V83.6429H62.4189ZM82.6426 83.8916C81.8619 83.8916 81.1588 83.7526 80.5332 83.4745C79.9129 83.1911 79.421 82.7741 79.0574 82.2233C78.6992 81.6726 78.52 80.9935 78.52 80.1861C78.52 79.491 78.6484 78.9162 78.905 78.4617C79.1617 78.0072 79.5119 77.6436 79.9557 77.3709C80.3995 77.0982 80.8995 76.8924 81.4556 76.7533C82.017 76.609 82.5971 76.5047 83.196 76.4405C83.9178 76.3657 84.5033 76.2988 84.9525 76.24C85.4016 76.1759 85.7278 76.0796 85.931 75.9513C86.1395 75.8176 86.2438 75.6117 86.2438 75.3337V75.2856C86.2438 74.6814 86.0647 74.2135 85.7064 73.882C85.3482 73.5505 84.8322 73.3847 84.1585 73.3847C83.4473 73.3847 82.8832 73.5398 82.4661 73.8499C82.0544 74.16 81.7764 74.5263 81.632 74.9487L78.9211 74.5637C79.135 73.8152 79.4879 73.1896 79.9798 72.6869C80.4717 72.179 81.0732 71.7993 81.7844 71.548C82.4955 71.2914 83.2816 71.163 84.1424 71.163C84.7359 71.163 85.3268 71.2326 85.915 71.3716C86.5031 71.5106 87.0405 71.7405 87.5271 72.0613C88.0137 72.3768 88.404 72.8072 88.6981 73.3526C88.9975 73.898 89.1472 74.5798 89.1472 75.3979V83.6429H86.3561V81.9506H86.2598C86.0834 82.2928 85.8347 82.6136 85.5139 82.9131C85.1985 83.2072 84.8001 83.4451 84.3189 83.6269C83.843 83.8034 83.2842 83.8916 82.6426 83.8916ZM83.3965 81.7581C83.9793 81.7581 84.4846 81.6432 84.9124 81.4132C85.3402 81.178 85.669 80.8678 85.8989 80.4829C86.1342 80.0979 86.2518 79.6781 86.2518 79.2236V77.7719C86.1609 77.8468 86.0059 77.9163 85.7866 77.9805C85.5727 78.0446 85.3321 78.1008 85.0648 78.1489C84.7974 78.197 84.5328 78.2398 84.2708 78.2772C84.0087 78.3147 83.7815 78.3467 83.589 78.3735C83.1559 78.4323 82.7682 78.5285 82.426 78.6622C82.0838 78.7959 81.8138 78.983 81.616 79.2236C81.4181 79.4589 81.3192 79.7637 81.3192 80.138C81.3192 80.6727 81.5144 81.0764 81.9047 81.3491C82.295 81.6218 82.7923 81.7581 83.3965 81.7581ZM101.804 74.5798L99.1568 74.8685C99.0819 74.6012 98.9509 74.3499 98.7638 74.1146C98.582 73.8793 98.336 73.6895 98.0259 73.5451C97.7158 73.4008 97.3362 73.3286 96.887 73.3286C96.2828 73.3286 95.7748 73.4596 95.3631 73.7216C94.9567 73.9836 94.7562 74.3231 94.7616 74.7402C94.7562 75.0984 94.8872 75.3898 95.1546 75.6144C95.4273 75.839 95.8764 76.0235 96.502 76.1678L98.6034 76.617C99.769 76.8683 100.635 77.2666 101.202 77.812C101.774 78.3574 102.063 79.0713 102.068 79.9535C102.063 80.7288 101.836 81.4132 101.387 82.0068C100.943 82.5949 100.325 83.0548 99.5338 83.3863C98.7424 83.7178 97.8334 83.8836 96.8068 83.8836C95.2989 83.8836 94.0852 83.5681 93.1655 82.9371C92.2458 82.3008 91.6977 81.4159 91.5213 80.2824L94.3525 80.0097C94.4809 80.5657 94.7536 80.9855 95.1706 81.2689C95.5877 81.5523 96.1304 81.694 96.7988 81.694C97.4885 81.694 98.042 81.5523 98.459 81.2689C98.8814 80.9855 99.0926 80.6353 99.0926 80.2182C99.0926 79.8653 98.9563 79.5739 98.6836 79.344C98.4162 79.114 97.9992 78.9376 97.4324 78.8146L95.331 78.3735C94.1493 78.1275 93.2751 77.7131 92.7083 77.1303C92.1415 76.5421 91.8608 75.7989 91.8662 74.9006C91.8608 74.1413 92.0667 73.4836 92.4837 72.9275C92.9062 72.3661 93.4917 71.933 94.2402 71.6282C94.9942 71.3181 95.8631 71.163 96.8469 71.163C98.2906 71.163 99.4268 71.4705 100.256 72.0854C101.09 72.7003 101.606 73.5318 101.804 74.5798ZM107.366 76.4245V83.6429H104.462V67.217H107.302V73.4168H107.446C107.735 72.7217 108.181 72.1736 108.785 71.7726C109.395 71.3662 110.17 71.163 111.111 71.163C111.967 71.163 112.713 71.3422 113.349 71.7004C113.985 72.0587 114.477 72.5827 114.825 73.2724C115.178 73.9622 115.354 74.8043 115.354 75.7989V83.6429H112.451V76.248C112.451 75.4193 112.237 74.7749 111.809 74.3151C111.387 73.8499 110.793 73.6173 110.029 73.6173C109.515 73.6173 109.055 73.7296 108.649 73.9542C108.248 74.1734 107.933 74.4915 107.703 74.9086C107.478 75.3257 107.366 75.831 107.366 76.4245ZM124.466 71.3234V73.5692H117.383V71.3234H124.466ZM119.132 68.3719H122.035V79.9375C122.035 80.3278 122.094 80.6272 122.212 80.8358C122.335 81.039 122.495 81.178 122.693 81.2528C122.891 81.3277 123.11 81.3651 123.351 81.3651C123.532 81.3651 123.698 81.3518 123.848 81.325C124.003 81.2983 124.121 81.2742 124.201 81.2528L124.69 83.5226C124.535 83.5761 124.313 83.6349 124.024 83.6991C123.741 83.7633 123.393 83.8007 122.982 83.8114C122.255 83.8328 121.6 83.7231 121.017 83.4825C120.434 83.2366 119.971 82.8569 119.629 82.3436C119.292 81.8303 119.127 81.1887 119.132 80.4187V68.3719ZM130.439 83.8916C129.658 83.8916 128.955 83.7526 128.329 83.4745C127.709 83.1911 127.217 82.7741 126.854 82.2233C126.495 81.6726 126.316 80.9935 126.316 80.1861C126.316 79.491 126.445 78.9162 126.701 78.4617C126.958 78.0072 127.308 77.6436 127.752 77.3709C128.196 77.0982 128.696 76.8924 129.252 76.7533C129.813 76.609 130.393 76.5047 130.992 76.4405C131.714 76.3657 132.3 76.2988 132.749 76.24C133.198 76.1759 133.524 76.0796 133.727 75.9513C133.936 75.8176 134.04 75.6117 134.04 75.3337V75.2856C134.04 74.6814 133.861 74.2135 133.503 73.882C133.144 73.5505 132.628 73.3847 131.955 73.3847C131.244 73.3847 130.679 73.5398 130.262 73.8499C129.851 74.16 129.573 74.5263 129.428 74.9487L126.717 74.5637C126.931 73.8152 127.284 73.1896 127.776 72.6869C128.268 72.179 128.869 71.7993 129.581 71.548C130.292 71.2914 131.078 71.163 131.939 71.163C132.532 71.163 133.123 71.2326 133.711 71.3716C134.299 71.5106 134.837 71.7405 135.323 72.0613C135.81 72.3768 136.2 72.8072 136.494 73.3526C136.794 73.898 136.943 74.5798 136.943 75.3979V83.6429H134.152V81.9506H134.056C133.88 82.2928 133.631 82.6136 133.31 82.9131C132.995 83.2072 132.596 83.4451 132.115 83.6269C131.639 83.8034 131.08 83.8916 130.439 83.8916ZM131.193 81.7581C131.776 81.7581 132.281 81.6432 132.709 81.4132C133.136 81.178 133.465 80.8678 133.695 80.4829C133.93 80.0979 134.048 79.6781 134.048 79.2236V77.7719C133.957 77.8468 133.802 77.9163 133.583 77.9805C133.369 78.0446 133.128 78.1008 132.861 78.1489C132.594 78.197 132.329 78.2398 132.067 78.2772C131.805 78.3147 131.578 78.3467 131.385 78.3735C130.952 78.4323 130.564 78.5285 130.222 78.6622C129.88 78.7959 129.61 78.983 129.412 79.2236C129.214 79.4589 129.115 79.7637 129.115 80.138C129.115 80.6727 129.311 81.0764 129.701 81.3491C130.091 81.6218 130.588 81.7581 131.193 81.7581ZM145.221 88.5194C144.178 88.5194 143.282 88.3777 142.534 88.0943C141.785 87.8163 141.184 87.442 140.729 86.9715C140.275 86.5009 139.959 85.9796 139.783 85.4075L142.397 84.7738C142.515 85.0145 142.686 85.2524 142.911 85.4877C143.135 85.7283 143.437 85.9261 143.817 86.0812C144.202 86.2416 144.686 86.3218 145.269 86.3218C146.092 86.3218 146.774 86.1213 147.314 85.7203C147.854 85.3246 148.124 84.6722 148.124 83.7633V81.4293H147.98C147.83 81.7287 147.611 82.0362 147.322 82.3516C147.039 82.6671 146.662 82.9318 146.191 83.1457C145.726 83.3596 145.14 83.4665 144.435 83.4665C143.488 83.4665 142.63 83.2446 141.86 82.8008C141.095 82.3516 140.486 81.6833 140.031 80.7957C139.582 79.9027 139.358 78.7852 139.358 77.4431C139.358 76.0903 139.582 74.9487 140.031 74.0183C140.486 73.0826 141.098 72.3741 141.868 71.8929C142.638 71.4063 143.496 71.163 144.443 71.163C145.164 71.163 145.758 71.286 146.223 71.532C146.694 71.7726 147.068 72.064 147.346 72.4062C147.624 72.7431 147.835 73.0612 147.98 73.3607H148.14V71.3234H151.003V83.8435C151.003 84.8968 150.752 85.7684 150.249 86.4581C149.747 87.1479 149.06 87.6639 148.188 88.0061C147.317 88.3483 146.327 88.5194 145.221 88.5194ZM145.245 81.1887C145.86 81.1887 146.384 81.039 146.817 80.7395C147.25 80.4401 147.579 80.0097 147.803 79.4482C148.028 78.8868 148.14 78.2131 148.14 77.4271C148.14 76.6517 148.028 75.9727 147.803 75.3898C147.584 74.807 147.258 74.3552 146.825 74.0344C146.397 73.7082 145.87 73.5451 145.245 73.5451C144.598 73.5451 144.058 73.7136 143.624 74.0504C143.191 74.3873 142.865 74.8498 142.646 75.438C142.427 76.0208 142.317 76.6838 142.317 77.4271C142.317 78.181 142.427 78.8413 142.646 79.4081C142.871 79.9696 143.199 80.408 143.633 80.7235C144.071 81.0336 144.608 81.1887 145.245 81.1887Z" fill="#B3B3B3"/>
<path d="M435.716 72.7591H432.717C432.631 72.2672 432.473 71.8314 432.243 71.4518C432.014 71.0668 431.727 70.7406 431.385 70.4733C431.043 70.2059 430.653 70.0054 430.214 69.8717C429.781 69.7327 429.313 69.6632 428.811 69.6632C427.918 69.6632 427.126 69.8878 426.437 70.3369C425.747 70.7807 425.207 71.4331 424.816 72.2939C424.426 73.1495 424.231 74.1948 424.231 75.4299C424.231 76.6865 424.426 77.7452 424.816 78.6061C425.212 79.4616 425.752 80.1086 426.437 80.547C427.126 80.9801 427.915 81.1967 428.803 81.1967C429.295 81.1967 429.754 81.1325 430.182 81.0042C430.615 80.8705 431.003 80.6754 431.345 80.4187C431.693 80.162 431.984 79.8466 432.219 79.4723C432.46 79.098 432.626 78.6702 432.717 78.189L435.716 78.205C435.604 78.9857 435.361 79.7182 434.986 80.4027C434.618 81.0871 434.134 81.6913 433.535 82.2153C432.936 82.734 432.235 83.1403 431.433 83.4344C430.631 83.7231 429.741 83.8675 428.763 83.8675C427.319 83.8675 426.03 83.5333 424.897 82.865C423.763 82.1966 422.87 81.2314 422.218 79.9696C421.565 78.7077 421.239 77.1945 421.239 75.4299C421.239 73.6601 421.568 72.1469 422.226 70.8903C422.884 69.6284 423.779 68.6633 424.913 67.9949C426.046 67.3266 427.33 66.9924 428.763 66.9924C429.677 66.9924 430.527 67.1207 431.313 67.3774C432.099 67.634 432.8 68.011 433.414 68.5083C434.029 69.0002 434.535 69.6044 434.93 70.3209C435.331 71.032 435.593 71.8448 435.716 72.7591ZM443.687 83.8836C442.484 83.8836 441.441 83.6189 440.559 83.0895C439.676 82.5602 438.992 81.8196 438.505 80.8678C438.024 79.9161 437.784 78.8039 437.784 77.5313C437.784 76.2587 438.024 75.1439 438.505 74.1868C438.992 73.2297 439.676 72.4864 440.559 71.9571C441.441 71.4277 442.484 71.163 443.687 71.163C444.89 71.163 445.932 71.4277 446.815 71.9571C447.697 72.4864 448.379 73.2297 448.86 74.1868C449.346 75.1439 449.59 76.2587 449.59 77.5313C449.59 78.8039 449.346 79.9161 448.86 80.8678C448.379 81.8196 447.697 82.5602 446.815 83.0895C445.932 83.6189 444.89 83.8836 443.687 83.8836ZM443.703 81.5576C444.355 81.5576 444.9 81.3785 445.339 81.0202C445.777 80.6566 446.104 80.1701 446.317 79.5605C446.537 78.9509 446.646 78.2719 446.646 77.5233C446.646 76.7694 446.537 76.0876 446.317 75.4781C446.104 74.8632 445.777 74.3739 445.339 74.0103C444.9 73.6467 444.355 73.4649 443.703 73.4649C443.034 73.4649 442.478 73.6467 442.034 74.0103C441.596 74.3739 441.267 74.8632 441.048 75.4781C440.834 76.0876 440.727 76.7694 440.727 77.5233C440.727 78.2719 440.834 78.9509 441.048 79.5605C441.267 80.1701 441.596 80.6566 442.034 81.0202C442.478 81.3785 443.034 81.5576 443.703 81.5576ZM452.054 83.6429V71.3234H454.829V73.4168H454.974C455.23 72.711 455.655 72.1603 456.249 71.7646C456.842 71.3636 457.551 71.163 458.374 71.163C459.208 71.163 459.912 71.3662 460.484 71.7726C461.061 72.1736 461.467 72.7217 461.703 73.4168H461.831C462.104 72.7324 462.564 72.187 463.211 71.7806C463.863 71.3689 464.636 71.163 465.529 71.163C466.662 71.163 467.587 71.5213 468.304 72.2378C469.02 72.9543 469.378 73.9996 469.378 75.3738V83.6429H466.467V75.823C466.467 75.0583 466.264 74.4996 465.857 74.1467C465.451 73.7884 464.954 73.6093 464.366 73.6093C463.665 73.6093 463.117 73.8285 462.721 74.267C462.331 74.7001 462.136 75.2642 462.136 75.9593V83.6429H459.289V75.7026C459.289 75.0664 459.096 74.5584 458.711 74.1787C458.331 73.7991 457.834 73.6093 457.219 73.6093C456.802 73.6093 456.423 73.7162 456.08 73.9301C455.738 74.1386 455.465 74.4354 455.262 74.8204C455.059 75.2 454.958 75.6438 454.958 76.1518V83.6429H452.054ZM472.324 88.2628V71.3234H475.179V73.3607H475.348C475.497 73.0612 475.709 72.7431 475.981 72.4062C476.254 72.064 476.623 71.7726 477.088 71.532C477.553 71.286 478.147 71.163 478.869 71.163C479.82 71.163 480.679 71.4063 481.443 71.8929C482.213 72.3741 482.823 73.088 483.272 74.0344C483.726 74.9755 483.954 76.1304 483.954 77.4992C483.954 78.852 483.732 80.0016 483.288 80.9481C482.844 81.8945 482.24 82.6163 481.475 83.1136C480.711 83.6109 479.844 83.8595 478.877 83.8595C478.171 83.8595 477.585 83.7419 477.12 83.5066C476.655 83.2713 476.281 82.9879 475.997 82.6564C475.719 82.3196 475.503 82.0014 475.348 81.702H475.227V88.2628H472.324ZM475.171 77.4832C475.171 78.2799 475.283 78.9777 475.508 79.5765C475.738 80.1754 476.067 80.6433 476.495 80.9801C476.928 81.3117 477.452 81.4774 478.067 81.4774C478.708 81.4774 479.246 81.3063 479.679 80.9641C480.112 80.6165 480.438 80.1433 480.657 79.5445C480.882 78.9403 480.994 78.2532 480.994 77.4832C480.994 76.7186 480.884 76.0395 480.665 75.446C480.446 74.8525 480.12 74.3873 479.687 74.0504C479.254 73.7136 478.714 73.5451 478.067 73.5451C477.446 73.5451 476.92 73.7082 476.487 74.0344C476.053 74.3605 475.725 74.8177 475.5 75.4059C475.281 75.9941 475.171 76.6865 475.171 77.4832ZM491.894 83.8836C490.659 83.8836 489.592 83.6269 488.694 83.1136C487.801 82.5949 487.114 81.8624 486.632 80.916C486.151 79.9642 485.911 78.844 485.911 77.5554C485.911 76.2881 486.151 75.176 486.632 74.2189C487.119 73.2564 487.798 72.5078 488.67 71.9731C489.541 71.4331 490.565 71.163 491.742 71.163C492.501 71.163 493.217 71.286 493.891 71.532C494.57 71.7726 495.169 72.1469 495.688 72.6549C496.212 73.1628 496.623 73.8098 496.923 74.5958C497.222 75.3765 497.372 76.3069 497.372 77.387V78.2772H487.274V76.3202H494.589C494.583 75.7641 494.463 75.2695 494.228 74.8364C493.993 74.398 493.664 74.0531 493.241 73.8018C492.824 73.5505 492.338 73.4248 491.782 73.4248C491.188 73.4248 490.667 73.5692 490.218 73.8579C489.769 74.1413 489.418 74.5156 489.167 74.9808C488.921 75.4406 488.795 75.9459 488.79 76.4967V78.205C488.79 78.9215 488.921 79.5364 489.183 80.0498C489.445 80.5577 489.811 80.9481 490.282 81.2208C490.752 81.4881 491.303 81.6218 491.934 81.6218C492.356 81.6218 492.739 81.563 493.081 81.4453C493.423 81.3223 493.72 81.1432 493.971 80.908C494.223 80.6727 494.412 80.3813 494.541 80.0337L497.252 80.3385C497.081 81.055 496.754 81.6806 496.273 82.2153C495.797 82.7446 495.188 83.1564 494.444 83.4505C493.701 83.7392 492.851 83.8836 491.894 83.8836ZM505.98 71.3234V73.5692H498.898V71.3234H505.98ZM500.646 68.3719H503.55V79.9375C503.55 80.3278 503.609 80.6272 503.726 80.8358C503.849 81.039 504.01 81.178 504.207 81.2528C504.405 81.3277 504.624 81.3651 504.865 81.3651C505.047 81.3651 505.213 81.3518 505.362 81.325C505.517 81.2983 505.635 81.2742 505.715 81.2528L506.205 83.5226C506.049 83.5761 505.828 83.6349 505.539 83.6991C505.255 83.7633 504.908 83.8007 504.496 83.8114C503.769 83.8328 503.114 83.7231 502.531 83.4825C501.948 83.2366 501.486 82.8569 501.144 82.3436C500.807 81.8303 500.641 81.1887 500.646 80.4187V68.3719ZM508.408 83.6429V71.3234H511.312V83.6429H508.408ZM509.868 69.575C509.408 69.575 509.012 69.4226 508.681 69.1178C508.349 68.8077 508.184 68.4361 508.184 68.003C508.184 67.5645 508.349 67.1929 508.681 66.8881C509.012 66.578 509.408 66.4229 509.868 66.4229C510.333 66.4229 510.729 66.578 511.055 66.8881C511.386 67.1929 511.552 67.5645 511.552 68.003C511.552 68.4361 511.386 68.8077 511.055 69.1178C510.729 69.4226 510.333 69.575 509.868 69.575ZM520.449 71.3234V73.5692H513.367V71.3234H520.449ZM515.115 68.3719H518.019V79.9375C518.019 80.3278 518.078 80.6272 518.195 80.8358C518.318 81.039 518.479 81.178 518.676 81.2528C518.874 81.3277 519.093 81.3651 519.334 81.3651C519.516 81.3651 519.682 81.3518 519.831 81.325C519.986 81.2983 520.104 81.2742 520.184 81.2528L520.674 83.5226C520.518 83.5761 520.297 83.6349 520.008 83.6991C519.724 83.7633 519.377 83.8007 518.965 83.8114C518.238 83.8328 517.583 83.7231 517 83.4825C516.417 83.2366 515.955 82.8569 515.613 82.3436C515.276 81.8303 515.11 81.1887 515.115 80.4187V68.3719ZM522.877 83.6429V71.3234H525.781V83.6429H522.877ZM524.337 69.575C523.877 69.575 523.481 69.4226 523.15 69.1178C522.818 68.8077 522.653 68.4361 522.653 68.003C522.653 67.5645 522.818 67.1929 523.15 66.8881C523.481 66.578 523.877 66.4229 524.337 66.4229C524.802 66.4229 525.198 66.578 525.524 66.8881C525.855 67.1929 526.021 67.5645 526.021 68.003C526.021 68.4361 525.855 68.8077 525.524 69.1178C525.198 69.4226 524.802 69.575 524.337 69.575ZM534.14 83.8836C532.937 83.8836 531.894 83.6189 531.012 83.0895C530.13 82.5602 529.445 81.8196 528.959 80.8678C528.477 79.9161 528.237 78.8039 528.237 77.5313C528.237 76.2587 528.477 75.1439 528.959 74.1868C529.445 73.2297 530.13 72.4864 531.012 71.9571C531.894 71.4277 532.937 71.163 534.14 71.163C535.343 71.163 536.386 71.4277 537.268 71.9571C538.15 72.4864 538.832 73.2297 539.313 74.1868C539.8 75.1439 540.043 76.2587 540.043 77.5313C540.043 78.8039 539.8 79.9161 539.313 80.8678C538.832 81.8196 538.15 82.5602 537.268 83.0895C536.386 83.6189 535.343 83.8836 534.14 83.8836ZM534.156 81.5576C534.808 81.5576 535.354 81.3785 535.792 81.0202C536.231 80.6566 536.557 80.1701 536.771 79.5605C536.99 78.9509 537.1 78.2719 537.1 77.5233C537.1 76.7694 536.99 76.0876 536.771 75.4781C536.557 74.8632 536.231 74.3739 535.792 74.0103C535.354 73.6467 534.808 73.4649 534.156 73.4649C533.488 73.4649 532.932 73.6467 532.488 74.0103C532.049 74.3739 531.72 74.8632 531.501 75.4781C531.287 76.0876 531.18 76.7694 531.18 77.5233C531.18 78.2719 531.287 78.9509 531.501 79.5605C531.72 80.1701 532.049 80.6566 532.488 81.0202C532.932 81.3785 533.488 81.5576 534.156 81.5576ZM545.411 76.4245V83.6429H542.507V71.3234H545.282V73.4168H545.427C545.71 72.727 546.162 72.179 546.782 71.7726C547.408 71.3662 548.181 71.163 549.1 71.163C549.95 71.163 550.691 71.3448 551.322 71.7084C551.958 72.072 552.45 72.5987 552.798 73.2885C553.151 73.9782 553.324 74.815 553.319 75.7989V83.6429H550.416V76.248C550.416 75.4246 550.202 74.7803 549.774 74.3151C549.351 73.8499 548.766 73.6173 548.017 73.6173C547.509 73.6173 547.058 73.7296 546.662 73.9542C546.272 74.1734 545.964 74.4915 545.74 74.9086C545.52 75.3257 545.411 75.831 545.411 76.4245Z" fill="#B3B3B3"/>
<path d="M48.0953 113.738H734.905" stroke="#EBEBEB" stroke-width="2.50953"/>
<rect x="49.35" y="127.541" width="27.6048" height="27.6048" stroke="#B3B3B3" stroke-width="2.50953"/>
<path d="M98.8873 142.528V149.843H96.4891V133.417H98.8552V139.529H99.0076C99.2963 138.865 99.7374 138.339 100.331 137.948C100.924 137.558 101.7 137.363 102.657 137.363C103.502 137.363 104.24 137.537 104.871 137.884C105.507 138.232 105.999 138.751 106.346 139.44C106.699 140.125 106.876 140.98 106.876 142.007V149.843H104.478V142.296C104.478 141.392 104.245 140.691 103.78 140.194C103.315 139.692 102.668 139.44 101.839 139.44C101.272 139.44 100.764 139.561 100.315 139.801C99.8711 140.042 99.5209 140.395 99.2642 140.86C99.0129 141.32 98.8873 141.876 98.8873 142.528ZM115.385 150.092C114.172 150.092 113.126 149.832 112.249 149.314C111.378 148.79 110.704 148.054 110.228 147.108C109.758 146.156 109.522 145.041 109.522 143.763C109.522 142.501 109.758 141.389 110.228 140.427C110.704 139.464 111.367 138.713 112.217 138.173C113.073 137.633 114.073 137.363 115.217 137.363C115.912 137.363 116.586 137.478 117.238 137.708C117.891 137.938 118.476 138.299 118.995 138.791C119.513 139.283 119.922 139.922 120.222 140.708C120.521 141.488 120.671 142.437 120.671 143.555V144.405H110.878V142.608H118.321C118.321 141.977 118.193 141.419 117.936 140.932C117.679 140.44 117.318 140.053 116.853 139.769C116.393 139.486 115.853 139.344 115.233 139.344C114.559 139.344 113.971 139.51 113.469 139.841C112.971 140.167 112.586 140.595 112.314 141.125C112.046 141.649 111.913 142.218 111.913 142.833V144.237C111.913 145.06 112.057 145.76 112.346 146.338C112.64 146.915 113.049 147.357 113.573 147.661C114.097 147.961 114.709 148.11 115.41 148.11C115.864 148.11 116.278 148.046 116.653 147.918C117.027 147.784 117.35 147.586 117.623 147.324C117.896 147.062 118.104 146.739 118.249 146.354L120.519 146.763C120.337 147.431 120.011 148.017 119.54 148.52C119.075 149.017 118.489 149.404 117.784 149.682C117.083 149.955 116.284 150.092 115.385 150.092ZM126.917 150.116C126.136 150.116 125.43 149.971 124.8 149.682C124.169 149.388 123.669 148.963 123.3 148.407C122.936 147.851 122.754 147.169 122.754 146.362C122.754 145.667 122.888 145.095 123.155 144.646C123.423 144.196 123.784 143.841 124.238 143.579C124.693 143.317 125.201 143.119 125.762 142.985C126.323 142.852 126.896 142.75 127.478 142.681C128.216 142.595 128.815 142.526 129.275 142.472C129.735 142.413 130.069 142.32 130.278 142.191C130.486 142.063 130.59 141.854 130.59 141.566V141.51C130.59 140.809 130.392 140.266 129.997 139.881C129.606 139.496 129.024 139.304 128.248 139.304C127.441 139.304 126.805 139.483 126.339 139.841C125.88 140.194 125.561 140.587 125.385 141.02L123.131 140.507C123.399 139.758 123.789 139.154 124.302 138.694C124.821 138.229 125.417 137.892 126.091 137.684C126.765 137.47 127.473 137.363 128.216 137.363C128.708 137.363 129.23 137.422 129.78 137.539C130.336 137.652 130.855 137.86 131.336 138.165C131.823 138.47 132.221 138.906 132.531 139.472C132.841 140.034 132.996 140.764 132.996 141.662V149.843H130.654V148.159H130.558C130.403 148.469 130.171 148.773 129.86 149.073C129.55 149.372 129.152 149.621 128.665 149.819C128.179 150.017 127.596 150.116 126.917 150.116ZM127.438 148.191C128.101 148.191 128.668 148.06 129.139 147.798C129.614 147.536 129.975 147.193 130.221 146.771C130.473 146.343 130.598 145.886 130.598 145.4V143.811C130.513 143.897 130.347 143.977 130.101 144.052C129.86 144.122 129.585 144.183 129.275 144.237C128.965 144.285 128.663 144.33 128.369 144.373C128.075 144.41 127.829 144.442 127.631 144.469C127.166 144.528 126.74 144.627 126.355 144.766C125.976 144.905 125.671 145.105 125.441 145.367C125.217 145.624 125.104 145.966 125.104 146.394C125.104 146.988 125.324 147.437 125.762 147.742C126.2 148.041 126.759 148.191 127.438 148.191ZM138.589 133.417V149.843H136.191V133.417H138.589ZM147.566 137.523V139.448H140.837V137.523H147.566ZM142.641 134.572H145.039V146.226C145.039 146.691 145.109 147.041 145.248 147.276C145.387 147.506 145.566 147.664 145.785 147.75C146.01 147.83 146.253 147.87 146.515 147.87C146.708 147.87 146.876 147.856 147.02 147.83C147.165 147.803 147.277 147.782 147.357 147.766L147.79 149.747C147.651 149.8 147.453 149.854 147.197 149.907C146.94 149.966 146.619 149.998 146.234 150.003C145.603 150.014 145.015 149.902 144.47 149.666C143.924 149.431 143.483 149.068 143.146 148.576C142.81 148.084 142.641 147.466 142.641 146.723V134.572ZM152.881 142.528V149.843H150.483V133.417H152.849V139.529H153.002C153.29 138.865 153.731 138.339 154.325 137.948C154.919 137.558 155.694 137.363 156.651 137.363C157.496 137.363 158.234 137.537 158.865 137.884C159.501 138.232 159.993 138.751 160.34 139.44C160.693 140.125 160.87 140.98 160.87 142.007V149.843H158.472V142.296C158.472 141.392 158.239 140.691 157.774 140.194C157.309 139.692 156.662 139.44 155.833 139.44C155.266 139.44 154.758 139.561 154.309 139.801C153.865 140.042 153.515 140.395 153.258 140.86C153.007 141.32 152.881 141.876 152.881 142.528ZM165.145 154.463C164.786 154.463 164.46 154.433 164.166 154.374C163.872 154.321 163.653 154.262 163.508 154.198L164.086 152.233C164.524 152.351 164.915 152.401 165.257 152.385C165.599 152.369 165.901 152.241 166.163 152C166.431 151.76 166.666 151.367 166.869 150.821L167.166 150.003L162.658 137.523H165.225L168.345 147.084H168.473L171.593 137.523H174.168L169.091 151.487C168.855 152.129 168.556 152.671 168.192 153.115C167.829 153.564 167.396 153.901 166.893 154.126C166.39 154.35 165.808 154.463 165.145 154.463ZM178.82 133.417V149.843H176.421V133.417H178.82ZM182.046 149.843V137.523H184.444V149.843H182.046ZM183.257 135.623C182.84 135.623 182.482 135.484 182.182 135.205C181.888 134.922 181.741 134.585 181.741 134.195C181.741 133.799 181.888 133.462 182.182 133.184C182.482 132.901 182.84 132.759 183.257 132.759C183.674 132.759 184.03 132.901 184.324 133.184C184.623 133.462 184.773 133.799 184.773 134.195C184.773 134.585 184.623 134.922 184.324 135.205C184.03 135.484 183.674 135.623 183.257 135.623ZM193.533 137.523V139.448H186.571V137.523H193.533ZM188.48 149.843V136.096C188.48 135.326 188.649 134.687 188.986 134.179C189.322 133.666 189.769 133.283 190.325 133.032C190.881 132.775 191.485 132.647 192.138 132.647C192.619 132.647 193.031 132.687 193.373 132.767C193.715 132.842 193.969 132.912 194.135 132.976L193.573 134.917C193.461 134.885 193.317 134.847 193.14 134.804C192.964 134.756 192.75 134.732 192.499 134.732C191.916 134.732 191.499 134.877 191.247 135.165C191.001 135.454 190.878 135.871 190.878 136.417V149.843H188.48ZM200.832 150.092C199.618 150.092 198.573 149.832 197.696 149.314C196.824 148.79 196.151 148.054 195.675 147.108C195.204 146.156 194.969 145.041 194.969 143.763C194.969 142.501 195.204 141.389 195.675 140.427C196.151 139.464 196.814 138.713 197.664 138.173C198.519 137.633 199.519 137.363 200.663 137.363C201.359 137.363 202.032 137.478 202.685 137.708C203.337 137.938 203.922 138.299 204.441 138.791C204.96 139.283 205.369 139.922 205.668 140.708C205.968 141.488 206.117 142.437 206.117 143.555V144.405H196.324V142.608H203.767C203.767 141.977 203.639 141.419 203.382 140.932C203.126 140.44 202.765 140.053 202.3 139.769C201.84 139.486 201.3 139.344 200.679 139.344C200.006 139.344 199.418 139.51 198.915 139.841C198.418 140.167 198.033 140.595 197.76 141.125C197.493 141.649 197.359 142.218 197.359 142.833V144.237C197.359 145.06 197.503 145.76 197.792 146.338C198.086 146.915 198.495 147.357 199.019 147.661C199.543 147.961 200.155 148.11 200.856 148.11C201.31 148.11 201.725 148.046 202.099 147.918C202.473 147.784 202.797 147.586 203.07 147.324C203.342 147.062 203.551 146.739 203.695 146.354L205.965 146.763C205.783 147.431 205.457 148.017 204.987 148.52C204.521 149.017 203.936 149.404 203.23 149.682C202.53 149.955 201.73 150.092 200.832 150.092Z" fill="#B3B3B3"/>
<g opacity="0.4">
<rect x="309.54" y="130.677" width="198.253" height="21.331" rx="10.6655" fill="#CCCCCC"/>
<rect x="309.54" y="130.677" width="120.457" height="21.331" rx="10.6655" fill="#009966"/>
<rect x="584.333" y="130.677" width="150.572" height="21.331" rx="10.6655" fill="#CCCCCC"/>
<rect x="584.333" y="130.677" width="76.8876" height="21.331" rx="10.6655" fill="#009966"/>
</g>
<path d="M48.0953 188.093H734.905" stroke="#EBEBEB" stroke-width="2.50953"/>
<rect x="49.35" y="221.042" width="27.6048" height="27.6048" stroke="#B3B3B3" stroke-width="2.50953"/>
<path d="M101.714 248.22C100.736 248.22 99.8934 248.092 99.1876 247.835C98.4871 247.579 97.915 247.239 97.4712 246.817C97.0274 246.394 96.6959 245.932 96.4767 245.429L98.5379 244.579C98.6823 244.814 98.8748 245.063 99.1154 245.325C99.3614 245.592 99.6929 245.82 100.11 246.007C100.532 246.194 101.075 246.287 101.738 246.287C102.647 246.287 103.398 246.065 103.992 245.622C104.585 245.183 104.882 244.483 104.882 243.52V241.098H104.73C104.585 241.36 104.377 241.652 104.104 241.972C103.837 242.293 103.468 242.571 102.997 242.806C102.527 243.042 101.915 243.159 101.161 243.159C100.187 243.159 99.3106 242.932 98.5299 242.478C97.7546 242.018 97.1397 241.341 96.6852 240.448C96.236 239.55 96.0115 238.446 96.0115 237.136C96.0115 235.826 96.2334 234.703 96.6772 233.767C97.1263 232.832 97.7412 232.115 98.5219 231.618C99.3025 231.115 100.187 230.864 101.177 230.864C101.941 230.864 102.559 230.992 103.029 231.249C103.5 231.5 103.866 231.794 104.128 232.131C104.396 232.468 104.601 232.765 104.746 233.021H104.922V231.024H107.272V243.617C107.272 244.675 107.026 245.544 106.534 246.223C106.042 246.902 105.377 247.405 104.537 247.731C103.703 248.057 102.762 248.22 101.714 248.22ZM101.69 241.17C102.38 241.17 102.963 241.01 103.438 240.689C103.92 240.363 104.283 239.898 104.529 239.294C104.781 238.684 104.906 237.954 104.906 237.104C104.906 236.275 104.783 235.545 104.537 234.914C104.291 234.283 103.93 233.791 103.454 233.439C102.979 233.08 102.39 232.901 101.69 232.901C100.968 232.901 100.367 233.088 99.8854 233.463C99.4041 233.832 99.0405 234.334 98.7946 234.97C98.554 235.607 98.4337 236.318 98.4337 237.104C98.4337 237.911 98.5566 238.62 98.8026 239.229C99.0486 239.839 99.4122 240.315 99.8934 240.657C100.38 240.999 100.979 241.17 101.69 241.17ZM110.488 243.344V231.024H112.806V232.981H112.935C113.159 232.318 113.555 231.797 114.122 231.417C114.694 231.032 115.341 230.84 116.063 230.84C116.212 230.84 116.389 230.845 116.592 230.856C116.801 230.867 116.964 230.88 117.081 230.896V233.19C116.985 233.163 116.814 233.134 116.568 233.102C116.322 233.064 116.076 233.046 115.83 233.046C115.263 233.046 114.758 233.166 114.314 233.406C113.876 233.642 113.528 233.971 113.272 234.393C113.015 234.81 112.887 235.286 112.887 235.821V243.344H110.488ZM124.025 243.593C122.811 243.593 121.766 243.333 120.889 242.815C120.018 242.291 119.344 241.555 118.868 240.609C118.397 239.657 118.162 238.542 118.162 237.264C118.162 236.002 118.397 234.89 118.868 233.928C119.344 232.965 120.007 232.214 120.857 231.674C121.713 231.134 122.712 230.864 123.857 230.864C124.552 230.864 125.225 230.979 125.878 231.209C126.53 231.439 127.116 231.8 127.634 232.292C128.153 232.784 128.562 233.423 128.861 234.209C129.161 234.989 129.311 235.938 129.311 237.056V237.906H119.518V236.109H126.961C126.961 235.478 126.832 234.92 126.576 234.433C126.319 233.941 125.958 233.554 125.493 233.27C125.033 232.987 124.493 232.845 123.873 232.845C123.199 232.845 122.611 233.011 122.108 233.342C121.611 233.668 121.226 234.096 120.953 234.626C120.686 235.15 120.552 235.719 120.552 236.334V237.738C120.552 238.561 120.697 239.261 120.985 239.839C121.279 240.416 121.688 240.858 122.212 241.162C122.736 241.462 123.349 241.611 124.049 241.611C124.504 241.611 124.918 241.547 125.292 241.419C125.667 241.285 125.99 241.087 126.263 240.825C126.535 240.563 126.744 240.24 126.888 239.855L129.158 240.264C128.976 240.932 128.65 241.518 128.18 242.02C127.715 242.518 127.129 242.905 126.423 243.183C125.723 243.456 124.923 243.593 124.025 243.593ZM137.281 243.593C136.067 243.593 135.022 243.333 134.145 242.815C133.273 242.291 132.6 241.555 132.124 240.609C131.653 239.657 131.418 238.542 131.418 237.264C131.418 236.002 131.653 234.89 132.124 233.928C132.6 232.965 133.263 232.214 134.113 231.674C134.968 231.134 135.968 230.864 137.113 230.864C137.808 230.864 138.481 230.979 139.134 231.209C139.786 231.439 140.372 231.8 140.89 232.292C141.409 232.784 141.818 233.423 142.117 234.209C142.417 234.989 142.566 235.938 142.566 237.056V237.906H132.773V236.109H140.216C140.216 235.478 140.088 234.92 139.831 234.433C139.575 233.941 139.214 233.554 138.749 233.27C138.289 232.987 137.749 232.845 137.129 232.845C136.455 232.845 135.867 233.011 135.364 233.342C134.867 233.668 134.482 234.096 134.209 234.626C133.942 235.15 133.808 235.719 133.808 236.334V237.738C133.808 238.561 133.952 239.261 134.241 239.839C134.535 240.416 134.944 240.858 135.468 241.162C135.992 241.462 136.605 241.611 137.305 241.611C137.76 241.611 138.174 241.547 138.548 241.419C138.922 241.285 139.246 241.087 139.519 240.825C139.791 240.563 140 240.24 140.144 239.855L142.414 240.264C142.232 240.932 141.906 241.518 141.436 242.02C140.97 242.518 140.385 242.905 139.679 243.183C138.979 243.456 138.179 243.593 137.281 243.593ZM147.625 236.029V243.344H145.227V231.024H147.529V233.03H147.682C147.965 232.377 148.409 231.853 149.013 231.457C149.623 231.062 150.39 230.864 151.315 230.864C152.154 230.864 152.89 231.04 153.52 231.393C154.151 231.741 154.641 232.26 154.988 232.949C155.336 233.639 155.51 234.492 155.51 235.508V243.344H153.111V235.797C153.111 234.904 152.879 234.206 152.414 233.703C151.948 233.195 151.309 232.941 150.497 232.941C149.941 232.941 149.446 233.062 149.013 233.302C148.585 233.543 148.246 233.896 147.994 234.361C147.748 234.821 147.625 235.377 147.625 236.029ZM161.124 236.029V243.344H158.726V226.918H161.092V233.03H161.244C161.533 232.366 161.974 231.84 162.568 231.449C163.161 231.059 163.936 230.864 164.894 230.864C165.738 230.864 166.476 231.038 167.107 231.385C167.744 231.733 168.235 232.252 168.583 232.941C168.936 233.626 169.112 234.481 169.112 235.508V243.344H166.714V235.797C166.714 234.893 166.482 234.192 166.016 233.695C165.551 233.193 164.904 232.941 164.075 232.941C163.509 232.941 163.001 233.062 162.552 233.302C162.108 233.543 161.758 233.896 161.501 234.361C161.25 234.821 161.124 235.377 161.124 236.029ZM177.502 243.593C176.347 243.593 175.339 243.328 174.478 242.798C173.617 242.269 172.949 241.529 172.473 240.577C171.997 239.625 171.759 238.513 171.759 237.24C171.759 235.962 171.997 234.845 172.473 233.888C172.949 232.931 173.617 232.187 174.478 231.658C175.339 231.129 176.347 230.864 177.502 230.864C178.657 230.864 179.665 231.129 180.526 231.658C181.386 232.187 182.055 232.931 182.531 233.888C183.007 234.845 183.244 235.962 183.244 237.24C183.244 238.513 183.007 239.625 182.531 240.577C182.055 241.529 181.386 242.269 180.526 242.798C179.665 243.328 178.657 243.593 177.502 243.593ZM177.51 241.579C178.258 241.579 178.879 241.382 179.371 240.986C179.862 240.59 180.226 240.063 180.461 239.406C180.702 238.748 180.822 238.024 180.822 237.232C180.822 236.446 180.702 235.724 180.461 235.067C180.226 234.404 179.862 233.872 179.371 233.471C178.879 233.07 178.258 232.869 177.51 232.869C176.756 232.869 176.13 233.07 175.633 233.471C175.141 233.872 174.775 234.404 174.534 235.067C174.299 235.724 174.181 236.446 174.181 237.232C174.181 238.024 174.299 238.748 174.534 239.406C174.775 240.063 175.141 240.59 175.633 240.986C176.13 241.382 176.756 241.579 177.51 241.579ZM193.725 238.235V231.024H196.131V243.344H193.773V241.21H193.645C193.362 241.868 192.907 242.416 192.282 242.855C191.661 243.288 190.889 243.504 189.964 243.504C189.172 243.504 188.472 243.331 187.862 242.983C187.258 242.63 186.782 242.109 186.435 241.419C186.092 240.729 185.921 239.876 185.921 238.86V231.024H188.319V238.572C188.319 239.411 188.552 240.08 189.017 240.577C189.482 241.074 190.087 241.323 190.83 241.323C191.279 241.323 191.725 241.21 192.169 240.986C192.618 240.761 192.99 240.422 193.284 239.967C193.584 239.513 193.731 238.935 193.725 238.235ZM208.585 234.032L206.412 234.417C206.321 234.139 206.176 233.874 205.979 233.623C205.786 233.372 205.524 233.166 205.193 233.005C204.861 232.845 204.447 232.765 203.949 232.765C203.27 232.765 202.704 232.917 202.249 233.222C201.795 233.521 201.567 233.909 201.567 234.385C201.567 234.797 201.72 235.128 202.024 235.38C202.329 235.631 202.821 235.837 203.5 235.997L205.457 236.446C206.591 236.708 207.436 237.112 207.992 237.657C208.548 238.203 208.826 238.911 208.826 239.783C208.826 240.521 208.612 241.178 208.184 241.756C207.762 242.328 207.171 242.777 206.412 243.103C205.658 243.429 204.784 243.593 203.789 243.593C202.409 243.593 201.284 243.298 200.412 242.71C199.541 242.117 199.006 241.275 198.808 240.184L201.126 239.831C201.271 240.435 201.567 240.892 202.016 241.202C202.466 241.507 203.051 241.66 203.773 241.66C204.559 241.66 205.187 241.496 205.658 241.17C206.128 240.839 206.364 240.435 206.364 239.959C206.364 239.574 206.219 239.251 205.93 238.989C205.647 238.727 205.211 238.529 204.623 238.395L202.538 237.938C201.388 237.676 200.538 237.259 199.987 236.687C199.442 236.115 199.169 235.39 199.169 234.513C199.169 233.786 199.372 233.15 199.779 232.604C200.185 232.059 200.747 231.634 201.463 231.329C202.18 231.019 203 230.864 203.925 230.864C205.257 230.864 206.305 231.153 207.069 231.73C207.834 232.302 208.339 233.07 208.585 234.032ZM216.772 243.593C215.558 243.593 214.513 243.333 213.636 242.815C212.765 242.291 212.091 241.555 211.615 240.609C211.144 239.657 210.909 238.542 210.909 237.264C210.909 236.002 211.144 234.89 211.615 233.928C212.091 232.965 212.754 232.214 213.604 231.674C214.46 231.134 215.46 230.864 216.604 230.864C217.299 230.864 217.973 230.979 218.625 231.209C219.277 231.439 219.863 231.8 220.381 232.292C220.9 232.784 221.309 233.423 221.609 234.209C221.908 234.989 222.058 235.938 222.058 237.056V237.906H212.265V236.109H219.708C219.708 235.478 219.579 234.92 219.323 234.433C219.066 233.941 218.705 233.554 218.24 233.27C217.78 232.987 217.24 232.845 216.62 232.845C215.946 232.845 215.358 233.011 214.855 233.342C214.358 233.668 213.973 234.096 213.7 234.626C213.433 235.15 213.299 235.719 213.299 236.334V237.738C213.299 238.561 213.444 239.261 213.732 239.839C214.027 240.416 214.436 240.858 214.96 241.162C215.484 241.462 216.096 241.611 216.796 241.611C217.251 241.611 217.665 241.547 218.039 241.419C218.414 241.285 218.737 241.087 219.01 240.825C219.283 240.563 219.491 240.24 219.636 239.855L221.905 240.264C221.724 240.932 221.397 241.518 220.927 242.02C220.462 242.518 219.876 242.905 219.17 243.183C218.47 243.456 217.67 243.593 216.772 243.593Z" fill="#B3B3B3"/>
<g opacity="0.4">
<rect x="309.54" y="224.178" width="198.253" height="21.331" rx="10.6655" fill="#CCCCCC"/>
<rect x="309.54" y="224.178" width="120.457" height="21.331" rx="10.6655" fill="#009966"/>
<rect x="584.333" y="224.178" width="150.572" height="21.331" rx="10.6655" fill="#CCCCCC"/>
<rect x="584.333" y="224.178" width="76.8876" height="21.331" rx="10.6655" fill="#009966"/>
</g>
<path d="M48.0953 281.594H734.905" stroke="#EBEBEB" stroke-width="2.50953"/>
<rect x="49.35" y="314.542" width="27.6048" height="27.6048" stroke="#B3B3B3" stroke-width="2.50953"/>
<path d="M99.7357 336.845L95.1801 320.419H97.7868L100.987 333.139H101.139L104.468 320.419H107.05L110.379 333.147H110.531L113.723 320.419H116.338L111.775 336.845H109.28L105.823 324.541H105.695L102.238 336.845H99.7357ZM122.382 337.093C121.227 337.093 120.219 336.829 119.358 336.299C118.497 335.77 117.829 335.029 117.353 334.078C116.877 333.126 116.639 332.014 116.639 330.741C116.639 329.463 116.877 328.346 117.353 327.389C117.829 326.431 118.497 325.688 119.358 325.159C120.219 324.629 121.227 324.365 122.382 324.365C123.537 324.365 124.544 324.629 125.405 325.159C126.266 325.688 126.935 326.431 127.41 327.389C127.886 328.346 128.124 329.463 128.124 330.741C128.124 332.014 127.886 333.126 127.41 334.078C126.935 335.029 126.266 335.77 125.405 336.299C124.544 336.829 123.537 337.093 122.382 337.093ZM122.39 335.08C123.138 335.08 123.758 334.882 124.25 334.487C124.742 334.091 125.106 333.564 125.341 332.907C125.582 332.249 125.702 331.524 125.702 330.733C125.702 329.947 125.582 329.225 125.341 328.568C125.106 327.905 124.742 327.373 124.25 326.971C123.758 326.57 123.138 326.37 122.39 326.37C121.636 326.37 121.01 326.57 120.513 326.971C120.021 327.373 119.655 327.905 119.414 328.568C119.179 329.225 119.061 329.947 119.061 330.733C119.061 331.524 119.179 332.249 119.414 332.907C119.655 333.564 120.021 334.091 120.513 334.487C121.01 334.882 121.636 335.08 122.39 335.08ZM130.801 336.845V324.525H133.103V326.53H133.255C133.512 325.851 133.932 325.322 134.515 324.942C135.097 324.557 135.795 324.365 136.608 324.365C137.431 324.365 138.121 324.557 138.677 324.942C139.239 325.327 139.653 325.857 139.92 326.53H140.049C140.343 325.873 140.811 325.349 141.452 324.958C142.094 324.563 142.859 324.365 143.746 324.365C144.864 324.365 145.775 324.715 146.481 325.416C147.192 326.116 147.548 327.172 147.548 328.584V336.845H145.15V328.808C145.15 327.974 144.923 327.37 144.468 326.996C144.014 326.621 143.471 326.434 142.84 326.434C142.059 326.434 141.452 326.675 141.019 327.156C140.586 327.632 140.37 328.244 140.37 328.993V336.845H137.98V328.656C137.98 327.987 137.771 327.45 137.354 327.044C136.937 326.637 136.394 326.434 135.726 326.434C135.271 326.434 134.852 326.554 134.467 326.795C134.087 327.03 133.779 327.359 133.544 327.782C133.314 328.204 133.199 328.693 133.199 329.249V336.845H130.801ZM156.072 337.093C154.858 337.093 153.813 336.834 152.936 336.315C152.064 335.791 151.39 335.056 150.915 334.11C150.444 333.158 150.209 332.043 150.209 330.765C150.209 329.503 150.444 328.391 150.915 327.429C151.39 326.466 152.053 325.715 152.904 325.175C153.759 324.635 154.759 324.365 155.903 324.365C156.598 324.365 157.272 324.48 157.924 324.71C158.577 324.94 159.162 325.301 159.681 325.792C160.2 326.284 160.609 326.923 160.908 327.709C161.208 328.49 161.357 329.439 161.357 330.557V331.407H151.564V329.61H159.007C159.007 328.979 158.879 328.421 158.622 327.934C158.366 327.442 158.005 327.054 157.54 326.771C157.08 326.488 156.54 326.346 155.919 326.346C155.246 326.346 154.657 326.512 154.155 326.843C153.658 327.169 153.273 327.597 153 328.126C152.733 328.65 152.599 329.22 152.599 329.835V331.238C152.599 332.062 152.743 332.762 153.032 333.34C153.326 333.917 153.735 334.358 154.259 334.663C154.783 334.963 155.395 335.112 156.096 335.112C156.55 335.112 156.965 335.048 157.339 334.92C157.713 334.786 158.037 334.588 158.309 334.326C158.582 334.064 158.791 333.741 158.935 333.356L161.205 333.765C161.023 334.433 160.697 335.019 160.226 335.521C159.761 336.019 159.176 336.406 158.47 336.684C157.769 336.957 156.97 337.093 156.072 337.093ZM166.416 329.53V336.845H164.018V324.525H166.32V326.53H166.472C166.756 325.878 167.2 325.354 167.804 324.958C168.413 324.563 169.181 324.365 170.106 324.365C170.945 324.365 171.68 324.541 172.311 324.894C172.942 325.242 173.431 325.76 173.779 326.45C174.127 327.14 174.3 327.993 174.3 329.009V336.845H171.902V329.297C171.902 328.404 171.67 327.707 171.204 327.204C170.739 326.696 170.1 326.442 169.288 326.442C168.731 326.442 168.237 326.562 167.804 326.803C167.376 327.044 167.036 327.397 166.785 327.862C166.539 328.322 166.416 328.878 166.416 329.53ZM186.748 327.533L184.575 327.918C184.484 327.64 184.339 327.375 184.142 327.124C183.949 326.873 183.687 326.667 183.356 326.506C183.024 326.346 182.61 326.266 182.112 326.266C181.433 326.266 180.866 326.418 180.412 326.723C179.957 327.022 179.73 327.41 179.73 327.886C179.73 328.298 179.883 328.629 180.187 328.88C180.492 329.132 180.984 329.338 181.663 329.498L183.62 329.947C184.754 330.209 185.599 330.613 186.155 331.158C186.711 331.704 186.989 332.412 186.989 333.284C186.989 334.022 186.775 334.679 186.347 335.257C185.925 335.829 185.334 336.278 184.575 336.604C183.821 336.93 182.946 337.093 181.952 337.093C180.572 337.093 179.447 336.799 178.575 336.211C177.704 335.618 177.169 334.775 176.971 333.685L179.289 333.332C179.433 333.936 179.73 334.393 180.179 334.703C180.629 335.008 181.214 335.16 181.936 335.16C182.722 335.16 183.35 334.997 183.821 334.671C184.291 334.34 184.526 333.936 184.526 333.46C184.526 333.075 184.382 332.752 184.093 332.49C183.81 332.228 183.374 332.03 182.786 331.896L180.701 331.439C179.551 331.177 178.701 330.76 178.15 330.188C177.605 329.616 177.332 328.891 177.332 328.014C177.332 327.287 177.535 326.651 177.942 326.105C178.348 325.56 178.909 325.135 179.626 324.83C180.342 324.52 181.163 324.365 182.088 324.365C183.42 324.365 184.468 324.654 185.232 325.231C185.997 325.803 186.502 326.57 186.748 327.533ZM195.376 324.525V326.45H188.647V324.525H195.376ZM190.452 321.574H192.85V333.227C192.85 333.693 192.919 334.043 193.058 334.278C193.197 334.508 193.376 334.666 193.596 334.751C193.82 334.832 194.064 334.872 194.326 334.872C194.518 334.872 194.686 334.858 194.831 334.832C194.975 334.805 195.088 334.783 195.168 334.767L195.601 336.748C195.462 336.802 195.264 336.855 195.007 336.909C194.751 336.968 194.43 337 194.045 337.005C193.414 337.016 192.826 336.904 192.28 336.668C191.735 336.433 191.294 336.069 190.957 335.577C190.62 335.086 190.452 334.468 190.452 333.725V321.574ZM198.029 336.845V324.525H200.347V326.482H200.475C200.7 325.819 201.096 325.298 201.662 324.918C202.234 324.533 202.881 324.341 203.603 324.341C203.753 324.341 203.929 324.346 204.133 324.357C204.341 324.367 204.504 324.381 204.622 324.397V326.691C204.526 326.664 204.355 326.635 204.109 326.603C203.863 326.565 203.617 326.546 203.371 326.546C202.804 326.546 202.299 326.667 201.855 326.907C201.416 327.143 201.069 327.471 200.812 327.894C200.555 328.311 200.427 328.787 200.427 329.321V336.845H198.029ZM211.566 337.093C210.352 337.093 209.307 336.834 208.43 336.315C207.558 335.791 206.884 335.056 206.408 334.11C205.938 333.158 205.703 332.043 205.703 330.765C205.703 329.503 205.938 328.391 206.408 327.429C206.884 326.466 207.547 325.715 208.398 325.175C209.253 324.635 210.253 324.365 211.397 324.365C212.092 324.365 212.766 324.48 213.418 324.71C214.071 324.94 214.656 325.301 215.175 325.792C215.694 326.284 216.103 326.923 216.402 327.709C216.701 328.49 216.851 329.439 216.851 330.557V331.407H207.058V329.61H214.501C214.501 328.979 214.373 328.421 214.116 327.934C213.859 327.442 213.499 327.054 213.033 326.771C212.574 326.488 212.033 326.346 211.413 326.346C210.74 326.346 210.151 326.512 209.649 326.843C209.151 327.169 208.766 327.597 208.494 328.126C208.226 328.65 208.093 329.22 208.093 329.835V331.238C208.093 332.062 208.237 332.762 208.526 333.34C208.82 333.917 209.229 334.358 209.753 334.663C210.277 334.963 210.889 335.112 211.59 335.112C212.044 335.112 212.459 335.048 212.833 334.92C213.207 334.786 213.531 334.588 213.803 334.326C214.076 334.064 214.285 333.741 214.429 333.356L216.699 333.765C216.517 334.433 216.191 335.019 215.72 335.521C215.255 336.019 214.67 336.406 213.964 336.684C213.263 336.957 212.464 337.093 211.566 337.093ZM221.91 329.53V336.845H219.512V324.525H221.814V326.53H221.966C222.25 325.878 222.693 325.354 223.298 324.958C223.907 324.563 224.674 324.365 225.6 324.365C226.439 324.365 227.174 324.541 227.805 324.894C228.436 325.242 228.925 325.76 229.273 326.45C229.62 327.14 229.794 327.993 229.794 329.009V336.845H227.396V329.297C227.396 328.404 227.164 327.707 226.698 327.204C226.233 326.696 225.594 326.442 224.781 326.442C224.225 326.442 223.731 326.562 223.298 326.803C222.87 327.044 222.53 327.397 222.279 327.862C222.033 328.322 221.91 328.878 221.91 329.53ZM238.176 341.721C237.197 341.721 236.355 341.593 235.649 341.336C234.949 341.08 234.377 340.74 233.933 340.318C233.489 339.895 233.158 339.433 232.938 338.93L235 338.08C235.144 338.315 235.336 338.564 235.577 338.826C235.823 339.093 236.155 339.32 236.572 339.508C236.994 339.695 237.537 339.788 238.2 339.788C239.109 339.788 239.86 339.566 240.453 339.123C241.047 338.684 241.344 337.984 241.344 337.021V334.599H241.191C241.047 334.861 240.838 335.152 240.566 335.473C240.298 335.794 239.929 336.072 239.459 336.307C238.988 336.543 238.376 336.66 237.622 336.66C236.649 336.66 235.772 336.433 234.992 335.979C234.216 335.519 233.601 334.842 233.147 333.949C232.698 333.051 232.473 331.947 232.473 330.637C232.473 329.327 232.695 328.204 233.139 327.268C233.588 326.333 234.203 325.616 234.984 325.119C235.764 324.616 236.649 324.365 237.638 324.365C238.403 324.365 239.02 324.493 239.491 324.75C239.962 325.001 240.328 325.295 240.59 325.632C240.857 325.969 241.063 326.266 241.207 326.522H241.384V324.525H243.734V337.117C243.734 338.176 243.488 339.045 242.996 339.724C242.504 340.403 241.838 340.906 240.999 341.232C240.165 341.558 239.224 341.721 238.176 341.721ZM238.152 334.671C238.841 334.671 239.424 334.511 239.9 334.19C240.381 333.864 240.745 333.399 240.991 332.794C241.242 332.185 241.368 331.455 241.368 330.605C241.368 329.776 241.245 329.046 240.999 328.415C240.753 327.784 240.392 327.292 239.916 326.939C239.44 326.581 238.852 326.402 238.152 326.402C237.43 326.402 236.828 326.589 236.347 326.963C235.866 327.332 235.502 327.835 235.256 328.471C235.016 329.108 234.895 329.819 234.895 330.605C234.895 331.412 235.018 332.121 235.264 332.73C235.51 333.34 235.874 333.816 236.355 334.158C236.842 334.5 237.44 334.671 238.152 334.671ZM249.348 329.53V336.845H246.95V320.419H249.316V326.53H249.469C249.757 325.867 250.198 325.341 250.792 324.95C251.385 324.56 252.161 324.365 253.118 324.365C253.963 324.365 254.701 324.539 255.332 324.886C255.968 325.234 256.46 325.752 256.807 326.442C257.16 327.127 257.337 327.982 257.337 329.009V336.845H254.939V329.297C254.939 328.394 254.706 327.693 254.241 327.196C253.776 326.693 253.129 326.442 252.3 326.442C251.733 326.442 251.225 326.562 250.776 326.803C250.332 327.044 249.982 327.397 249.725 327.862C249.474 328.322 249.348 328.878 249.348 329.53ZM266.288 324.525V326.45H259.558V324.525H266.288ZM261.363 321.574H263.761V333.227C263.761 333.693 263.831 334.043 263.97 334.278C264.109 334.508 264.288 334.666 264.507 334.751C264.732 334.832 264.975 334.872 265.237 334.872C265.429 334.872 265.598 334.858 265.742 334.832C265.887 334.805 265.999 334.783 266.079 334.767L266.512 336.748C266.373 336.802 266.175 336.855 265.919 336.909C265.662 336.968 265.341 337 264.956 337.005C264.325 337.016 263.737 336.904 263.192 336.668C262.646 336.433 262.205 336.069 261.868 335.577C261.531 335.086 261.363 334.468 261.363 333.725V321.574Z" fill="#B3B3B3"/>
<g opacity="0.4">
<rect x="309.54" y="317.679" width="198.253" height="21.331" rx="10.6655" fill="#CCCCCC"/>
<rect x="309.54" y="317.679" width="120.457" height="21.331" rx="10.6655" fill="#009966"/>
<rect x="584.333" y="317.679" width="150.572" height="21.331" rx="10.6655" fill="#CCCCCC"/>
<rect x="584.333" y="317.679" width="76.8876" height="21.331" rx="10.6655" fill="#009966"/>
</g>
<path d="M48.0953 375.095H734.905" stroke="#EBEBEB" stroke-width="2.50953"/>
<rect x="49.35" y="408.043" width="27.6048" height="27.6048" fill="#009966" stroke="#009966" stroke-width="2.50953"/>
<path d="M56.8786 422.85L60.8221 426.865L70.681 416.827" stroke="white" stroke-width="3.76429" stroke-linecap="round"/>
<path d="M101.422 435.222C100.443 435.222 99.601 435.094 98.8952 434.837C98.1948 434.581 97.6226 434.241 97.1788 433.819C96.735 433.396 96.4035 432.934 96.1843 432.431L98.2455 431.581C98.3899 431.816 98.5824 432.065 98.823 432.327C99.069 432.594 99.4005 432.821 99.8176 433.009C100.24 433.196 100.783 433.289 101.446 433.289C102.355 433.289 103.106 433.067 103.699 432.624C104.293 432.185 104.59 431.485 104.59 430.522V428.1H104.437C104.293 428.362 104.084 428.653 103.812 428.974C103.544 429.295 103.175 429.573 102.705 429.808C102.234 430.044 101.622 430.161 100.868 430.161C99.8951 430.161 99.0182 429.934 98.2375 429.479C97.4622 429.02 96.8473 428.343 96.3928 427.45C95.9437 426.552 95.7191 425.448 95.7191 424.138C95.7191 422.828 95.941 421.705 96.3848 420.769C96.8339 419.833 97.4488 419.117 98.2295 418.62C99.0102 418.117 99.8951 417.866 100.884 417.866C101.649 417.866 102.266 417.994 102.737 418.251C103.208 418.502 103.574 418.796 103.836 419.133C104.103 419.47 104.309 419.767 104.453 420.023H104.63V418.026H106.98V430.618C106.98 431.677 106.734 432.546 106.242 433.225C105.75 433.904 105.084 434.407 104.245 434.733C103.411 435.059 102.47 435.222 101.422 435.222ZM101.398 428.172C102.087 428.172 102.67 428.012 103.146 427.691C103.627 427.365 103.991 426.9 104.237 426.295C104.488 425.686 104.614 424.956 104.614 424.106C104.614 423.277 104.491 422.547 104.245 421.916C103.999 421.285 103.638 420.793 103.162 420.44C102.686 420.082 102.098 419.903 101.398 419.903C100.676 419.903 100.074 420.09 99.593 420.464C99.1118 420.833 98.7482 421.336 98.5022 421.972C98.2616 422.609 98.1413 423.32 98.1413 424.106C98.1413 424.913 98.2643 425.622 98.5102 426.231C98.7562 426.841 99.1198 427.317 99.601 427.659C100.088 428.001 100.686 428.172 101.398 428.172ZM115.385 430.594C114.23 430.594 113.223 430.33 112.362 429.8C111.501 429.271 110.832 428.53 110.357 427.579C109.881 426.627 109.643 425.515 109.643 424.242C109.643 422.964 109.881 421.847 110.357 420.89C110.832 419.932 111.501 419.189 112.362 418.66C113.223 418.13 114.23 417.866 115.385 417.866C116.54 417.866 117.548 418.13 118.409 418.66C119.27 419.189 119.938 419.932 120.414 420.89C120.89 421.847 121.128 422.964 121.128 424.242C121.128 425.515 120.89 426.627 120.414 427.579C119.938 428.53 119.27 429.271 118.409 429.8C117.548 430.33 116.54 430.594 115.385 430.594ZM115.393 428.581C116.142 428.581 116.762 428.383 117.254 427.988C117.746 427.592 118.11 427.065 118.345 426.408C118.586 425.75 118.706 425.025 118.706 424.234C118.706 423.448 118.586 422.726 118.345 422.069C118.11 421.406 117.746 420.873 117.254 420.472C116.762 420.071 116.142 419.871 115.393 419.871C114.639 419.871 114.014 420.071 113.517 420.472C113.025 420.873 112.658 421.406 112.418 422.069C112.183 422.726 112.065 423.448 112.065 424.234C112.065 425.025 112.183 425.75 112.418 426.408C112.658 427.065 113.025 427.592 113.517 427.988C114.014 428.383 114.639 428.581 115.393 428.581ZM128.994 430.594C127.839 430.594 126.831 430.33 125.97 429.8C125.11 429.271 124.441 428.53 123.965 427.579C123.489 426.627 123.251 425.515 123.251 424.242C123.251 422.964 123.489 421.847 123.965 420.89C124.441 419.932 125.11 419.189 125.97 418.66C126.831 418.13 127.839 417.866 128.994 417.866C130.149 417.866 131.157 418.13 132.018 418.66C132.879 419.189 133.547 419.932 134.023 420.89C134.499 421.847 134.737 422.964 134.737 424.242C134.737 425.515 134.499 426.627 134.023 427.579C133.547 428.53 132.879 429.271 132.018 429.8C131.157 430.33 130.149 430.594 128.994 430.594ZM129.002 428.581C129.751 428.581 130.371 428.383 130.863 427.988C131.355 427.592 131.718 427.065 131.954 426.408C132.194 425.75 132.315 425.025 132.315 424.234C132.315 423.448 132.194 422.726 131.954 422.069C131.718 421.406 131.355 420.873 130.863 420.472C130.371 420.071 129.751 419.871 129.002 419.871C128.248 419.871 127.623 420.071 127.125 420.472C126.633 420.873 126.267 421.406 126.027 422.069C125.791 422.726 125.674 423.448 125.674 424.234C125.674 425.025 125.791 425.75 126.027 426.408C126.267 427.065 126.633 427.592 127.125 427.988C127.623 428.383 128.248 428.581 129.002 428.581ZM142.025 430.586C141.031 430.586 140.143 430.332 139.363 429.824C138.587 429.311 137.978 428.581 137.534 427.635C137.096 426.683 136.876 425.541 136.876 424.21C136.876 422.879 137.098 421.74 137.542 420.793C137.991 419.847 138.606 419.122 139.387 418.62C140.167 418.117 141.052 417.866 142.042 417.866C142.806 417.866 143.421 417.994 143.886 418.251C144.357 418.502 144.72 418.796 144.977 419.133C145.239 419.47 145.442 419.767 145.587 420.023H145.731V413.92H148.129V430.346H145.787V428.429H145.587C145.442 428.691 145.234 428.99 144.961 429.327C144.694 429.664 144.325 429.958 143.854 430.209C143.384 430.461 142.774 430.586 142.025 430.586ZM142.555 428.541C143.245 428.541 143.827 428.359 144.303 427.996C144.785 427.627 145.148 427.116 145.394 426.464C145.645 425.811 145.771 425.052 145.771 424.186C145.771 423.33 145.648 422.582 145.402 421.94C145.156 421.299 144.795 420.799 144.319 420.44C143.843 420.082 143.255 419.903 142.555 419.903C141.833 419.903 141.231 420.09 140.75 420.464C140.269 420.839 139.905 421.349 139.659 421.996C139.419 422.643 139.298 423.373 139.298 424.186C139.298 425.009 139.421 425.75 139.667 426.408C139.913 427.065 140.277 427.587 140.758 427.972C141.245 428.351 141.844 428.541 142.555 428.541ZM156.741 430.594C155.549 430.594 154.522 430.324 153.661 429.784C152.806 429.239 152.148 428.488 151.688 427.531C151.228 426.573 150.998 425.477 150.998 424.242C150.998 422.991 151.234 421.887 151.704 420.93C152.175 419.967 152.838 419.216 153.693 418.676C154.549 418.136 155.557 417.866 156.717 417.866C157.653 417.866 158.487 418.04 159.219 418.387C159.952 418.729 160.543 419.211 160.992 419.831C161.446 420.451 161.716 421.176 161.802 422.004H159.468C159.34 421.427 159.046 420.93 158.586 420.513C158.131 420.095 157.522 419.887 156.757 419.887C156.089 419.887 155.503 420.063 155.001 420.416C154.503 420.764 154.116 421.261 153.838 421.908C153.56 422.55 153.421 423.309 153.421 424.186C153.421 425.084 153.557 425.86 153.83 426.512C154.102 427.164 154.487 427.67 154.985 428.028C155.487 428.386 156.078 428.565 156.757 428.565C157.212 428.565 157.623 428.482 157.992 428.317C158.367 428.145 158.679 427.902 158.931 427.587C159.187 427.271 159.366 426.892 159.468 426.448H161.802C161.716 427.244 161.457 427.956 161.024 428.581C160.591 429.207 160.011 429.699 159.284 430.057C158.562 430.415 157.714 430.594 156.741 430.594ZM166.765 423.031V430.346H164.367V413.92H166.733V420.031H166.885C167.174 419.368 167.615 418.842 168.208 418.451C168.802 418.061 169.577 417.866 170.534 417.866C171.379 417.866 172.117 418.04 172.748 418.387C173.384 418.735 173.876 419.253 174.224 419.943C174.577 420.628 174.753 421.483 174.753 422.51V430.346H172.355V422.798C172.355 421.895 172.122 421.194 171.657 420.697C171.192 420.194 170.545 419.943 169.716 419.943C169.149 419.943 168.642 420.063 168.192 420.304C167.749 420.545 167.398 420.898 167.142 421.363C166.89 421.823 166.765 422.379 166.765 423.031ZM181.538 430.618C180.758 430.618 180.052 430.474 179.421 430.185C178.79 429.891 178.29 429.466 177.921 428.91C177.558 428.354 177.376 427.672 177.376 426.865C177.376 426.17 177.51 425.598 177.777 425.148C178.044 424.699 178.405 424.344 178.86 424.082C179.314 423.82 179.822 423.622 180.384 423.488C180.945 423.354 181.517 423.253 182.1 423.183C182.838 423.098 183.437 423.028 183.897 422.975C184.356 422.916 184.691 422.822 184.899 422.694C185.108 422.566 185.212 422.357 185.212 422.069V422.012C185.212 421.312 185.014 420.769 184.618 420.384C184.228 419.999 183.645 419.807 182.87 419.807C182.062 419.807 181.426 419.986 180.961 420.344C180.501 420.697 180.183 421.09 180.007 421.523L177.753 421.01C178.02 420.261 178.41 419.657 178.924 419.197C179.442 418.732 180.039 418.395 180.712 418.187C181.386 417.973 182.095 417.866 182.838 417.866C183.33 417.866 183.851 417.925 184.402 418.042C184.958 418.155 185.477 418.363 185.958 418.668C186.444 418.973 186.843 419.408 187.153 419.975C187.463 420.537 187.618 421.266 187.618 422.165V430.346H185.276V428.661H185.18C185.025 428.972 184.792 429.276 184.482 429.576C184.172 429.875 183.774 430.124 183.287 430.322C182.8 430.519 182.218 430.618 181.538 430.618ZM182.06 428.693C182.723 428.693 183.29 428.562 183.76 428.3C184.236 428.038 184.597 427.696 184.843 427.274C185.094 426.846 185.22 426.389 185.22 425.902V424.314C185.134 424.4 184.969 424.48 184.723 424.555C184.482 424.624 184.207 424.686 183.897 424.739C183.586 424.787 183.284 424.833 182.99 424.876C182.696 424.913 182.45 424.945 182.252 424.972C181.787 425.031 181.362 425.13 180.977 425.269C180.597 425.408 180.293 425.608 180.063 425.87C179.838 426.127 179.726 426.469 179.726 426.897C179.726 427.49 179.945 427.94 180.384 428.244C180.822 428.544 181.381 428.693 182.06 428.693ZM193.21 413.92V430.346H190.812V413.92H193.21ZM198.835 413.92V430.346H196.437V413.92H198.835ZM207.371 430.594C206.157 430.594 205.111 430.335 204.235 429.816C203.363 429.292 202.689 428.557 202.213 427.611C201.743 426.659 201.508 425.544 201.508 424.266C201.508 423.004 201.743 421.892 202.213 420.93C202.689 419.967 203.352 419.216 204.202 418.676C205.058 418.136 206.058 417.866 207.202 417.866C207.897 417.866 208.571 417.981 209.223 418.211C209.876 418.441 210.461 418.802 210.98 419.293C211.498 419.785 211.907 420.424 212.207 421.21C212.506 421.991 212.656 422.94 212.656 424.058V424.908H202.863V423.111H210.306C210.306 422.48 210.178 421.921 209.921 421.435C209.664 420.943 209.303 420.555 208.838 420.272C208.378 419.989 207.838 419.847 207.218 419.847C206.544 419.847 205.956 420.013 205.454 420.344C204.956 420.67 204.571 421.098 204.299 421.627C204.031 422.151 203.898 422.721 203.898 423.336V424.739C203.898 425.563 204.042 426.263 204.331 426.841C204.625 427.418 205.034 427.859 205.558 428.164C206.082 428.464 206.694 428.613 207.395 428.613C207.849 428.613 208.263 428.549 208.638 428.421C209.012 428.287 209.336 428.089 209.608 427.827C209.881 427.565 210.089 427.242 210.234 426.857L212.504 427.266C212.322 427.934 211.996 428.52 211.525 429.022C211.06 429.52 210.474 429.907 209.769 430.185C209.068 430.458 208.269 430.594 207.371 430.594ZM217.715 423.031V430.346H215.317V418.026H217.619V420.031H217.771C218.055 419.379 218.498 418.855 219.103 418.459C219.712 418.064 220.479 417.866 221.404 417.866C222.244 417.866 222.979 418.042 223.61 418.395C224.241 418.743 224.73 419.261 225.078 419.951C225.425 420.641 225.599 421.494 225.599 422.51V430.346H223.201V422.798C223.201 421.905 222.968 421.208 222.503 420.705C222.038 420.197 221.399 419.943 220.586 419.943C220.03 419.943 219.536 420.063 219.103 420.304C218.675 420.545 218.335 420.898 218.084 421.363C217.838 421.823 217.715 422.379 217.715 423.031ZM233.981 435.222C233.002 435.222 232.16 435.094 231.454 434.837C230.754 434.581 230.181 434.241 229.738 433.819C229.294 433.396 228.962 432.934 228.743 432.431L230.804 431.581C230.949 431.816 231.141 432.065 231.382 432.327C231.628 432.594 231.959 432.821 232.376 433.009C232.799 433.196 233.342 433.289 234.005 433.289C234.914 433.289 235.665 433.067 236.258 432.624C236.852 432.185 237.149 431.485 237.149 430.522V428.1H236.996C236.852 428.362 236.643 428.653 236.371 428.974C236.103 429.295 235.734 429.573 235.264 429.808C234.793 430.044 234.181 430.161 233.427 430.161C232.454 430.161 231.577 429.934 230.796 429.479C230.021 429.02 229.406 428.343 228.952 427.45C228.503 426.552 228.278 425.448 228.278 424.138C228.278 422.828 228.5 421.705 228.944 420.769C229.393 419.833 230.008 419.117 230.788 418.62C231.569 418.117 232.454 417.866 233.443 417.866C234.208 417.866 234.825 417.994 235.296 418.251C235.766 418.502 236.133 418.796 236.395 419.133C236.662 419.47 236.868 419.767 237.012 420.023H237.189V418.026H239.539V430.618C239.539 431.677 239.293 432.546 238.801 433.225C238.309 433.904 237.643 434.407 236.804 434.733C235.97 435.059 235.029 435.222 233.981 435.222ZM233.956 428.172C234.646 428.172 235.229 428.012 235.705 427.691C236.186 427.365 236.55 426.9 236.796 426.295C237.047 425.686 237.173 424.956 237.173 424.106C237.173 423.277 237.05 422.547 236.804 421.916C236.558 421.285 236.197 420.793 235.721 420.44C235.245 420.082 234.657 419.903 233.956 419.903C233.235 419.903 232.633 420.09 232.152 420.464C231.671 420.833 231.307 421.336 231.061 421.972C230.82 422.609 230.7 423.32 230.7 424.106C230.7 424.913 230.823 425.622 231.069 426.231C231.315 426.841 231.679 427.317 232.16 427.659C232.646 428.001 233.245 428.172 233.956 428.172ZM248.065 430.594C246.851 430.594 245.805 430.335 244.929 429.816C244.057 429.292 243.383 428.557 242.907 427.611C242.437 426.659 242.202 425.544 242.202 424.266C242.202 423.004 242.437 421.892 242.907 420.93C243.383 419.967 244.046 419.216 244.896 418.676C245.752 418.136 246.752 417.866 247.896 417.866C248.591 417.866 249.265 417.981 249.917 418.211C250.57 418.441 251.155 418.802 251.674 419.293C252.192 419.785 252.602 420.424 252.901 421.21C253.2 421.991 253.35 422.94 253.35 424.058V424.908H243.557V423.111H251C251 422.48 250.872 421.921 250.615 421.435C250.358 420.943 249.998 420.555 249.532 420.272C249.072 419.989 248.532 419.847 247.912 419.847C247.238 419.847 246.65 420.013 246.148 420.344C245.65 420.67 245.265 421.098 244.993 421.627C244.725 422.151 244.592 422.721 244.592 423.336V424.739C244.592 425.563 244.736 426.263 245.025 426.841C245.319 427.418 245.728 427.859 246.252 428.164C246.776 428.464 247.388 428.613 248.089 428.613C248.543 428.613 248.958 428.549 249.332 428.421C249.706 428.287 250.03 428.089 250.302 427.827C250.575 427.565 250.784 427.242 250.928 426.857L253.198 427.266C253.016 427.934 252.69 428.52 252.219 429.022C251.754 429.52 251.169 429.907 250.463 430.185C249.762 430.458 248.963 430.594 248.065 430.594Z" fill="#009966"/>
<g opacity="0.4">
<rect x="309.54" y="411.18" width="198.253" height="21.331" rx="10.6655" fill="#CCCCCC"/>
<rect x="309.54" y="411.18" width="120.457" height="21.331" rx="10.6655" fill="#009966"/>
<rect x="584.333" y="411.18" width="150.572" height="21.331" rx="10.6655" fill="#CCCCCC"/>
<rect x="584.333" y="411.18" width="76.8876" height="21.331" rx="10.6655" fill="#009966"/>
</g>
<path d="M48.0953 468.596H734.905" stroke="#EBEBEB" stroke-width="2.50953"/>
<rect x="49.35" y="501.544" width="27.6048" height="27.6048" fill="#009966" stroke="#009966" stroke-width="2.50953"/>
<path d="M56.8786 516.351L60.8221 520.366L70.681 510.328" stroke="white" stroke-width="3.76429" stroke-linecap="round"/>
<path d="M105.511 514.535L103.337 514.92C103.246 514.642 103.102 514.377 102.904 514.126C102.712 513.875 102.45 513.669 102.118 513.508C101.787 513.348 101.372 513.268 100.875 513.268C100.196 513.268 99.629 513.42 99.1745 513.725C98.72 514.024 98.4928 514.412 98.4928 514.888C98.4928 515.299 98.6451 515.631 98.9499 515.882C99.2547 516.134 99.7466 516.339 100.426 516.5L102.383 516.949C103.516 517.211 104.361 517.615 104.917 518.16C105.473 518.706 105.751 519.414 105.751 520.286C105.751 521.023 105.537 521.681 105.11 522.259C104.687 522.831 104.096 523.28 103.337 523.606C102.583 523.932 101.709 524.095 100.714 524.095C99.3349 524.095 98.2094 523.801 97.3378 523.213C96.4662 522.62 95.9315 521.777 95.7337 520.687L98.0516 520.334C98.196 520.938 98.4928 521.395 98.9419 521.705C99.3911 522.01 99.9766 522.162 100.698 522.162C101.484 522.162 102.113 521.999 102.583 521.673C103.054 521.342 103.289 520.938 103.289 520.462C103.289 520.077 103.145 519.754 102.856 519.492C102.573 519.23 102.137 519.032 101.549 518.898L99.4632 518.441C98.3136 518.179 97.4635 517.762 96.9127 517.19C96.3673 516.618 96.0946 515.893 96.0946 515.016C96.0946 514.289 96.2978 513.653 96.7042 513.107C97.1106 512.562 97.672 512.137 98.3885 511.832C99.105 511.522 99.9258 511.367 100.851 511.367C102.182 511.367 103.23 511.656 103.995 512.233C104.759 512.805 105.265 513.572 105.511 514.535ZM113.577 524.095C112.385 524.095 111.358 523.825 110.497 523.285C109.642 522.74 108.984 521.989 108.524 521.031C108.065 520.074 107.835 518.978 107.835 517.743C107.835 516.492 108.07 515.388 108.54 514.431C109.011 513.468 109.674 512.717 110.53 512.177C111.385 511.637 112.393 511.367 113.553 511.367C114.489 511.367 115.323 511.541 116.056 511.888C116.788 512.23 117.379 512.712 117.828 513.332C118.283 513.952 118.553 514.677 118.638 515.505H116.304C116.176 514.928 115.882 514.431 115.422 514.014C114.968 513.596 114.358 513.388 113.593 513.388C112.925 513.388 112.339 513.564 111.837 513.917C111.34 514.265 110.952 514.762 110.674 515.409C110.396 516.051 110.257 516.81 110.257 517.687C110.257 518.585 110.393 519.361 110.666 520.013C110.939 520.665 111.324 521.171 111.821 521.529C112.323 521.887 112.914 522.066 113.593 522.066C114.048 522.066 114.46 521.983 114.829 521.817C115.203 521.646 115.516 521.403 115.767 521.088C116.024 520.772 116.203 520.393 116.304 519.949H118.638C118.553 520.745 118.293 521.457 117.86 522.082C117.427 522.708 116.847 523.2 116.12 523.558C115.398 523.916 114.55 524.095 113.577 524.095ZM123.601 516.532V523.847H121.203V507.421H123.569V513.532H123.721C124.01 512.869 124.451 512.343 125.045 511.952C125.638 511.562 126.413 511.367 127.371 511.367C128.215 511.367 128.953 511.541 129.584 511.888C130.221 512.236 130.712 512.754 131.06 513.444C131.413 514.129 131.589 514.984 131.589 516.011V523.847H129.191V516.299C129.191 515.396 128.959 514.695 128.493 514.198C128.028 513.695 127.381 513.444 126.552 513.444C125.986 513.444 125.478 513.564 125.029 513.805C124.585 514.046 124.235 514.399 123.978 514.864C123.727 515.324 123.601 515.88 123.601 516.532ZM139.979 524.095C138.824 524.095 137.816 523.831 136.955 523.301C136.094 522.772 135.426 522.031 134.95 521.08C134.474 520.128 134.236 519.016 134.236 517.743C134.236 516.465 134.474 515.348 134.95 514.391C135.426 513.433 136.094 512.69 136.955 512.161C137.816 511.631 138.824 511.367 139.979 511.367C141.134 511.367 142.142 511.631 143.003 512.161C143.863 512.69 144.532 513.433 145.008 514.391C145.484 515.348 145.721 516.465 145.721 517.743C145.721 519.016 145.484 520.128 145.008 521.08C144.532 522.031 143.863 522.772 143.003 523.301C142.142 523.831 141.134 524.095 139.979 524.095ZM139.987 522.082C140.735 522.082 141.356 521.884 141.848 521.489C142.34 521.093 142.703 520.566 142.938 519.909C143.179 519.251 143.299 518.526 143.299 517.735C143.299 516.949 143.179 516.227 142.938 515.57C142.703 514.906 142.34 514.374 141.848 513.973C141.356 513.572 140.735 513.372 139.987 513.372C139.233 513.372 138.607 513.572 138.11 513.973C137.618 514.374 137.252 514.906 137.011 515.57C136.776 516.227 136.658 516.949 136.658 517.735C136.658 518.526 136.776 519.251 137.011 519.909C137.252 520.566 137.618 521.093 138.11 521.489C138.607 521.884 139.233 522.082 139.987 522.082ZM153.588 524.095C152.433 524.095 151.425 523.831 150.564 523.301C149.703 522.772 149.035 522.031 148.559 521.08C148.083 520.128 147.845 519.016 147.845 517.743C147.845 516.465 148.083 515.348 148.559 514.391C149.035 513.433 149.703 512.69 150.564 512.161C151.425 511.631 152.433 511.367 153.588 511.367C154.743 511.367 155.75 511.631 156.611 512.161C157.472 512.69 158.141 513.433 158.616 514.391C159.092 515.348 159.33 516.465 159.33 517.743C159.33 519.016 159.092 520.128 158.616 521.08C158.141 522.031 157.472 522.772 156.611 523.301C155.75 523.831 154.743 524.095 153.588 524.095ZM153.596 522.082C154.344 522.082 154.964 521.884 155.456 521.489C155.948 521.093 156.312 520.566 156.547 519.909C156.788 519.251 156.908 518.526 156.908 517.735C156.908 516.949 156.788 516.227 156.547 515.57C156.312 514.906 155.948 514.374 155.456 513.973C154.964 513.572 154.344 513.372 153.596 513.372C152.842 513.372 152.216 513.572 151.719 513.973C151.227 514.374 150.861 514.906 150.62 515.57C150.385 516.227 150.267 516.949 150.267 517.735C150.267 518.526 150.385 519.251 150.62 519.909C150.861 520.566 151.227 521.093 151.719 521.489C152.216 521.884 152.842 522.082 153.596 522.082ZM164.405 507.421V523.847H162.007V507.421H164.405ZM170.03 507.421V523.847H167.632V507.421H170.03ZM173.256 523.847V511.527H175.654V523.847H173.256ZM174.467 509.626C174.05 509.626 173.692 509.487 173.392 509.209C173.098 508.926 172.951 508.589 172.951 508.199C172.951 507.803 173.098 507.466 173.392 507.188C173.692 506.905 174.05 506.763 174.467 506.763C174.884 506.763 175.24 506.905 175.534 507.188C175.833 507.466 175.983 507.803 175.983 508.199C175.983 508.589 175.833 508.926 175.534 509.209C175.24 509.487 174.884 509.626 174.467 509.626ZM184.743 511.527V513.452H177.781V511.527H184.743ZM179.69 523.847V510.1C179.69 509.33 179.859 508.691 180.196 508.183C180.532 507.669 180.979 507.287 181.535 507.036C182.091 506.779 182.695 506.651 183.348 506.651C183.829 506.651 184.241 506.691 184.583 506.771C184.925 506.846 185.179 506.915 185.345 506.98L184.783 508.921C184.671 508.888 184.527 508.851 184.35 508.808C184.174 508.76 183.96 508.736 183.709 508.736C183.126 508.736 182.709 508.88 182.457 509.169C182.211 509.458 182.088 509.875 182.088 510.42V523.847H179.69ZM192.042 524.095C190.828 524.095 189.783 523.836 188.906 523.317C188.034 522.793 187.361 522.058 186.885 521.112C186.414 520.16 186.179 519.045 186.179 517.767C186.179 516.505 186.414 515.393 186.885 514.431C187.361 513.468 188.024 512.717 188.874 512.177C189.729 511.637 190.729 511.367 191.873 511.367C192.569 511.367 193.242 511.482 193.895 511.712C194.547 511.942 195.132 512.302 195.651 512.794C196.17 513.286 196.579 513.925 196.878 514.711C197.178 515.492 197.327 516.441 197.327 517.559V518.409H187.534V516.612H194.977C194.977 515.981 194.849 515.422 194.592 514.936C194.336 514.444 193.975 514.056 193.51 513.773C193.05 513.49 192.51 513.348 191.89 513.348C191.216 513.348 190.628 513.514 190.125 513.845C189.628 514.171 189.243 514.599 188.97 515.128C188.703 515.652 188.569 516.222 188.569 516.837V518.24C188.569 519.064 188.713 519.764 189.002 520.342C189.296 520.919 189.705 521.36 190.229 521.665C190.753 521.965 191.366 522.114 192.066 522.114C192.52 522.114 192.935 522.05 193.309 521.922C193.683 521.788 194.007 521.59 194.28 521.328C194.552 521.066 194.761 520.743 194.905 520.358L197.175 520.767C196.993 521.435 196.667 522.021 196.197 522.523C195.731 523.021 195.146 523.408 194.44 523.686C193.74 523.959 192.94 524.095 192.042 524.095Z" fill="#009966"/>
<g opacity="0.4">
<rect x="309.54" y="504.681" width="198.253" height="21.331" rx="10.6655" fill="#CCCCCC"/>
<rect x="309.54" y="504.681" width="120.457" height="21.331" rx="10.6655" fill="#009966"/>
<rect x="584.333" y="504.681" width="150.572" height="21.331" rx="10.6655" fill="#CCCCCC"/>
<rect x="584.333" y="504.681" width="76.8876" height="21.331" rx="10.6655" fill="#009966"/>
</g>
<path d="M48.0953 562.097H734.905" stroke="#EBEBEB" stroke-width="2.50953"/>
<rect x="49.35" y="595.045" width="27.6048" height="27.6048" stroke="#B3B3B3" stroke-width="2.50953"/>
<path d="M99.0702 617.347L95.445 605.028H97.9233L100.337 614.075H100.458L102.88 605.028H105.358L107.764 614.035H107.885L110.283 605.028H112.761L109.144 617.347H106.698L104.195 608.453H104.011L101.508 617.347H99.0702ZM119.851 617.596C118.696 617.596 117.689 617.331 116.828 616.802C115.967 616.273 115.298 615.532 114.823 614.58C114.347 613.629 114.109 612.516 114.109 611.244C114.109 609.966 114.347 608.848 114.823 607.891C115.298 606.934 115.967 606.191 116.828 605.662C117.689 605.132 118.696 604.868 119.851 604.868C121.006 604.868 122.014 605.132 122.875 605.662C123.736 606.191 124.404 606.934 124.88 607.891C125.356 608.848 125.594 609.966 125.594 611.244C125.594 612.516 125.356 613.629 124.88 614.58C124.404 615.532 123.736 616.273 122.875 616.802C122.014 617.331 121.006 617.596 119.851 617.596ZM119.859 615.583C120.608 615.583 121.228 615.385 121.72 614.989C122.212 614.594 122.576 614.067 122.811 613.409C123.052 612.752 123.172 612.027 123.172 611.236C123.172 610.45 123.052 609.728 122.811 609.07C122.576 608.407 122.212 607.875 121.72 607.474C121.228 607.073 120.608 606.873 119.859 606.873C119.105 606.873 118.48 607.073 117.983 607.474C117.491 607.875 117.124 608.407 116.884 609.07C116.649 609.728 116.531 610.45 116.531 611.236C116.531 612.027 116.649 612.752 116.884 613.409C117.124 614.067 117.491 614.594 117.983 614.989C118.48 615.385 119.105 615.583 119.859 615.583ZM128.271 617.347V605.028H130.589V606.985H130.717C130.942 606.322 131.337 605.801 131.904 605.421C132.476 605.036 133.123 604.843 133.845 604.843C133.995 604.843 134.171 604.849 134.375 604.859C134.583 604.87 134.746 604.884 134.864 604.9V607.193C134.768 607.167 134.596 607.137 134.35 607.105C134.104 607.068 133.859 607.049 133.613 607.049C133.046 607.049 132.54 607.169 132.097 607.41C131.658 607.645 131.311 607.974 131.054 608.397C130.797 608.814 130.669 609.289 130.669 609.824V617.347H128.271ZM139.145 613.169L139.129 610.241H139.546L144.454 605.028H147.326L141.727 610.963H141.35L139.145 613.169ZM136.939 617.347V600.921H139.337V617.347H136.939ZM144.719 617.347L140.308 611.492L141.96 609.816L147.662 617.347H144.719ZM151.909 600.921V617.347H149.511V600.921H151.909ZM155.136 617.347V605.028H157.534V617.347H155.136ZM156.347 603.127C155.93 603.127 155.571 602.988 155.272 602.71C154.978 602.427 154.831 602.09 154.831 601.699C154.831 601.304 154.978 600.967 155.272 600.689C155.571 600.405 155.93 600.264 156.347 600.264C156.764 600.264 157.119 600.405 157.413 600.689C157.713 600.967 157.863 601.304 157.863 601.699C157.863 602.09 157.713 602.427 157.413 602.71C157.119 602.988 156.764 603.127 156.347 603.127ZM166.623 605.028V606.953H159.661V605.028H166.623ZM161.57 617.347V603.6C161.57 602.83 161.738 602.191 162.075 601.683C162.412 601.17 162.859 600.788 163.415 600.536C163.971 600.28 164.575 600.151 165.227 600.151C165.709 600.151 166.12 600.192 166.463 600.272C166.805 600.347 167.059 600.416 167.224 600.48L166.663 602.421C166.551 602.389 166.406 602.352 166.23 602.309C166.053 602.261 165.84 602.237 165.588 602.237C165.005 602.237 164.588 602.381 164.337 602.67C164.091 602.959 163.968 603.376 163.968 603.921V617.347H161.57ZM173.922 617.596C172.708 617.596 171.662 617.337 170.786 616.818C169.914 616.294 169.24 615.559 168.764 614.612C168.294 613.661 168.059 612.546 168.059 611.268C168.059 610.006 168.294 608.894 168.764 607.931C169.24 606.969 169.903 606.218 170.754 605.678C171.609 605.138 172.609 604.868 173.753 604.868C174.448 604.868 175.122 604.982 175.774 605.212C176.427 605.442 177.012 605.803 177.531 606.295C178.049 606.787 178.459 607.426 178.758 608.212C179.057 608.993 179.207 609.942 179.207 611.059V611.91H169.414V610.113H176.857C176.857 609.482 176.729 608.923 176.472 608.437C176.215 607.945 175.855 607.557 175.389 607.274C174.93 606.99 174.389 606.849 173.769 606.849C173.095 606.849 172.507 607.014 172.005 607.346C171.507 607.672 171.122 608.1 170.85 608.629C170.582 609.153 170.449 609.723 170.449 610.337V611.741C170.449 612.565 170.593 613.265 170.882 613.842C171.176 614.42 171.585 614.861 172.109 615.166C172.633 615.465 173.245 615.615 173.946 615.615C174.4 615.615 174.815 615.551 175.189 615.422C175.563 615.289 175.887 615.091 176.159 614.829C176.432 614.567 176.641 614.243 176.785 613.858L179.055 614.268C178.873 614.936 178.547 615.521 178.076 616.024C177.611 616.521 177.026 616.909 176.32 617.187C175.619 617.46 174.82 617.596 173.922 617.596Z" fill="#B3B3B3"/>
<g opacity="0.4">
<rect x="309.54" y="598.182" width="198.253" height="21.331" rx="10.6655" fill="#CCCCCC"/>
<rect x="309.54" y="598.182" width="120.457" height="21.331" rx="10.6655" fill="#009966"/>
<rect x="584.333" y="598.182" width="150.572" height="21.331" rx="10.6655" fill="#CCCCCC"/>
<rect x="584.333" y="598.182" width="76.8876" height="21.331" rx="10.6655" fill="#009966"/>
</g>
<rect x="23.6274" y="24.6274" width="735.745" height="623.745" rx="11.9203" stroke="black" stroke-width="1.25476"/>
</g>
<defs>
<filter id="filter0_d_119_399" x="0.396648" y="0.0670395" width="795.503" height="683.503" filterUnits="userSpaceOnUse" color-interpolation-filters="sRGB">
<feFlood flood-opacity="0" result="BackgroundImageFix"/>
<feColorMatrix in="SourceAlpha" type="matrix" values="0 0 0 0 0 0 0 0 0 0 0 0 0 0 0 0 0 0 127 0" result="hardAlpha"/>
<feOffset dx="6.64804" dy="5.31844"/>
<feGaussianBlur stdDeviation="14.6257"/>
<feComposite in2="hardAlpha" operator="out"/>
<feColorMatrix type="matrix" values="0 0 0 0 0 0 0 0 0 0 0 0 0 0 0 0 0 0 0.25 0"/>
<feBlend mode="normal" in2="BackgroundImageFix" result="effect1_dropShadow_119_399"/>
<feBlend mode="normal" in="SourceGraphic" in2="effect1_dropShadow_119_399" result="shape"/>
</filter>
</defs>
</svg>
