<svg width="313" height="275" viewBox="0 0 313 275" fill="none" xmlns="http://www.w3.org/2000/svg">
<path d="M0 264L14.1397 274.003L15.7331 256.756L0 264ZM269 8C269 12.4183 272.582 16 277 16C281.418 16 285 12.4183 285 8C285 3.58172 281.418 0 277 0C272.582 0 269 3.58172 269 8ZM10.6808 266.038C12.9857 266.031 15.4082 265.96 17.9356 265.829L17.7797 262.833C15.2955 262.962 12.9222 263.031 10.6715 263.038L10.6808 266.038ZM25.15 265.314C27.4789 265.107 29.8781 264.856 32.3398 264.563L31.9856 261.584C29.5512 261.874 27.1814 262.122 24.884 262.326L25.15 265.314ZM39.516 263.617C41.8606 263.279 44.2514 262.908 46.6824 262.503L46.1903 259.544C43.7796 259.945 41.4102 260.313 39.0879 260.648L39.516 263.617ZM53.756 261.256C56.0821 260.823 58.4385 260.363 60.8202 259.877L60.2197 256.937C57.8547 257.42 55.5157 257.877 53.2072 258.307L53.756 261.256ZM67.8868 258.371C70.2128 257.856 72.5581 257.317 74.9186 256.756L74.2241 253.837C71.8786 254.395 69.5486 254.931 67.238 255.442L67.8868 258.371ZM81.9 255.039C84.2172 254.45 86.5448 253.841 88.8792 253.212L88.0983 250.315C85.7781 250.941 83.4647 251.546 81.1618 252.131L81.9 255.039ZM95.8268 251.285C98.1279 250.628 100.432 249.953 102.735 249.26L101.87 246.387C99.5811 247.076 97.2911 247.747 95.0039 248.4L95.8268 251.285ZM109.624 247.13C111.912 246.404 114.197 245.661 116.474 244.901L115.524 242.055C113.261 242.811 110.991 243.549 108.717 244.271L109.624 247.13ZM123.297 242.564C125.569 241.766 127.83 240.951 130.076 240.12L129.035 237.307C126.805 238.131 124.559 238.94 122.302 239.733L123.297 242.564ZM136.812 237.564C139.068 236.686 141.306 235.791 143.52 234.881L142.38 232.106C140.183 233.009 137.963 233.897 135.723 234.769L136.812 237.564ZM150.158 232.078C152.38 231.114 154.574 230.134 156.735 229.139L155.481 226.414C153.34 227.399 151.166 228.37 148.963 229.326L150.158 232.078ZM163.279 226.033C165.469 224.961 167.619 223.874 169.724 222.772L168.333 220.114C166.253 221.203 164.127 222.278 161.96 223.339L163.279 226.033ZM176.05 219.339C178.193 218.132 180.28 216.909 182.305 215.672L180.74 213.112C178.748 214.33 176.692 215.534 174.578 216.725L176.05 219.339ZM188.429 211.754C190.49 210.372 192.47 208.973 194.362 207.558L192.565 205.155C190.718 206.537 188.78 207.907 186.758 209.263L188.429 211.754ZM200.051 203.023C201.964 201.392 203.756 199.741 205.414 198.071L203.286 195.957C201.691 197.562 199.961 199.157 198.104 200.741L200.051 203.023ZM210.31 192.596C211.909 190.584 213.309 188.545 214.487 186.482L211.882 184.994C210.789 186.909 209.478 188.822 207.962 190.729L210.31 192.596ZM217.52 179.654C218.296 177.201 218.74 174.719 218.816 172.216L215.817 172.125C215.75 174.33 215.359 176.539 214.659 178.749L217.52 179.654ZM217.911 164.697C217.276 162.38 216.306 160.074 214.989 157.784L212.389 159.28C213.588 161.366 214.455 163.437 215.018 165.49L217.911 164.697ZM210.667 151.743C209.86 150.805 208.992 149.871 208.061 148.939L205.939 151.061C206.82 151.942 207.637 152.821 208.392 153.699L210.667 151.743ZM208.061 148.939C207.192 148.071 206.396 147.216 205.67 146.375L203.399 148.335C204.177 149.236 205.023 150.144 205.939 151.061L208.061 148.939ZM201.875 141.048C200.726 138.984 200.022 137.021 199.692 135.149L196.738 135.669C197.133 137.913 197.964 140.191 199.253 142.507L201.875 141.048ZM199.942 128.989C200.45 127.052 201.36 125.143 202.647 123.251L200.166 121.564C198.723 123.687 197.649 125.905 197.04 128.229L199.942 128.989ZM206.951 118.24C208.459 116.785 210.167 115.348 212.051 113.925L210.244 111.531C208.282 113.012 206.478 114.527 204.867 116.083L206.951 118.24ZM217.622 110.072C219.473 108.887 221.427 107.715 223.469 106.551L221.983 103.944C219.905 105.129 217.905 106.328 216.005 107.545L217.622 110.072ZM229.487 103.267C231.473 102.225 233.515 101.19 235.6 100.158L234.269 97.469C232.167 98.5093 230.104 99.5558 228.093 100.611L229.487 103.267ZM241.771 97.1651C243.825 96.1868 245.904 95.2106 247.998 94.2342L246.73 91.5152C244.632 92.4937 242.544 93.4737 240.481 94.4567L241.771 97.1651ZM254.255 91.3294C256.343 90.3616 258.435 89.3917 260.517 88.4184L259.246 85.7007C257.169 86.6716 255.082 87.6397 252.994 88.6075L254.255 91.3294ZM266.758 85.4687C268.855 84.4647 270.93 83.4546 272.972 82.4365L271.633 79.7518C269.608 80.7613 267.548 81.7643 265.462 82.763L266.758 85.4687ZM279.151 79.2675C281.24 78.162 283.278 77.0444 285.248 75.9124L283.754 73.3111C281.818 74.4232 279.811 75.524 277.748 76.6158L279.151 79.2675ZM291.216 72.2956C293.244 70.9916 295.172 69.6639 296.977 68.3091L295.176 65.91C293.438 67.2145 291.571 68.5008 289.594 69.772L291.216 72.2956ZM302.391 63.794C304.201 62.0937 305.809 60.3397 307.169 58.5246L304.769 56.7256C303.531 58.3771 302.046 60.0029 300.337 61.6072L302.391 63.794ZM310.75 52.1697C311.638 49.8384 312.101 47.4142 312.066 44.8965L309.066 44.9385C309.096 47.0509 308.709 49.0994 307.946 51.1021L310.75 52.1697ZM310.609 37.6233C309.814 35.5458 308.688 33.4345 307.215 31.2845L304.74 32.9798C306.099 34.9637 307.107 36.8675 307.807 38.6958L310.609 37.6233ZM302.717 25.7344C301.239 24.1511 299.575 22.5417 297.715 20.9041L295.733 23.1557C297.528 24.7362 299.12 26.2776 300.524 27.7812L302.717 25.7344ZM292.385 16.544C290.611 15.1864 288.703 13.8081 286.658 12.4081L284.963 14.8836C286.969 16.2565 288.833 17.6039 290.563 18.9268L292.385 16.544ZM280.902 8.63994C279.888 8.00305 278.846 7.36164 277.775 6.71564L276.225 9.28436C277.281 9.92152 278.309 10.5536 279.307 11.1807L280.902 8.63994Z" fill="#666666"/>
</svg>
