<svg width="24" height="18" viewBox="0 0 24 18" fill="none" xmlns="http://www.w3.org/2000/svg">
<path d="M23.4975 3.50771C23.3616 3.02301 23.0969 2.58418 22.7316 2.23789C22.3559 1.88094 21.8955 1.6256 21.3937 1.49599C19.516 1.00105 11.993 1.00105 11.993 1.00105C8.85676 0.965369 5.72128 1.12231 2.60427 1.47099C2.10252 1.61018 1.64296 1.87122 1.26645 2.23089C0.896497 2.58684 0.628533 3.02578 0.488551 3.50671C0.15229 5.31821 -0.0110893 7.15757 0.0006171 8.99998C-0.0113813 10.8407 0.151597 12.6795 0.488551 14.4932C0.625533 14.9722 0.892497 15.4091 1.26345 15.7621C1.6344 16.115 2.09634 16.37 2.60427 16.505C4.50701 16.9989 11.993 16.9989 11.993 16.9989C15.1332 17.0346 18.2727 16.8777 21.3937 16.529C21.8955 16.3993 22.3559 16.144 22.7316 15.7871C23.0968 15.4408 23.3611 15.0019 23.4965 14.5172C23.8415 12.7064 24.0093 10.8663 23.9974 9.02297C24.0233 7.17183 23.8558 5.32303 23.4975 3.50671V3.50771ZM9.60133 12.4235V5.57744L15.8605 9.00098L9.60133 12.4235Z" fill="black"/>
</svg>
